<?xml version="1.0" encoding="utf-8"?>
<svg xmlns="http://www.w3.org/2000/svg" xmlns:xlink="http://www.w3.org/1999/xlink" width="600" height="400" viewBox="0 0 2400 1600">
<defs>
  <clipPath id="clip290">
    <rect x="0" y="0" width="2400" height="1600"/>
  </clipPath>
</defs>
<path clip-path="url(#clip290)" d="
M0 1600 L2400 1600 L2400 0 L0 0  Z
  " fill="#ffffff" fill-rule="evenodd" fill-opacity="1"/>
<defs>
  <clipPath id="clip291">
    <rect x="480" y="0" width="1681" height="1600"/>
  </clipPath>
</defs>
<path clip-path="url(#clip290)" d="
M203.964 1423.18 L2352.76 1423.18 L2352.76 123.472 L203.964 123.472  Z
  " fill="#ffffff" fill-rule="evenodd" fill-opacity="1"/>
<defs>
  <clipPath id="clip292">
    <rect x="203" y="123" width="2150" height="1301"/>
  </clipPath>
</defs>
<polyline clip-path="url(#clip292)" style="stroke:#000000; stroke-linecap:butt; stroke-linejoin:round; stroke-width:2; stroke-opacity:0.1; fill:none" points="
  264.778,1423.18 264.778,123.472 
  "/>
<polyline clip-path="url(#clip292)" style="stroke:#000000; stroke-linecap:butt; stroke-linejoin:round; stroke-width:2; stroke-opacity:0.1; fill:none" points="
  771.569,1423.18 771.569,123.472 
  "/>
<polyline clip-path="url(#clip292)" style="stroke:#000000; stroke-linecap:butt; stroke-linejoin:round; stroke-width:2; stroke-opacity:0.1; fill:none" points="
  1278.36,1423.18 1278.36,123.472 
  "/>
<polyline clip-path="url(#clip292)" style="stroke:#000000; stroke-linecap:butt; stroke-linejoin:round; stroke-width:2; stroke-opacity:0.1; fill:none" points="
  1785.15,1423.18 1785.15,123.472 
  "/>
<polyline clip-path="url(#clip292)" style="stroke:#000000; stroke-linecap:butt; stroke-linejoin:round; stroke-width:2; stroke-opacity:0.1; fill:none" points="
  2291.94,1423.18 2291.94,123.472 
  "/>
<polyline clip-path="url(#clip290)" style="stroke:#000000; stroke-linecap:butt; stroke-linejoin:round; stroke-width:4; stroke-opacity:1; fill:none" points="
  203.964,1423.18 2352.76,1423.18 
  "/>
<polyline clip-path="url(#clip290)" style="stroke:#000000; stroke-linecap:butt; stroke-linejoin:round; stroke-width:4; stroke-opacity:1; fill:none" points="
  264.778,1423.18 264.778,1404.28 
  "/>
<polyline clip-path="url(#clip290)" style="stroke:#000000; stroke-linecap:butt; stroke-linejoin:round; stroke-width:4; stroke-opacity:1; fill:none" points="
  771.569,1423.18 771.569,1404.28 
  "/>
<polyline clip-path="url(#clip290)" style="stroke:#000000; stroke-linecap:butt; stroke-linejoin:round; stroke-width:4; stroke-opacity:1; fill:none" points="
  1278.36,1423.18 1278.36,1404.28 
  "/>
<polyline clip-path="url(#clip290)" style="stroke:#000000; stroke-linecap:butt; stroke-linejoin:round; stroke-width:4; stroke-opacity:1; fill:none" points="
  1785.15,1423.18 1785.15,1404.28 
  "/>
<polyline clip-path="url(#clip290)" style="stroke:#000000; stroke-linecap:butt; stroke-linejoin:round; stroke-width:4; stroke-opacity:1; fill:none" points="
  2291.94,1423.18 2291.94,1404.28 
  "/>
<path clip-path="url(#clip290)" d="M242.163 1454.1 Q238.552 1454.1 236.723 1457.66 Q234.917 1461.2 234.917 1468.33 Q234.917 1475.44 236.723 1479.01 Q238.552 1482.55 242.163 1482.55 Q245.797 1482.55 247.603 1479.01 Q249.431 1475.44 249.431 1468.33 Q249.431 1461.2 247.603 1457.66 Q245.797 1454.1 242.163 1454.1 M242.163 1450.39 Q247.973 1450.39 251.029 1455 Q254.107 1459.58 254.107 1468.33 Q254.107 1477.06 251.029 1481.67 Q247.973 1486.25 242.163 1486.25 Q236.353 1486.25 233.274 1481.67 Q230.218 1477.06 230.218 1468.33 Q230.218 1459.58 233.274 1455 Q236.353 1450.39 242.163 1450.39 Z" fill="#000000" fill-rule="evenodd" fill-opacity="1" /><path clip-path="url(#clip290)" d="M262.325 1479.7 L267.209 1479.7 L267.209 1485.58 L262.325 1485.58 L262.325 1479.7 Z" fill="#000000" fill-rule="evenodd" fill-opacity="1" /><path clip-path="url(#clip290)" d="M287.394 1454.1 Q283.783 1454.1 281.954 1457.66 Q280.149 1461.2 280.149 1468.33 Q280.149 1475.44 281.954 1479.01 Q283.783 1482.55 287.394 1482.55 Q291.028 1482.55 292.834 1479.01 Q294.663 1475.44 294.663 1468.33 Q294.663 1461.2 292.834 1457.66 Q291.028 1454.1 287.394 1454.1 M287.394 1450.39 Q293.204 1450.39 296.26 1455 Q299.338 1459.58 299.338 1468.33 Q299.338 1477.06 296.26 1481.67 Q293.204 1486.25 287.394 1486.25 Q281.584 1486.25 278.505 1481.67 Q275.45 1477.06 275.45 1468.33 Q275.45 1459.58 278.505 1455 Q281.584 1450.39 287.394 1450.39 Z" fill="#000000" fill-rule="evenodd" fill-opacity="1" /><path clip-path="url(#clip290)" d="M743.305 1481.64 L759.625 1481.64 L759.625 1485.58 L737.68 1485.58 L737.68 1481.64 Q740.342 1478.89 744.926 1474.26 Q749.532 1469.61 750.713 1468.27 Q752.958 1465.74 753.838 1464.01 Q754.74 1462.25 754.74 1460.56 Q754.74 1457.8 752.796 1456.07 Q750.875 1454.33 747.773 1454.33 Q745.574 1454.33 743.12 1455.09 Q740.69 1455.86 737.912 1457.41 L737.912 1452.69 Q740.736 1451.55 743.19 1450.97 Q745.643 1450.39 747.68 1450.39 Q753.051 1450.39 756.245 1453.08 Q759.44 1455.77 759.44 1460.26 Q759.44 1462.39 758.629 1464.31 Q757.842 1466.2 755.736 1468.8 Q755.157 1469.47 752.055 1472.69 Q748.953 1475.88 743.305 1481.64 Z" fill="#000000" fill-rule="evenodd" fill-opacity="1" /><path clip-path="url(#clip290)" d="M769.439 1479.7 L774.324 1479.7 L774.324 1485.58 L769.439 1485.58 L769.439 1479.7 Z" fill="#000000" fill-rule="evenodd" fill-opacity="1" /><path clip-path="url(#clip290)" d="M784.555 1451.02 L802.912 1451.02 L802.912 1454.96 L788.838 1454.96 L788.838 1463.43 Q789.856 1463.08 790.875 1462.92 Q791.893 1462.73 792.912 1462.73 Q798.699 1462.73 802.078 1465.9 Q805.458 1469.08 805.458 1474.49 Q805.458 1480.07 801.986 1483.17 Q798.513 1486.25 792.194 1486.25 Q790.018 1486.25 787.75 1485.88 Q785.504 1485.51 783.097 1484.77 L783.097 1480.07 Q785.18 1481.2 787.402 1481.76 Q789.625 1482.32 792.101 1482.32 Q796.106 1482.32 798.444 1480.21 Q800.782 1478.1 800.782 1474.49 Q800.782 1470.88 798.444 1468.77 Q796.106 1466.67 792.101 1466.67 Q790.226 1466.67 788.351 1467.08 Q786.5 1467.5 784.555 1468.38 L784.555 1451.02 Z" fill="#000000" fill-rule="evenodd" fill-opacity="1" /><path clip-path="url(#clip290)" d="M1245.52 1451.02 L1263.88 1451.02 L1263.88 1454.96 L1249.81 1454.96 L1249.81 1463.43 Q1250.83 1463.08 1251.84 1462.92 Q1252.86 1462.73 1253.88 1462.73 Q1259.67 1462.73 1263.05 1465.9 Q1266.43 1469.08 1266.43 1474.49 Q1266.43 1480.07 1262.95 1483.17 Q1259.48 1486.25 1253.16 1486.25 Q1250.99 1486.25 1248.72 1485.88 Q1246.47 1485.51 1244.07 1484.77 L1244.07 1480.07 Q1246.15 1481.2 1248.37 1481.76 Q1250.59 1482.32 1253.07 1482.32 Q1257.08 1482.32 1259.41 1480.21 Q1261.75 1478.1 1261.75 1474.49 Q1261.75 1470.88 1259.41 1468.77 Q1257.08 1466.67 1253.07 1466.67 Q1251.2 1466.67 1249.32 1467.08 Q1247.47 1467.5 1245.52 1468.38 L1245.52 1451.02 Z" fill="#000000" fill-rule="evenodd" fill-opacity="1" /><path clip-path="url(#clip290)" d="M1275.64 1479.7 L1280.52 1479.7 L1280.52 1485.58 L1275.64 1485.58 L1275.64 1479.7 Z" fill="#000000" fill-rule="evenodd" fill-opacity="1" /><path clip-path="url(#clip290)" d="M1300.71 1454.1 Q1297.1 1454.1 1295.27 1457.66 Q1293.46 1461.2 1293.46 1468.33 Q1293.46 1475.44 1295.27 1479.01 Q1297.1 1482.55 1300.71 1482.55 Q1304.34 1482.55 1306.15 1479.01 Q1307.98 1475.44 1307.98 1468.33 Q1307.98 1461.2 1306.15 1457.66 Q1304.34 1454.1 1300.71 1454.1 M1300.71 1450.39 Q1306.52 1450.39 1309.57 1455 Q1312.65 1459.58 1312.65 1468.33 Q1312.65 1477.06 1309.57 1481.67 Q1306.52 1486.25 1300.71 1486.25 Q1294.9 1486.25 1291.82 1481.67 Q1288.76 1477.06 1288.76 1468.33 Q1288.76 1459.58 1291.82 1455 Q1294.9 1450.39 1300.71 1450.39 Z" fill="#000000" fill-rule="evenodd" fill-opacity="1" /><path clip-path="url(#clip290)" d="M1751.47 1451.02 L1773.69 1451.02 L1773.69 1453.01 L1761.15 1485.58 L1756.26 1485.58 L1768.07 1454.96 L1751.47 1454.96 L1751.47 1451.02 Z" fill="#000000" fill-rule="evenodd" fill-opacity="1" /><path clip-path="url(#clip290)" d="M1782.81 1479.7 L1787.7 1479.7 L1787.7 1485.58 L1782.81 1485.58 L1782.81 1479.7 Z" fill="#000000" fill-rule="evenodd" fill-opacity="1" /><path clip-path="url(#clip290)" d="M1797.93 1451.02 L1816.28 1451.02 L1816.28 1454.96 L1802.21 1454.96 L1802.21 1463.43 Q1803.23 1463.08 1804.25 1462.92 Q1805.27 1462.73 1806.28 1462.73 Q1812.07 1462.73 1815.45 1465.9 Q1818.83 1469.08 1818.83 1474.49 Q1818.83 1480.07 1815.36 1483.17 Q1811.89 1486.25 1805.57 1486.25 Q1803.39 1486.25 1801.12 1485.88 Q1798.88 1485.51 1796.47 1484.77 L1796.47 1480.07 Q1798.55 1481.2 1800.78 1481.76 Q1803 1482.32 1805.47 1482.32 Q1809.48 1482.32 1811.82 1480.21 Q1814.15 1478.1 1814.15 1474.49 Q1814.15 1470.88 1811.82 1468.77 Q1809.48 1466.67 1805.47 1466.67 Q1803.6 1466.67 1801.72 1467.08 Q1799.87 1467.5 1797.93 1468.38 L1797.93 1451.02 Z" fill="#000000" fill-rule="evenodd" fill-opacity="1" /><path clip-path="url(#clip290)" d="M2244.01 1481.64 L2251.65 1481.64 L2251.65 1455.28 L2243.34 1456.95 L2243.34 1452.69 L2251.61 1451.02 L2256.28 1451.02 L2256.28 1481.64 L2263.92 1481.64 L2263.92 1485.58 L2244.01 1485.58 L2244.01 1481.64 Z" fill="#000000" fill-rule="evenodd" fill-opacity="1" /><path clip-path="url(#clip290)" d="M2283.36 1454.1 Q2279.75 1454.1 2277.92 1457.66 Q2276.12 1461.2 2276.12 1468.33 Q2276.12 1475.44 2277.92 1479.01 Q2279.75 1482.55 2283.36 1482.55 Q2287 1482.55 2288.8 1479.01 Q2290.63 1475.44 2290.63 1468.33 Q2290.63 1461.2 2288.8 1457.66 Q2287 1454.1 2283.36 1454.1 M2283.36 1450.39 Q2289.17 1450.39 2292.23 1455 Q2295.31 1459.58 2295.31 1468.33 Q2295.31 1477.06 2292.23 1481.67 Q2289.17 1486.25 2283.36 1486.25 Q2277.55 1486.25 2274.48 1481.67 Q2271.42 1477.06 2271.42 1468.33 Q2271.42 1459.58 2274.48 1455 Q2277.55 1450.39 2283.36 1450.39 Z" fill="#000000" fill-rule="evenodd" fill-opacity="1" /><path clip-path="url(#clip290)" d="M2303.53 1479.7 L2308.41 1479.7 L2308.41 1485.58 L2303.53 1485.58 L2303.53 1479.7 Z" fill="#000000" fill-rule="evenodd" fill-opacity="1" /><path clip-path="url(#clip290)" d="M2328.6 1454.1 Q2324.98 1454.1 2323.16 1457.66 Q2321.35 1461.2 2321.35 1468.33 Q2321.35 1475.44 2323.16 1479.01 Q2324.98 1482.55 2328.6 1482.55 Q2332.23 1482.55 2334.04 1479.01 Q2335.86 1475.44 2335.86 1468.33 Q2335.86 1461.2 2334.04 1457.66 Q2332.23 1454.1 2328.6 1454.1 M2328.6 1450.39 Q2334.41 1450.39 2337.46 1455 Q2340.54 1459.58 2340.54 1468.33 Q2340.54 1477.06 2337.46 1481.67 Q2334.41 1486.25 2328.6 1486.25 Q2322.79 1486.25 2319.71 1481.67 Q2316.65 1477.06 2316.65 1468.33 Q2316.65 1459.58 2319.71 1455 Q2322.79 1450.39 2328.6 1450.39 Z" fill="#000000" fill-rule="evenodd" fill-opacity="1" /><path clip-path="url(#clip290)" d="M1260.19 1520.52 L1267.09 1520.52 L1278.9 1538.19 L1290.77 1520.52 L1297.68 1520.52 L1282.4 1543.34 L1298.7 1568.04 L1291.79 1568.04 L1278.42 1547.83 L1264.96 1568.04 L1258.02 1568.04 L1274.99 1542.68 L1260.19 1520.52 Z" fill="#000000" fill-rule="evenodd" fill-opacity="1" /><polyline clip-path="url(#clip292)" style="stroke:#000000; stroke-linecap:butt; stroke-linejoin:round; stroke-width:2; stroke-opacity:0.1; fill:none" points="
  203.964,1386.4 2352.76,1386.4 
  "/>
<polyline clip-path="url(#clip292)" style="stroke:#000000; stroke-linecap:butt; stroke-linejoin:round; stroke-width:2; stroke-opacity:0.1; fill:none" points="
  203.964,1079.86 2352.76,1079.86 
  "/>
<polyline clip-path="url(#clip292)" style="stroke:#000000; stroke-linecap:butt; stroke-linejoin:round; stroke-width:2; stroke-opacity:0.1; fill:none" points="
  203.964,773.326 2352.76,773.326 
  "/>
<polyline clip-path="url(#clip292)" style="stroke:#000000; stroke-linecap:butt; stroke-linejoin:round; stroke-width:2; stroke-opacity:0.1; fill:none" points="
  203.964,466.791 2352.76,466.791 
  "/>
<polyline clip-path="url(#clip292)" style="stroke:#000000; stroke-linecap:butt; stroke-linejoin:round; stroke-width:2; stroke-opacity:0.1; fill:none" points="
  203.964,160.256 2352.76,160.256 
  "/>
<polyline clip-path="url(#clip290)" style="stroke:#000000; stroke-linecap:butt; stroke-linejoin:round; stroke-width:4; stroke-opacity:1; fill:none" points="
  203.964,1423.18 203.964,123.472 
  "/>
<polyline clip-path="url(#clip290)" style="stroke:#000000; stroke-linecap:butt; stroke-linejoin:round; stroke-width:4; stroke-opacity:1; fill:none" points="
  203.964,1386.4 222.861,1386.4 
  "/>
<polyline clip-path="url(#clip290)" style="stroke:#000000; stroke-linecap:butt; stroke-linejoin:round; stroke-width:4; stroke-opacity:1; fill:none" points="
  203.964,1079.86 222.861,1079.86 
  "/>
<polyline clip-path="url(#clip290)" style="stroke:#000000; stroke-linecap:butt; stroke-linejoin:round; stroke-width:4; stroke-opacity:1; fill:none" points="
  203.964,773.326 222.861,773.326 
  "/>
<polyline clip-path="url(#clip290)" style="stroke:#000000; stroke-linecap:butt; stroke-linejoin:round; stroke-width:4; stroke-opacity:1; fill:none" points="
  203.964,466.791 222.861,466.791 
  "/>
<polyline clip-path="url(#clip290)" style="stroke:#000000; stroke-linecap:butt; stroke-linejoin:round; stroke-width:4; stroke-opacity:1; fill:none" points="
  203.964,160.256 222.861,160.256 
  "/>
<path clip-path="url(#clip290)" d="M156.019 1372.19 Q152.408 1372.19 150.579 1375.76 Q148.774 1379.3 148.774 1386.43 Q148.774 1393.54 150.579 1397.1 Q152.408 1400.64 156.019 1400.64 Q159.653 1400.64 161.459 1397.1 Q163.288 1393.54 163.288 1386.43 Q163.288 1379.3 161.459 1375.76 Q159.653 1372.19 156.019 1372.19 M156.019 1368.49 Q161.829 1368.49 164.885 1373.1 Q167.964 1377.68 167.964 1386.43 Q167.964 1395.16 164.885 1399.76 Q161.829 1404.35 156.019 1404.35 Q150.209 1404.35 147.13 1399.76 Q144.075 1395.16 144.075 1386.43 Q144.075 1377.68 147.13 1373.1 Q150.209 1368.49 156.019 1368.49 Z" fill="#000000" fill-rule="evenodd" fill-opacity="1" /><path clip-path="url(#clip290)" d="M147.061 1062.58 L165.417 1062.58 L165.417 1066.52 L151.343 1066.52 L151.343 1074.99 Q152.362 1074.64 153.38 1074.48 Q154.399 1074.29 155.417 1074.29 Q161.204 1074.29 164.584 1077.47 Q167.964 1080.64 167.964 1086.05 Q167.964 1091.63 164.491 1094.73 Q161.019 1097.81 154.7 1097.81 Q152.524 1097.81 150.255 1097.44 Q148.01 1097.07 145.603 1096.33 L145.603 1091.63 Q147.686 1092.77 149.908 1093.32 Q152.13 1093.88 154.607 1093.88 Q158.612 1093.88 160.95 1091.77 Q163.288 1089.66 163.288 1086.05 Q163.288 1082.44 160.95 1080.34 Q158.612 1078.23 154.607 1078.23 Q152.732 1078.23 150.857 1078.65 Q149.005 1079.06 147.061 1079.94 L147.061 1062.58 Z" fill="#000000" fill-rule="evenodd" fill-opacity="1" /><path clip-path="url(#clip290)" d="M116.668 786.671 L124.306 786.671 L124.306 760.305 L115.996 761.972 L115.996 757.713 L124.26 756.046 L128.936 756.046 L128.936 786.671 L136.575 786.671 L136.575 790.606 L116.668 790.606 L116.668 786.671 Z" fill="#000000" fill-rule="evenodd" fill-opacity="1" /><path clip-path="url(#clip290)" d="M156.019 759.125 Q152.408 759.125 150.579 762.689 Q148.774 766.231 148.774 773.361 Q148.774 780.467 150.579 784.032 Q152.408 787.574 156.019 787.574 Q159.653 787.574 161.459 784.032 Q163.288 780.467 163.288 773.361 Q163.288 766.231 161.459 762.689 Q159.653 759.125 156.019 759.125 M156.019 755.421 Q161.829 755.421 164.885 760.027 Q167.964 764.611 167.964 773.361 Q167.964 782.088 164.885 786.694 Q161.829 791.277 156.019 791.277 Q150.209 791.277 147.13 786.694 Q144.075 782.088 144.075 773.361 Q144.075 764.611 147.13 760.027 Q150.209 755.421 156.019 755.421 Z" fill="#000000" fill-rule="evenodd" fill-opacity="1" /><path clip-path="url(#clip290)" d="M117.663 480.136 L125.302 480.136 L125.302 453.77 L116.992 455.437 L116.992 451.178 L125.255 449.511 L129.931 449.511 L129.931 480.136 L137.57 480.136 L137.57 484.071 L117.663 484.071 L117.663 480.136 Z" fill="#000000" fill-rule="evenodd" fill-opacity="1" /><path clip-path="url(#clip290)" d="M147.061 449.511 L165.417 449.511 L165.417 453.446 L151.343 453.446 L151.343 461.918 Q152.362 461.571 153.38 461.409 Q154.399 461.224 155.417 461.224 Q161.204 461.224 164.584 464.395 Q167.964 467.567 167.964 472.983 Q167.964 478.562 164.491 481.664 Q161.019 484.742 154.7 484.742 Q152.524 484.742 150.255 484.372 Q148.01 484.002 145.603 483.261 L145.603 478.562 Q147.686 479.696 149.908 480.252 Q152.13 480.807 154.607 480.807 Q158.612 480.807 160.95 478.701 Q163.288 476.594 163.288 472.983 Q163.288 469.372 160.95 467.266 Q158.612 465.159 154.607 465.159 Q152.732 465.159 150.857 465.576 Q149.005 465.993 147.061 466.872 L147.061 449.511 Z" fill="#000000" fill-rule="evenodd" fill-opacity="1" /><path clip-path="url(#clip290)" d="M119.885 173.601 L136.204 173.601 L136.204 177.536 L114.26 177.536 L114.26 173.601 Q116.922 170.847 121.505 166.217 Q126.112 161.564 127.292 160.222 Q129.538 157.698 130.417 155.962 Q131.32 154.203 131.32 152.513 Q131.32 149.759 129.376 148.023 Q127.455 146.286 124.353 146.286 Q122.154 146.286 119.7 147.05 Q117.269 147.814 114.492 149.365 L114.492 144.643 Q117.316 143.509 119.769 142.93 Q122.223 142.351 124.26 142.351 Q129.63 142.351 132.825 145.036 Q136.019 147.722 136.019 152.212 Q136.019 154.342 135.209 156.263 Q134.422 158.161 132.316 160.754 Q131.737 161.425 128.635 164.643 Q125.533 167.837 119.885 173.601 Z" fill="#000000" fill-rule="evenodd" fill-opacity="1" /><path clip-path="url(#clip290)" d="M156.019 146.055 Q152.408 146.055 150.579 149.62 Q148.774 153.161 148.774 160.291 Q148.774 167.397 150.579 170.962 Q152.408 174.504 156.019 174.504 Q159.653 174.504 161.459 170.962 Q163.288 167.397 163.288 160.291 Q163.288 153.161 161.459 149.62 Q159.653 146.055 156.019 146.055 M156.019 142.351 Q161.829 142.351 164.885 146.958 Q167.964 151.541 167.964 160.291 Q167.964 169.018 164.885 173.624 Q161.829 178.208 156.019 178.208 Q150.209 178.208 147.13 173.624 Q144.075 169.018 144.075 160.291 Q144.075 151.541 147.13 146.958 Q150.209 142.351 156.019 142.351 Z" fill="#000000" fill-rule="evenodd" fill-opacity="1" /><path clip-path="url(#clip290)" d="M16.4842 793.362 L16.4842 786.455 L36.0269 773.278 L16.4842 760.197 L16.4842 753.29 L41.3741 770.095 L64.0042 770.095 L64.0042 776.557 L41.3741 776.557 L16.4842 793.362 Z" fill="#000000" fill-rule="evenodd" fill-opacity="1" /><path clip-path="url(#clip290)" d="M1090.94 12.096 L1125.7 12.096 L1125.7 18.9825 L1099.13 18.9825 L1099.13 36.8065 L1123.11 36.8065 L1123.11 43.6931 L1099.13 43.6931 L1099.13 72.576 L1090.94 72.576 L1090.94 12.096 Z" fill="#000000" fill-rule="evenodd" fill-opacity="1" /><path clip-path="url(#clip290)" d="M1156.25 9.62495 Q1150.82 18.942 1148.18 28.0566 Q1145.55 37.1711 1145.55 46.5287 Q1145.55 55.8863 1148.18 65.0818 Q1150.86 74.2369 1156.25 83.5134 L1149.76 83.5134 Q1143.69 73.9938 1140.65 64.7983 Q1137.65 55.6027 1137.65 46.5287 Q1137.65 37.4952 1140.65 28.3401 Q1143.65 19.1851 1149.76 9.62495 L1156.25 9.62495 Z" fill="#000000" fill-rule="evenodd" fill-opacity="1" /><path clip-path="url(#clip290)" d="M1208.42 27.2059 L1192.01 49.2833 L1209.27 72.576 L1200.48 72.576 L1187.28 54.752 L1174.07 72.576 L1165.28 72.576 L1182.9 48.8377 L1166.78 27.2059 L1175.57 27.2059 L1187.6 43.369 L1199.63 27.2059 L1208.42 27.2059 Z" fill="#000000" fill-rule="evenodd" fill-opacity="1" /><path clip-path="url(#clip290)" d="M1218.63 9.62495 L1225.11 9.62495 Q1231.19 19.1851 1234.18 28.3401 Q1237.22 37.4952 1237.22 46.5287 Q1237.22 55.6027 1234.18 64.7983 Q1231.19 73.9938 1225.11 83.5134 L1218.63 83.5134 Q1224.02 74.2369 1226.65 65.0818 Q1229.32 55.8863 1229.32 46.5287 Q1229.32 37.1711 1226.65 28.0566 Q1224.02 18.942 1218.63 9.62495 Z" fill="#000000" fill-rule="evenodd" fill-opacity="1" /><path clip-path="url(#clip290)" d="M1279.51 34.9026 L1331.45 34.9026 L1331.45 41.7081 L1279.51 41.7081 L1279.51 34.9026 M1279.51 51.4303 L1331.45 51.4303 L1331.45 58.3168 L1279.51 58.3168 L1279.51 51.4303 Z" fill="#000000" fill-rule="evenodd" fill-opacity="1" /><path clip-path="url(#clip290)" d="M1382.53 65.6895 L1411.09 65.6895 L1411.09 72.576 L1372.69 72.576 L1372.69 65.6895 Q1377.34 60.8689 1385.36 52.7671 Q1393.43 44.6248 1395.49 42.2752 Q1399.42 37.8598 1400.96 34.8216 Q1402.54 31.7429 1402.54 28.7857 Q1402.54 23.9651 1399.14 20.927 Q1395.78 17.8888 1390.35 17.8888 Q1386.5 17.8888 1382.2 19.2256 Q1377.95 20.5624 1373.09 23.2765 L1373.09 15.0127 Q1378.03 13.0277 1382.33 12.015 Q1386.62 11.0023 1390.18 11.0023 Q1399.58 11.0023 1405.17 15.7013 Q1410.76 20.4004 1410.76 28.2591 Q1410.76 31.9859 1409.35 35.3482 Q1407.97 38.6699 1404.28 43.2069 Q1403.27 44.3817 1397.84 50.0125 Q1392.41 55.6027 1382.53 65.6895 Z" fill="#000000" fill-rule="evenodd" fill-opacity="1" /><path clip-path="url(#clip290)" d="M1464.92 27.2059 L1448.52 49.2833 L1465.77 72.576 L1456.98 72.576 L1443.78 54.752 L1430.57 72.576 L1421.78 72.576 L1439.4 48.8377 L1423.28 27.2059 L1432.07 27.2059 L1444.1 43.369 L1456.13 27.2059 L1464.92 27.2059 Z" fill="#000000" fill-rule="evenodd" fill-opacity="1" /><polyline clip-path="url(#clip292)" style="stroke:#009af9; stroke-linecap:butt; stroke-linejoin:round; stroke-width:4; stroke-opacity:1; fill:none" points="
  264.778,1386.4 467.495,1263.78 670.211,1141.17 872.927,1018.55 1075.64,895.94 1278.36,773.326 1481.08,650.712 1683.79,528.098 1886.51,405.484 2089.22,282.87 
  2291.94,160.256 
  "/>
<path clip-path="url(#clip290)" d="
M1834.23 270.476 L2281.13 270.476 L2281.13 166.796 L1834.23 166.796  Z
  " fill="#ffffff" fill-rule="evenodd" fill-opacity="1"/>
<polyline clip-path="url(#clip290)" style="stroke:#000000; stroke-linecap:butt; stroke-linejoin:round; stroke-width:4; stroke-opacity:1; fill:none" points="
  1834.23,270.476 2281.13,270.476 2281.13,166.796 1834.23,166.796 1834.23,270.476 
  "/>
<polyline clip-path="url(#clip290)" style="stroke:#009af9; stroke-linecap:butt; stroke-linejoin:round; stroke-width:4; stroke-opacity:1; fill:none" points="
  1858.1,218.636 2001.36,218.636 
  "/>
<path clip-path="url(#clip290)" d="M2041.25 204.527 Q2036.16 204.527 2033.15 208.323 Q2030.16 212.12 2030.16 218.67 Q2030.16 225.198 2033.15 228.994 Q2036.16 232.791 2041.25 232.791 Q2046.34 232.791 2049.31 228.994 Q2052.29 225.198 2052.29 218.67 Q2052.29 212.12 2049.31 208.323 Q2046.34 204.527 2041.25 204.527 M2041.25 200.731 Q2048.52 200.731 2052.87 205.615 Q2057.22 210.476 2057.22 218.67 Q2057.22 226.842 2052.87 231.726 Q2048.52 236.587 2041.25 236.587 Q2033.96 236.587 2029.58 231.726 Q2025.23 226.865 2025.23 218.67 Q2025.23 210.476 2029.58 205.615 Q2033.96 200.731 2041.25 200.731 Z" fill="#000000" fill-rule="evenodd" fill-opacity="1" /><path clip-path="url(#clip290)" d="M2063.91 225.684 L2063.91 209.99 L2068.17 209.99 L2068.17 225.522 Q2068.17 229.203 2069.61 231.055 Q2071.04 232.883 2073.91 232.883 Q2077.36 232.883 2079.35 230.684 Q2081.37 228.485 2081.37 224.689 L2081.37 209.99 L2085.62 209.99 L2085.62 235.916 L2081.37 235.916 L2081.37 231.934 Q2079.81 234.295 2077.75 235.453 Q2075.72 236.587 2073.01 236.587 Q2068.54 236.587 2066.23 233.809 Q2063.91 231.031 2063.91 225.684 M2074.63 209.365 L2074.63 209.365 Z" fill="#000000" fill-rule="evenodd" fill-opacity="1" /><path clip-path="url(#clip290)" d="M2109.42 213.971 Q2108.7 213.555 2107.85 213.37 Q2107.01 213.161 2105.99 213.161 Q2102.38 213.161 2100.44 215.522 Q2098.52 217.86 2098.52 222.258 L2098.52 235.916 L2094.24 235.916 L2094.24 209.99 L2098.52 209.99 L2098.52 214.018 Q2099.86 211.657 2102.01 210.522 Q2104.17 209.365 2107.24 209.365 Q2107.68 209.365 2108.22 209.434 Q2108.75 209.481 2109.4 209.596 L2109.42 213.971 Z" fill="#000000" fill-rule="evenodd" fill-opacity="1" /><path clip-path="url(#clip290)" d="M2133.82 205.198 L2133.82 232.073 L2139.47 232.073 Q2146.62 232.073 2149.93 228.832 Q2153.26 225.592 2153.26 218.601 Q2153.26 211.657 2149.93 208.439 Q2146.62 205.198 2139.47 205.198 L2133.82 205.198 M2129.14 201.356 L2138.75 201.356 Q2148.8 201.356 2153.49 205.546 Q2158.19 209.712 2158.19 218.601 Q2158.19 227.536 2153.47 231.726 Q2148.75 235.916 2138.75 235.916 L2129.14 235.916 L2129.14 201.356 Z" fill="#000000" fill-rule="evenodd" fill-opacity="1" /><path clip-path="url(#clip290)" d="M2177.24 222.883 Q2172.08 222.883 2170.09 224.064 Q2168.1 225.244 2168.1 228.092 Q2168.1 230.36 2169.58 231.703 Q2171.09 233.022 2173.66 233.022 Q2177.2 233.022 2179.33 230.522 Q2181.48 227.999 2181.48 223.832 L2181.48 222.883 L2177.24 222.883 M2185.74 221.124 L2185.74 235.916 L2181.48 235.916 L2181.48 231.981 Q2180.02 234.342 2177.85 235.476 Q2175.67 236.587 2172.52 236.587 Q2168.54 236.587 2166.18 234.365 Q2163.84 232.119 2163.84 228.369 Q2163.84 223.994 2166.76 221.772 Q2169.7 219.55 2175.51 219.55 L2181.48 219.55 L2181.48 219.133 Q2181.48 216.194 2179.54 214.596 Q2177.61 212.976 2174.12 212.976 Q2171.9 212.976 2169.79 213.508 Q2167.68 214.041 2165.74 215.106 L2165.74 211.17 Q2168.08 210.268 2170.28 209.828 Q2172.48 209.365 2174.56 209.365 Q2180.18 209.365 2182.96 212.282 Q2185.74 215.198 2185.74 221.124 Z" fill="#000000" fill-rule="evenodd" fill-opacity="1" /><path clip-path="url(#clip290)" d="M2198.73 202.629 L2198.73 209.99 L2207.5 209.99 L2207.5 213.3 L2198.73 213.3 L2198.73 227.374 Q2198.73 230.545 2199.58 231.448 Q2200.46 232.351 2203.12 232.351 L2207.5 232.351 L2207.5 235.916 L2203.12 235.916 Q2198.19 235.916 2196.32 234.087 Q2194.44 232.235 2194.44 227.374 L2194.44 213.3 L2191.32 213.3 L2191.32 209.99 L2194.44 209.99 L2194.44 202.629 L2198.73 202.629 Z" fill="#000000" fill-rule="evenodd" fill-opacity="1" /><path clip-path="url(#clip290)" d="M2224.88 222.883 Q2219.72 222.883 2217.73 224.064 Q2215.74 225.244 2215.74 228.092 Q2215.74 230.36 2217.22 231.703 Q2218.73 233.022 2221.3 233.022 Q2224.84 233.022 2226.97 230.522 Q2229.12 227.999 2229.12 223.832 L2229.12 222.883 L2224.88 222.883 M2233.38 221.124 L2233.38 235.916 L2229.12 235.916 L2229.12 231.981 Q2227.66 234.342 2225.49 235.476 Q2223.31 236.587 2220.16 236.587 Q2216.18 236.587 2213.82 234.365 Q2211.48 232.119 2211.48 228.369 Q2211.48 223.994 2214.4 221.772 Q2217.34 219.55 2223.15 219.55 L2229.12 219.55 L2229.12 219.133 Q2229.12 216.194 2227.17 214.596 Q2225.25 212.976 2221.76 212.976 Q2219.54 212.976 2217.43 213.508 Q2215.32 214.041 2213.38 215.106 L2213.38 211.17 Q2215.72 210.268 2217.92 209.828 Q2220.11 209.365 2222.2 209.365 Q2227.82 209.365 2230.6 212.282 Q2233.38 215.198 2233.38 221.124 Z" fill="#000000" fill-rule="evenodd" fill-opacity="1" /></svg>
