<?xml version="1.0" encoding="utf-8"?>
<svg xmlns="http://www.w3.org/2000/svg" xmlns:xlink="http://www.w3.org/1999/xlink" width="600" height="400" viewBox="0 0 2400 1600">
<defs>
  <clipPath id="clip330">
    <rect x="0" y="0" width="2400" height="1600"/>
  </clipPath>
</defs>
<path clip-path="url(#clip330)" d="
M0 1600 L2400 1600 L2400 0 L0 0  Z
  " fill="#ffffff" fill-rule="evenodd" fill-opacity="1"/>
<defs>
  <clipPath id="clip331">
    <rect x="480" y="0" width="1681" height="1600"/>
  </clipPath>
</defs>
<path clip-path="url(#clip330)" d="
M249.542 1423.18 L2352.76 1423.18 L2352.76 123.472 L249.542 123.472  Z
  " fill="#ffffff" fill-rule="evenodd" fill-opacity="1"/>
<defs>
  <clipPath id="clip332">
    <rect x="249" y="123" width="2104" height="1301"/>
  </clipPath>
</defs>
<polyline clip-path="url(#clip332)" style="stroke:#000000; stroke-linecap:butt; stroke-linejoin:round; stroke-width:2; stroke-opacity:0.1; fill:none" points="
  309.067,1423.18 309.067,123.472 
  "/>
<polyline clip-path="url(#clip332)" style="stroke:#000000; stroke-linecap:butt; stroke-linejoin:round; stroke-width:2; stroke-opacity:0.1; fill:none" points="
  805.108,1423.18 805.108,123.472 
  "/>
<polyline clip-path="url(#clip332)" style="stroke:#000000; stroke-linecap:butt; stroke-linejoin:round; stroke-width:2; stroke-opacity:0.1; fill:none" points="
  1301.15,1423.18 1301.15,123.472 
  "/>
<polyline clip-path="url(#clip332)" style="stroke:#000000; stroke-linecap:butt; stroke-linejoin:round; stroke-width:2; stroke-opacity:0.1; fill:none" points="
  1797.19,1423.18 1797.19,123.472 
  "/>
<polyline clip-path="url(#clip332)" style="stroke:#000000; stroke-linecap:butt; stroke-linejoin:round; stroke-width:2; stroke-opacity:0.1; fill:none" points="
  2293.23,1423.18 2293.23,123.472 
  "/>
<polyline clip-path="url(#clip330)" style="stroke:#000000; stroke-linecap:butt; stroke-linejoin:round; stroke-width:4; stroke-opacity:1; fill:none" points="
  249.542,1423.18 2352.76,1423.18 
  "/>
<polyline clip-path="url(#clip330)" style="stroke:#000000; stroke-linecap:butt; stroke-linejoin:round; stroke-width:4; stroke-opacity:1; fill:none" points="
  309.067,1423.18 309.067,1404.28 
  "/>
<polyline clip-path="url(#clip330)" style="stroke:#000000; stroke-linecap:butt; stroke-linejoin:round; stroke-width:4; stroke-opacity:1; fill:none" points="
  805.108,1423.18 805.108,1404.28 
  "/>
<polyline clip-path="url(#clip330)" style="stroke:#000000; stroke-linecap:butt; stroke-linejoin:round; stroke-width:4; stroke-opacity:1; fill:none" points="
  1301.15,1423.18 1301.15,1404.28 
  "/>
<polyline clip-path="url(#clip330)" style="stroke:#000000; stroke-linecap:butt; stroke-linejoin:round; stroke-width:4; stroke-opacity:1; fill:none" points="
  1797.19,1423.18 1797.19,1404.28 
  "/>
<polyline clip-path="url(#clip330)" style="stroke:#000000; stroke-linecap:butt; stroke-linejoin:round; stroke-width:4; stroke-opacity:1; fill:none" points="
  2293.23,1423.18 2293.23,1404.28 
  "/>
<path clip-path="url(#clip330)" d="M286.451 1454.1 Q282.84 1454.1 281.012 1457.66 Q279.206 1461.2 279.206 1468.33 Q279.206 1475.44 281.012 1479.01 Q282.84 1482.55 286.451 1482.55 Q290.086 1482.55 291.891 1479.01 Q293.72 1475.44 293.72 1468.33 Q293.72 1461.2 291.891 1457.66 Q290.086 1454.1 286.451 1454.1 M286.451 1450.39 Q292.261 1450.39 295.317 1455 Q298.396 1459.58 298.396 1468.33 Q298.396 1477.06 295.317 1481.67 Q292.261 1486.25 286.451 1486.25 Q280.641 1486.25 277.562 1481.67 Q274.507 1477.06 274.507 1468.33 Q274.507 1459.58 277.562 1455 Q280.641 1450.39 286.451 1450.39 Z" fill="#000000" fill-rule="evenodd" fill-opacity="1" /><path clip-path="url(#clip330)" d="M306.613 1479.7 L311.497 1479.7 L311.497 1485.58 L306.613 1485.58 L306.613 1479.7 Z" fill="#000000" fill-rule="evenodd" fill-opacity="1" /><path clip-path="url(#clip330)" d="M331.683 1454.1 Q328.071 1454.1 326.243 1457.66 Q324.437 1461.2 324.437 1468.33 Q324.437 1475.44 326.243 1479.01 Q328.071 1482.55 331.683 1482.55 Q335.317 1482.55 337.122 1479.01 Q338.951 1475.44 338.951 1468.33 Q338.951 1461.2 337.122 1457.66 Q335.317 1454.1 331.683 1454.1 M331.683 1450.39 Q337.493 1450.39 340.548 1455 Q343.627 1459.58 343.627 1468.33 Q343.627 1477.06 340.548 1481.67 Q337.493 1486.25 331.683 1486.25 Q325.872 1486.25 322.794 1481.67 Q319.738 1477.06 319.738 1468.33 Q319.738 1459.58 322.794 1455 Q325.872 1450.39 331.683 1450.39 Z" fill="#000000" fill-rule="evenodd" fill-opacity="1" /><path clip-path="url(#clip330)" d="M776.844 1481.64 L793.164 1481.64 L793.164 1485.58 L771.219 1485.58 L771.219 1481.64 Q773.881 1478.89 778.465 1474.26 Q783.071 1469.61 784.252 1468.27 Q786.497 1465.74 787.377 1464.01 Q788.279 1462.25 788.279 1460.56 Q788.279 1457.8 786.335 1456.07 Q784.414 1454.33 781.312 1454.33 Q779.113 1454.33 776.659 1455.09 Q774.228 1455.86 771.451 1457.41 L771.451 1452.69 Q774.275 1451.55 776.728 1450.97 Q779.182 1450.39 781.219 1450.39 Q786.59 1450.39 789.784 1453.08 Q792.978 1455.77 792.978 1460.26 Q792.978 1462.39 792.168 1464.31 Q791.381 1466.2 789.275 1468.8 Q788.696 1469.47 785.594 1472.69 Q782.492 1475.88 776.844 1481.64 Z" fill="#000000" fill-rule="evenodd" fill-opacity="1" /><path clip-path="url(#clip330)" d="M802.978 1479.7 L807.863 1479.7 L807.863 1485.58 L802.978 1485.58 L802.978 1479.7 Z" fill="#000000" fill-rule="evenodd" fill-opacity="1" /><path clip-path="url(#clip330)" d="M818.094 1451.02 L836.45 1451.02 L836.45 1454.96 L822.376 1454.96 L822.376 1463.43 Q823.395 1463.08 824.413 1462.92 Q825.432 1462.73 826.45 1462.73 Q832.237 1462.73 835.617 1465.9 Q838.997 1469.08 838.997 1474.49 Q838.997 1480.07 835.524 1483.17 Q832.052 1486.25 825.733 1486.25 Q823.557 1486.25 821.288 1485.88 Q819.043 1485.51 816.636 1484.77 L816.636 1480.07 Q818.719 1481.2 820.941 1481.76 Q823.163 1482.32 825.64 1482.32 Q829.645 1482.32 831.983 1480.21 Q834.321 1478.1 834.321 1474.49 Q834.321 1470.88 831.983 1468.77 Q829.645 1466.67 825.64 1466.67 Q823.765 1466.67 821.89 1467.08 Q820.038 1467.5 818.094 1468.38 L818.094 1451.02 Z" fill="#000000" fill-rule="evenodd" fill-opacity="1" /><path clip-path="url(#clip330)" d="M1268.31 1451.02 L1286.67 1451.02 L1286.67 1454.96 L1272.6 1454.96 L1272.6 1463.43 Q1273.61 1463.08 1274.63 1462.92 Q1275.65 1462.73 1276.67 1462.73 Q1282.46 1462.73 1285.84 1465.9 Q1289.22 1469.08 1289.22 1474.49 Q1289.22 1480.07 1285.74 1483.17 Q1282.27 1486.25 1275.95 1486.25 Q1273.78 1486.25 1271.51 1485.88 Q1269.26 1485.51 1266.86 1484.77 L1266.86 1480.07 Q1268.94 1481.2 1271.16 1481.76 Q1273.38 1482.32 1275.86 1482.32 Q1279.86 1482.32 1282.2 1480.21 Q1284.54 1478.1 1284.54 1474.49 Q1284.54 1470.88 1282.2 1468.77 Q1279.86 1466.67 1275.86 1466.67 Q1273.98 1466.67 1272.11 1467.08 Q1270.26 1467.5 1268.31 1468.38 L1268.31 1451.02 Z" fill="#000000" fill-rule="evenodd" fill-opacity="1" /><path clip-path="url(#clip330)" d="M1298.43 1479.7 L1303.31 1479.7 L1303.31 1485.58 L1298.43 1485.58 L1298.43 1479.7 Z" fill="#000000" fill-rule="evenodd" fill-opacity="1" /><path clip-path="url(#clip330)" d="M1323.5 1454.1 Q1319.89 1454.1 1318.06 1457.66 Q1316.25 1461.2 1316.25 1468.33 Q1316.25 1475.44 1318.06 1479.01 Q1319.89 1482.55 1323.5 1482.55 Q1327.13 1482.55 1328.94 1479.01 Q1330.77 1475.44 1330.77 1468.33 Q1330.77 1461.2 1328.94 1457.66 Q1327.13 1454.1 1323.5 1454.1 M1323.5 1450.39 Q1329.31 1450.39 1332.36 1455 Q1335.44 1459.58 1335.44 1468.33 Q1335.44 1477.06 1332.36 1481.67 Q1329.31 1486.25 1323.5 1486.25 Q1317.69 1486.25 1314.61 1481.67 Q1311.55 1477.06 1311.55 1468.33 Q1311.55 1459.58 1314.61 1455 Q1317.69 1450.39 1323.5 1450.39 Z" fill="#000000" fill-rule="evenodd" fill-opacity="1" /><path clip-path="url(#clip330)" d="M1763.51 1451.02 L1785.73 1451.02 L1785.73 1453.01 L1773.19 1485.58 L1768.3 1485.58 L1780.11 1454.96 L1763.51 1454.96 L1763.51 1451.02 Z" fill="#000000" fill-rule="evenodd" fill-opacity="1" /><path clip-path="url(#clip330)" d="M1794.85 1479.7 L1799.74 1479.7 L1799.74 1485.58 L1794.85 1485.58 L1794.85 1479.7 Z" fill="#000000" fill-rule="evenodd" fill-opacity="1" /><path clip-path="url(#clip330)" d="M1809.97 1451.02 L1828.32 1451.02 L1828.32 1454.96 L1814.25 1454.96 L1814.25 1463.43 Q1815.27 1463.08 1816.29 1462.92 Q1817.31 1462.73 1818.32 1462.73 Q1824.11 1462.73 1827.49 1465.9 Q1830.87 1469.08 1830.87 1474.49 Q1830.87 1480.07 1827.4 1483.17 Q1823.93 1486.25 1817.61 1486.25 Q1815.43 1486.25 1813.16 1485.88 Q1810.92 1485.51 1808.51 1484.77 L1808.51 1480.07 Q1810.59 1481.2 1812.81 1481.76 Q1815.04 1482.32 1817.51 1482.32 Q1821.52 1482.32 1823.86 1480.21 Q1826.19 1478.1 1826.19 1474.49 Q1826.19 1470.88 1823.86 1468.77 Q1821.52 1466.67 1817.51 1466.67 Q1815.64 1466.67 1813.76 1467.08 Q1811.91 1467.5 1809.97 1468.38 L1809.97 1451.02 Z" fill="#000000" fill-rule="evenodd" fill-opacity="1" /><path clip-path="url(#clip330)" d="M2245.3 1481.64 L2252.94 1481.64 L2252.94 1455.28 L2244.63 1456.95 L2244.63 1452.69 L2252.9 1451.02 L2257.57 1451.02 L2257.57 1481.64 L2265.21 1481.64 L2265.21 1485.58 L2245.3 1485.58 L2245.3 1481.64 Z" fill="#000000" fill-rule="evenodd" fill-opacity="1" /><path clip-path="url(#clip330)" d="M2284.65 1454.1 Q2281.04 1454.1 2279.21 1457.66 Q2277.41 1461.2 2277.41 1468.33 Q2277.41 1475.44 2279.21 1479.01 Q2281.04 1482.55 2284.65 1482.55 Q2288.29 1482.55 2290.09 1479.01 Q2291.92 1475.44 2291.92 1468.33 Q2291.92 1461.2 2290.09 1457.66 Q2288.29 1454.1 2284.65 1454.1 M2284.65 1450.39 Q2290.46 1450.39 2293.52 1455 Q2296.6 1459.58 2296.6 1468.33 Q2296.6 1477.06 2293.52 1481.67 Q2290.46 1486.25 2284.65 1486.25 Q2278.84 1486.25 2275.77 1481.67 Q2272.71 1477.06 2272.71 1468.33 Q2272.71 1459.58 2275.77 1455 Q2278.84 1450.39 2284.65 1450.39 Z" fill="#000000" fill-rule="evenodd" fill-opacity="1" /><path clip-path="url(#clip330)" d="M2304.82 1479.7 L2309.7 1479.7 L2309.7 1485.58 L2304.82 1485.58 L2304.82 1479.7 Z" fill="#000000" fill-rule="evenodd" fill-opacity="1" /><path clip-path="url(#clip330)" d="M2329.89 1454.1 Q2326.27 1454.1 2324.45 1457.66 Q2322.64 1461.2 2322.64 1468.33 Q2322.64 1475.44 2324.45 1479.01 Q2326.27 1482.55 2329.89 1482.55 Q2333.52 1482.55 2335.33 1479.01 Q2337.15 1475.44 2337.15 1468.33 Q2337.15 1461.2 2335.33 1457.66 Q2333.52 1454.1 2329.89 1454.1 M2329.89 1450.39 Q2335.7 1450.39 2338.75 1455 Q2341.83 1459.58 2341.83 1468.33 Q2341.83 1477.06 2338.75 1481.67 Q2335.7 1486.25 2329.89 1486.25 Q2324.08 1486.25 2321 1481.67 Q2317.94 1477.06 2317.94 1468.33 Q2317.94 1459.58 2321 1455 Q2324.08 1450.39 2329.89 1450.39 Z" fill="#000000" fill-rule="evenodd" fill-opacity="1" /><path clip-path="url(#clip330)" d="M1282.97 1520.52 L1289.88 1520.52 L1301.69 1538.19 L1313.56 1520.52 L1320.47 1520.52 L1305.19 1543.34 L1321.49 1568.04 L1314.58 1568.04 L1301.21 1547.83 L1287.75 1568.04 L1280.81 1568.04 L1297.78 1542.68 L1282.97 1520.52 Z" fill="#000000" fill-rule="evenodd" fill-opacity="1" /><polyline clip-path="url(#clip332)" style="stroke:#000000; stroke-linecap:butt; stroke-linejoin:round; stroke-width:2; stroke-opacity:0.1; fill:none" points="
  249.542,1386.45 2352.76,1386.45 
  "/>
<polyline clip-path="url(#clip332)" style="stroke:#000000; stroke-linecap:butt; stroke-linejoin:round; stroke-width:2; stroke-opacity:0.1; fill:none" points="
  249.542,1079.9 2352.76,1079.9 
  "/>
<polyline clip-path="url(#clip332)" style="stroke:#000000; stroke-linecap:butt; stroke-linejoin:round; stroke-width:2; stroke-opacity:0.1; fill:none" points="
  249.542,773.354 2352.76,773.354 
  "/>
<polyline clip-path="url(#clip332)" style="stroke:#000000; stroke-linecap:butt; stroke-linejoin:round; stroke-width:2; stroke-opacity:0.1; fill:none" points="
  249.542,466.805 2352.76,466.805 
  "/>
<polyline clip-path="url(#clip332)" style="stroke:#000000; stroke-linecap:butt; stroke-linejoin:round; stroke-width:2; stroke-opacity:0.1; fill:none" points="
  249.542,160.256 2352.76,160.256 
  "/>
<polyline clip-path="url(#clip330)" style="stroke:#000000; stroke-linecap:butt; stroke-linejoin:round; stroke-width:4; stroke-opacity:1; fill:none" points="
  249.542,1423.18 249.542,123.472 
  "/>
<polyline clip-path="url(#clip330)" style="stroke:#000000; stroke-linecap:butt; stroke-linejoin:round; stroke-width:4; stroke-opacity:1; fill:none" points="
  249.542,1386.45 268.44,1386.45 
  "/>
<polyline clip-path="url(#clip330)" style="stroke:#000000; stroke-linecap:butt; stroke-linejoin:round; stroke-width:4; stroke-opacity:1; fill:none" points="
  249.542,1079.9 268.44,1079.9 
  "/>
<polyline clip-path="url(#clip330)" style="stroke:#000000; stroke-linecap:butt; stroke-linejoin:round; stroke-width:4; stroke-opacity:1; fill:none" points="
  249.542,773.354 268.44,773.354 
  "/>
<polyline clip-path="url(#clip330)" style="stroke:#000000; stroke-linecap:butt; stroke-linejoin:round; stroke-width:4; stroke-opacity:1; fill:none" points="
  249.542,466.805 268.44,466.805 
  "/>
<polyline clip-path="url(#clip330)" style="stroke:#000000; stroke-linecap:butt; stroke-linejoin:round; stroke-width:4; stroke-opacity:1; fill:none" points="
  249.542,160.256 268.44,160.256 
  "/>
<path clip-path="url(#clip330)" d="M126.205 1372.25 Q122.593 1372.25 120.765 1375.81 Q118.959 1379.36 118.959 1386.49 Q118.959 1393.59 120.765 1397.16 Q122.593 1400.7 126.205 1400.7 Q129.839 1400.7 131.644 1397.16 Q133.473 1393.59 133.473 1386.49 Q133.473 1379.36 131.644 1375.81 Q129.839 1372.25 126.205 1372.25 M126.205 1368.55 Q132.015 1368.55 135.07 1373.15 Q138.149 1377.74 138.149 1386.49 Q138.149 1395.21 135.07 1399.82 Q132.015 1404.4 126.205 1404.4 Q120.394 1404.4 117.316 1399.82 Q114.26 1395.21 114.26 1386.49 Q114.26 1377.74 117.316 1373.15 Q120.394 1368.55 126.205 1368.55 Z" fill="#000000" fill-rule="evenodd" fill-opacity="1" /><path clip-path="url(#clip330)" d="M146.366 1397.85 L151.251 1397.85 L151.251 1403.73 L146.366 1403.73 L146.366 1397.85 Z" fill="#000000" fill-rule="evenodd" fill-opacity="1" /><path clip-path="url(#clip330)" d="M171.436 1372.25 Q167.825 1372.25 165.996 1375.81 Q164.19 1379.36 164.19 1386.49 Q164.19 1393.59 165.996 1397.16 Q167.825 1400.7 171.436 1400.7 Q175.07 1400.7 176.876 1397.16 Q178.704 1393.59 178.704 1386.49 Q178.704 1379.36 176.876 1375.81 Q175.07 1372.25 171.436 1372.25 M171.436 1368.55 Q177.246 1368.55 180.301 1373.15 Q183.38 1377.74 183.38 1386.49 Q183.38 1395.21 180.301 1399.82 Q177.246 1404.4 171.436 1404.4 Q165.626 1404.4 162.547 1399.82 Q159.491 1395.21 159.491 1386.49 Q159.491 1377.74 162.547 1373.15 Q165.626 1368.55 171.436 1368.55 Z" fill="#000000" fill-rule="evenodd" fill-opacity="1" /><path clip-path="url(#clip330)" d="M201.598 1372.25 Q197.987 1372.25 196.158 1375.81 Q194.352 1379.36 194.352 1386.49 Q194.352 1393.59 196.158 1397.16 Q197.987 1400.7 201.598 1400.7 Q205.232 1400.7 207.037 1397.16 Q208.866 1393.59 208.866 1386.49 Q208.866 1379.36 207.037 1375.81 Q205.232 1372.25 201.598 1372.25 M201.598 1368.55 Q207.408 1368.55 210.463 1373.15 Q213.542 1377.74 213.542 1386.49 Q213.542 1395.21 210.463 1399.82 Q207.408 1404.4 201.598 1404.4 Q195.787 1404.4 192.709 1399.82 Q189.653 1395.21 189.653 1386.49 Q189.653 1377.74 192.709 1373.15 Q195.787 1368.55 201.598 1368.55 Z" fill="#000000" fill-rule="evenodd" fill-opacity="1" /><path clip-path="url(#clip330)" d="M127.2 1065.7 Q123.589 1065.7 121.76 1069.27 Q119.955 1072.81 119.955 1079.94 Q119.955 1087.04 121.76 1090.61 Q123.589 1094.15 127.2 1094.15 Q130.834 1094.15 132.64 1090.61 Q134.468 1087.04 134.468 1079.94 Q134.468 1072.81 132.64 1069.27 Q130.834 1065.7 127.2 1065.7 M127.2 1062 Q133.01 1062 136.066 1066.6 Q139.144 1071.19 139.144 1079.94 Q139.144 1088.66 136.066 1093.27 Q133.01 1097.85 127.2 1097.85 Q121.39 1097.85 118.311 1093.27 Q115.256 1088.66 115.256 1079.94 Q115.256 1071.19 118.311 1066.6 Q121.39 1062 127.2 1062 Z" fill="#000000" fill-rule="evenodd" fill-opacity="1" /><path clip-path="url(#clip330)" d="M147.362 1091.3 L152.246 1091.3 L152.246 1097.18 L147.362 1097.18 L147.362 1091.3 Z" fill="#000000" fill-rule="evenodd" fill-opacity="1" /><path clip-path="url(#clip330)" d="M166.459 1093.25 L182.778 1093.25 L182.778 1097.18 L160.834 1097.18 L160.834 1093.25 Q163.496 1090.49 168.079 1085.86 Q172.686 1081.21 173.866 1079.87 Q176.112 1077.34 176.991 1075.61 Q177.894 1073.85 177.894 1072.16 Q177.894 1069.4 175.95 1067.67 Q174.028 1065.93 170.927 1065.93 Q168.727 1065.93 166.274 1066.7 Q163.843 1067.46 161.065 1069.01 L161.065 1064.29 Q163.89 1063.15 166.343 1062.58 Q168.797 1062 170.834 1062 Q176.204 1062 179.399 1064.68 Q182.593 1067.37 182.593 1071.86 Q182.593 1073.99 181.783 1075.91 Q180.996 1077.81 178.889 1080.4 Q178.311 1081.07 175.209 1084.29 Q172.107 1087.48 166.459 1093.25 Z" fill="#000000" fill-rule="evenodd" fill-opacity="1" /><path clip-path="url(#clip330)" d="M192.639 1062.62 L210.996 1062.62 L210.996 1066.56 L196.922 1066.56 L196.922 1075.03 Q197.94 1074.68 198.959 1074.52 Q199.977 1074.34 200.996 1074.34 Q206.783 1074.34 210.162 1077.51 Q213.542 1080.68 213.542 1086.09 Q213.542 1091.67 210.07 1094.78 Q206.598 1097.85 200.278 1097.85 Q198.102 1097.85 195.834 1097.48 Q193.588 1097.11 191.181 1096.37 L191.181 1091.67 Q193.264 1092.81 195.487 1093.36 Q197.709 1093.92 200.186 1093.92 Q204.19 1093.92 206.528 1091.81 Q208.866 1089.71 208.866 1086.09 Q208.866 1082.48 206.528 1080.38 Q204.19 1078.27 200.186 1078.27 Q198.311 1078.27 196.436 1078.69 Q194.584 1079.1 192.639 1079.98 L192.639 1062.62 Z" fill="#000000" fill-rule="evenodd" fill-opacity="1" /><path clip-path="url(#clip330)" d="M126.205 759.153 Q122.593 759.153 120.765 762.717 Q118.959 766.259 118.959 773.389 Q118.959 780.495 120.765 784.06 Q122.593 787.601 126.205 787.601 Q129.839 787.601 131.644 784.06 Q133.473 780.495 133.473 773.389 Q133.473 766.259 131.644 762.717 Q129.839 759.153 126.205 759.153 M126.205 755.449 Q132.015 755.449 135.07 760.055 Q138.149 764.639 138.149 773.389 Q138.149 782.115 135.07 786.722 Q132.015 791.305 126.205 791.305 Q120.394 791.305 117.316 786.722 Q114.26 782.115 114.26 773.389 Q114.26 764.639 117.316 760.055 Q120.394 755.449 126.205 755.449 Z" fill="#000000" fill-rule="evenodd" fill-opacity="1" /><path clip-path="url(#clip330)" d="M146.366 784.754 L151.251 784.754 L151.251 790.634 L146.366 790.634 L146.366 784.754 Z" fill="#000000" fill-rule="evenodd" fill-opacity="1" /><path clip-path="url(#clip330)" d="M161.482 756.074 L179.839 756.074 L179.839 760.009 L165.765 760.009 L165.765 768.481 Q166.783 768.134 167.802 767.972 Q168.82 767.787 169.839 767.787 Q175.626 767.787 179.005 770.958 Q182.385 774.129 182.385 779.546 Q182.385 785.125 178.913 788.226 Q175.44 791.305 169.121 791.305 Q166.945 791.305 164.677 790.935 Q162.431 790.564 160.024 789.824 L160.024 785.125 Q162.107 786.259 164.329 786.814 Q166.552 787.37 169.028 787.37 Q173.033 787.37 175.371 785.263 Q177.709 783.157 177.709 779.546 Q177.709 775.935 175.371 773.828 Q173.033 771.722 169.028 771.722 Q167.153 771.722 165.278 772.139 Q163.427 772.555 161.482 773.435 L161.482 756.074 Z" fill="#000000" fill-rule="evenodd" fill-opacity="1" /><path clip-path="url(#clip330)" d="M201.598 759.153 Q197.987 759.153 196.158 762.717 Q194.352 766.259 194.352 773.389 Q194.352 780.495 196.158 784.06 Q197.987 787.601 201.598 787.601 Q205.232 787.601 207.037 784.06 Q208.866 780.495 208.866 773.389 Q208.866 766.259 207.037 762.717 Q205.232 759.153 201.598 759.153 M201.598 755.449 Q207.408 755.449 210.463 760.055 Q213.542 764.639 213.542 773.389 Q213.542 782.115 210.463 786.722 Q207.408 791.305 201.598 791.305 Q195.787 791.305 192.709 786.722 Q189.653 782.115 189.653 773.389 Q189.653 764.639 192.709 760.055 Q195.787 755.449 201.598 755.449 Z" fill="#000000" fill-rule="evenodd" fill-opacity="1" /><path clip-path="url(#clip330)" d="M127.2 452.604 Q123.589 452.604 121.76 456.169 Q119.955 459.71 119.955 466.84 Q119.955 473.946 121.76 477.511 Q123.589 481.053 127.2 481.053 Q130.834 481.053 132.64 477.511 Q134.468 473.946 134.468 466.84 Q134.468 459.71 132.64 456.169 Q130.834 452.604 127.2 452.604 M127.2 448.9 Q133.01 448.9 136.066 453.507 Q139.144 458.09 139.144 466.84 Q139.144 475.567 136.066 480.173 Q133.01 484.756 127.2 484.756 Q121.39 484.756 118.311 480.173 Q115.256 475.567 115.256 466.84 Q115.256 458.09 118.311 453.507 Q121.39 448.9 127.2 448.9 Z" fill="#000000" fill-rule="evenodd" fill-opacity="1" /><path clip-path="url(#clip330)" d="M147.362 478.205 L152.246 478.205 L152.246 484.085 L147.362 484.085 L147.362 478.205 Z" fill="#000000" fill-rule="evenodd" fill-opacity="1" /><path clip-path="url(#clip330)" d="M161.251 449.525 L183.473 449.525 L183.473 451.516 L170.927 484.085 L166.042 484.085 L177.848 453.46 L161.251 453.46 L161.251 449.525 Z" fill="#000000" fill-rule="evenodd" fill-opacity="1" /><path clip-path="url(#clip330)" d="M192.639 449.525 L210.996 449.525 L210.996 453.46 L196.922 453.46 L196.922 461.932 Q197.94 461.585 198.959 461.423 Q199.977 461.238 200.996 461.238 Q206.783 461.238 210.162 464.409 Q213.542 467.581 213.542 472.997 Q213.542 478.576 210.07 481.678 Q206.598 484.756 200.278 484.756 Q198.102 484.756 195.834 484.386 Q193.588 484.016 191.181 483.275 L191.181 478.576 Q193.264 479.71 195.487 480.266 Q197.709 480.821 200.186 480.821 Q204.19 480.821 206.528 478.715 Q208.866 476.608 208.866 472.997 Q208.866 469.386 206.528 467.28 Q204.19 465.173 200.186 465.173 Q198.311 465.173 196.436 465.59 Q194.584 466.006 192.639 466.886 L192.639 449.525 Z" fill="#000000" fill-rule="evenodd" fill-opacity="1" /><path clip-path="url(#clip330)" d="M117.015 173.601 L124.654 173.601 L124.654 147.236 L116.343 148.902 L116.343 144.643 L124.607 142.976 L129.283 142.976 L129.283 173.601 L136.922 173.601 L136.922 177.536 L117.015 177.536 L117.015 173.601 Z" fill="#000000" fill-rule="evenodd" fill-opacity="1" /><path clip-path="url(#clip330)" d="M146.366 171.657 L151.251 171.657 L151.251 177.536 L146.366 177.536 L146.366 171.657 Z" fill="#000000" fill-rule="evenodd" fill-opacity="1" /><path clip-path="url(#clip330)" d="M171.436 146.055 Q167.825 146.055 165.996 149.62 Q164.19 153.161 164.19 160.291 Q164.19 167.397 165.996 170.962 Q167.825 174.504 171.436 174.504 Q175.07 174.504 176.876 170.962 Q178.704 167.397 178.704 160.291 Q178.704 153.161 176.876 149.62 Q175.07 146.055 171.436 146.055 M171.436 142.351 Q177.246 142.351 180.301 146.958 Q183.38 151.541 183.38 160.291 Q183.38 169.018 180.301 173.624 Q177.246 178.208 171.436 178.208 Q165.626 178.208 162.547 173.624 Q159.491 169.018 159.491 160.291 Q159.491 151.541 162.547 146.958 Q165.626 142.351 171.436 142.351 Z" fill="#000000" fill-rule="evenodd" fill-opacity="1" /><path clip-path="url(#clip330)" d="M201.598 146.055 Q197.987 146.055 196.158 149.62 Q194.352 153.161 194.352 160.291 Q194.352 167.397 196.158 170.962 Q197.987 174.504 201.598 174.504 Q205.232 174.504 207.037 170.962 Q208.866 167.397 208.866 160.291 Q208.866 153.161 207.037 149.62 Q205.232 146.055 201.598 146.055 M201.598 142.351 Q207.408 142.351 210.463 146.958 Q213.542 151.541 213.542 160.291 Q213.542 169.018 210.463 173.624 Q207.408 178.208 201.598 178.208 Q195.787 178.208 192.709 173.624 Q189.653 169.018 189.653 160.291 Q189.653 151.541 192.709 146.958 Q195.787 142.351 201.598 142.351 Z" fill="#000000" fill-rule="evenodd" fill-opacity="1" /><path clip-path="url(#clip330)" d="M16.4842 793.362 L16.4842 786.455 L36.0269 773.278 L16.4842 760.197 L16.4842 753.29 L41.3741 770.095 L64.0042 770.095 L64.0042 776.557 L41.3741 776.557 L16.4842 793.362 Z" fill="#000000" fill-rule="evenodd" fill-opacity="1" /><path clip-path="url(#clip330)" d="M1064.88 12.096 L1099.64 12.096 L1099.64 18.9825 L1073.06 18.9825 L1073.06 36.8065 L1097.04 36.8065 L1097.04 43.6931 L1073.06 43.6931 L1073.06 72.576 L1064.88 72.576 L1064.88 12.096 Z" fill="#000000" fill-rule="evenodd" fill-opacity="1" /><path clip-path="url(#clip330)" d="M1130.18 9.62495 Q1124.75 18.942 1122.12 28.0566 Q1119.49 37.1711 1119.49 46.5287 Q1119.49 55.8863 1122.12 65.0818 Q1124.79 74.2369 1130.18 83.5134 L1123.7 83.5134 Q1117.62 73.9938 1114.58 64.7983 Q1111.59 55.6027 1111.59 46.5287 Q1111.59 37.4952 1114.58 28.3401 Q1117.58 19.1851 1123.7 9.62495 L1130.18 9.62495 Z" fill="#000000" fill-rule="evenodd" fill-opacity="1" /><path clip-path="url(#clip330)" d="M1182.36 27.2059 L1165.95 49.2833 L1183.21 72.576 L1174.42 72.576 L1161.21 54.752 L1148 72.576 L1139.21 72.576 L1156.84 48.8377 L1140.71 27.2059 L1149.5 27.2059 L1161.53 43.369 L1173.57 27.2059 L1182.36 27.2059 Z" fill="#000000" fill-rule="evenodd" fill-opacity="1" /><path clip-path="url(#clip330)" d="M1192.56 9.62495 L1199.05 9.62495 Q1205.12 19.1851 1208.12 28.3401 Q1211.16 37.4952 1211.16 46.5287 Q1211.16 55.6027 1208.12 64.7983 Q1205.12 73.9938 1199.05 83.5134 L1192.56 83.5134 Q1197.95 74.2369 1200.59 65.0818 Q1203.26 55.8863 1203.26 46.5287 Q1203.26 37.1711 1200.59 28.0566 Q1197.95 18.942 1192.56 9.62495 Z" fill="#000000" fill-rule="evenodd" fill-opacity="1" /><path clip-path="url(#clip330)" d="M1253.45 34.9026 L1305.38 34.9026 L1305.38 41.7081 L1253.45 41.7081 L1253.45 34.9026 M1253.45 51.4303 L1305.38 51.4303 L1305.38 58.3168 L1253.45 58.3168 L1253.45 51.4303 Z" fill="#000000" fill-rule="evenodd" fill-opacity="1" /><path clip-path="url(#clip330)" d="M1387.17 48.0275 L1387.17 51.6733 L1352.9 51.6733 Q1353.39 59.3701 1357.52 63.421 Q1361.69 67.4314 1369.1 67.4314 Q1373.4 67.4314 1377.41 66.3781 Q1381.46 65.3249 1385.43 63.2184 L1385.43 70.267 Q1381.42 71.9684 1377.2 72.8596 Q1372.99 73.7508 1368.66 73.7508 Q1357.8 73.7508 1351.44 67.4314 Q1345.12 61.1119 1345.12 50.3365 Q1345.12 39.1965 1351.12 32.6746 Q1357.15 26.1121 1367.36 26.1121 Q1376.52 26.1121 1381.82 32.0264 Q1387.17 37.9003 1387.17 48.0275 M1379.72 45.84 Q1379.64 39.7232 1376.27 36.0774 Q1372.95 32.4315 1367.44 32.4315 Q1361.2 32.4315 1357.44 35.9558 Q1353.71 39.4801 1353.14 45.8805 L1379.72 45.84 Z" fill="#000000" fill-rule="evenodd" fill-opacity="1" /><path clip-path="url(#clip330)" d="M1430.31 12.096 L1452.31 34.6595 L1444.17 34.6595 L1426.34 18.6585 L1408.52 34.6595 L1400.38 34.6595 L1422.37 12.096 L1430.31 12.096 Z" fill="#000000" fill-rule="evenodd" fill-opacity="1" /><path clip-path="url(#clip330)" d="M1465.15 46.5287 L1486.98 46.5287 L1486.98 53.1722 L1465.15 53.1722 L1465.15 46.5287 Z" fill="#000000" fill-rule="evenodd" fill-opacity="1" /><path clip-path="url(#clip330)" d="M1536.57 27.2059 L1520.16 49.2833 L1537.42 72.576 L1528.63 72.576 L1515.42 54.752 L1502.22 72.576 L1493.43 72.576 L1511.05 48.8377 L1494.92 27.2059 L1503.71 27.2059 L1515.75 43.369 L1527.78 27.2059 L1536.57 27.2059 Z" fill="#000000" fill-rule="evenodd" fill-opacity="1" /><polyline clip-path="url(#clip332)" style="stroke:#009af9; stroke-linecap:butt; stroke-linejoin:round; stroke-width:4; stroke-opacity:1; fill:none" points="
  309.067,160.256 312.296,180.053 315.526,199.53 318.755,218.692 321.985,237.545 329.45,279.969 336.916,320.827 344.381,360.175 351.846,398.071 359.312,434.568 
  366.777,469.717 374.242,503.568 381.708,536.169 389.173,567.566 396.638,597.804 404.104,626.925 411.569,654.971 419.034,681.981 426.5,707.994 433.965,733.047 
  441.43,757.174 450.403,784.997 459.376,811.59 468.349,837.007 477.321,861.301 486.294,884.52 495.267,906.713 504.239,927.924 513.212,948.197 528.385,980.461 
  543.557,1010.35 558.73,1038.04 573.903,1063.69 590.384,1089.41 606.866,1113.09 623.348,1134.88 639.83,1154.93 655.024,1172 670.219,1187.81 685.414,1202.45 
  700.609,1216.02 716.899,1229.45 733.189,1241.83 749.48,1253.23 765.77,1263.73 784.644,1274.86 803.518,1284.99 822.392,1294.2 841.266,1302.57 874.812,1315.62 
  908.357,1326.63 937.774,1334.88 967.191,1341.98 999.263,1348.62 1031.34,1354.27 1063.6,1359.1 1095.86,1363.2 1167.2,1370.22 1235.08,1374.92 1305.66,1378.37 
  1365.07,1380.46 1437.61,1382.3 1504.05,1383.48 1565.42,1384.27 1627.59,1384.86 1697.26,1385.33 1760.39,1385.63 1832.67,1385.88 1899.6,1386.05 1965.58,1386.16 
  2029.64,1386.24 2095.31,1386.3 2167.27,1386.35 2271.79,1386.39 2293.23,1386.4 
  "/>
<path clip-path="url(#clip330)" d="
M1939.07 270.476 L2282.65 270.476 L2282.65 166.796 L1939.07 166.796  Z
  " fill="#ffffff" fill-rule="evenodd" fill-opacity="1"/>
<polyline clip-path="url(#clip330)" style="stroke:#000000; stroke-linecap:butt; stroke-linejoin:round; stroke-width:4; stroke-opacity:1; fill:none" points="
  1939.07,270.476 2282.65,270.476 2282.65,166.796 1939.07,166.796 1939.07,270.476 
  "/>
<polyline clip-path="url(#clip330)" style="stroke:#009af9; stroke-linecap:butt; stroke-linejoin:round; stroke-width:4; stroke-opacity:1; fill:none" points="
  1962.44,218.636 2102.66,218.636 
  "/>
<path clip-path="url(#clip330)" d="M2150.05 221.888 L2150.05 223.971 L2130.47 223.971 Q2130.75 228.369 2133.11 230.684 Q2135.49 232.976 2139.73 232.976 Q2142.18 232.976 2144.48 232.374 Q2146.79 231.772 2149.06 230.569 L2149.06 234.596 Q2146.77 235.568 2144.36 236.078 Q2141.95 236.587 2139.48 236.587 Q2133.27 236.587 2129.64 232.976 Q2126.03 229.365 2126.03 223.207 Q2126.03 216.842 2129.45 213.115 Q2132.9 209.365 2138.74 209.365 Q2143.97 209.365 2147 212.745 Q2150.05 216.101 2150.05 221.888 M2145.8 220.638 Q2145.75 217.143 2143.83 215.059 Q2141.93 212.976 2138.78 212.976 Q2135.22 212.976 2133.06 214.99 Q2130.93 217.004 2130.61 220.661 L2145.8 220.638 Z" fill="#000000" fill-rule="evenodd" fill-opacity="1" /><path clip-path="url(#clip330)" d="M2174.71 201.356 L2187.28 214.249 L2182.62 214.249 L2172.44 205.106 L2162.25 214.249 L2157.6 214.249 L2170.17 201.356 L2174.71 201.356 Z" fill="#000000" fill-rule="evenodd" fill-opacity="1" /><path clip-path="url(#clip330)" d="M2194.61 221.032 L2207.09 221.032 L2207.09 224.828 L2194.61 224.828 L2194.61 221.032 Z" fill="#000000" fill-rule="evenodd" fill-opacity="1" /><path clip-path="url(#clip330)" d="M2235.42 209.99 L2226.05 222.606 L2235.91 235.916 L2230.89 235.916 L2223.34 225.731 L2215.8 235.916 L2210.77 235.916 L2220.84 222.351 L2211.63 209.99 L2216.65 209.99 L2223.53 219.226 L2230.4 209.99 L2235.42 209.99 Z" fill="#000000" fill-rule="evenodd" fill-opacity="1" /></svg>
