<?xml version="1.0" encoding="utf-8"?>
<svg xmlns="http://www.w3.org/2000/svg" xmlns:xlink="http://www.w3.org/1999/xlink" width="600" height="400" viewBox="0 0 2400 1600">
<defs>
  <clipPath id="clip250">
    <rect x="0" y="0" width="2400" height="1600"/>
  </clipPath>
</defs>
<path clip-path="url(#clip250)" d="
M0 1600 L2400 1600 L2400 0 L0 0  Z
  " fill="#ffffff" fill-rule="evenodd" fill-opacity="1"/>
<defs>
  <clipPath id="clip251">
    <rect x="480" y="0" width="1681" height="1600"/>
  </clipPath>
</defs>
<path clip-path="url(#clip250)" d="
M219.542 1423.18 L2352.76 1423.18 L2352.76 123.472 L219.542 123.472  Z
  " fill="#ffffff" fill-rule="evenodd" fill-opacity="1"/>
<defs>
  <clipPath id="clip252">
    <rect x="219" y="123" width="2134" height="1301"/>
  </clipPath>
</defs>
<polyline clip-path="url(#clip252)" style="stroke:#000000; stroke-linecap:butt; stroke-linejoin:round; stroke-width:2; stroke-opacity:0.1; fill:none" points="
  503.523,1423.18 503.523,123.472 
  "/>
<polyline clip-path="url(#clip252)" style="stroke:#000000; stroke-linecap:butt; stroke-linejoin:round; stroke-width:2; stroke-opacity:0.1; fill:none" points="
  950.738,1423.18 950.738,123.472 
  "/>
<polyline clip-path="url(#clip252)" style="stroke:#000000; stroke-linecap:butt; stroke-linejoin:round; stroke-width:2; stroke-opacity:0.1; fill:none" points="
  1397.95,1423.18 1397.95,123.472 
  "/>
<polyline clip-path="url(#clip252)" style="stroke:#000000; stroke-linecap:butt; stroke-linejoin:round; stroke-width:2; stroke-opacity:0.1; fill:none" points="
  1845.17,1423.18 1845.17,123.472 
  "/>
<polyline clip-path="url(#clip252)" style="stroke:#000000; stroke-linecap:butt; stroke-linejoin:round; stroke-width:2; stroke-opacity:0.1; fill:none" points="
  2292.38,1423.18 2292.38,123.472 
  "/>
<polyline clip-path="url(#clip250)" style="stroke:#000000; stroke-linecap:butt; stroke-linejoin:round; stroke-width:4; stroke-opacity:1; fill:none" points="
  219.542,1423.18 2352.76,1423.18 
  "/>
<polyline clip-path="url(#clip250)" style="stroke:#000000; stroke-linecap:butt; stroke-linejoin:round; stroke-width:4; stroke-opacity:1; fill:none" points="
  503.523,1423.18 503.523,1404.28 
  "/>
<polyline clip-path="url(#clip250)" style="stroke:#000000; stroke-linecap:butt; stroke-linejoin:round; stroke-width:4; stroke-opacity:1; fill:none" points="
  950.738,1423.18 950.738,1404.28 
  "/>
<polyline clip-path="url(#clip250)" style="stroke:#000000; stroke-linecap:butt; stroke-linejoin:round; stroke-width:4; stroke-opacity:1; fill:none" points="
  1397.95,1423.18 1397.95,1404.28 
  "/>
<polyline clip-path="url(#clip250)" style="stroke:#000000; stroke-linecap:butt; stroke-linejoin:round; stroke-width:4; stroke-opacity:1; fill:none" points="
  1845.17,1423.18 1845.17,1404.28 
  "/>
<polyline clip-path="url(#clip250)" style="stroke:#000000; stroke-linecap:butt; stroke-linejoin:round; stroke-width:4; stroke-opacity:1; fill:none" points="
  2292.38,1423.18 2292.38,1404.28 
  "/>
<path clip-path="url(#clip250)" d="M498.176 1481.64 L514.496 1481.64 L514.496 1485.58 L492.551 1485.58 L492.551 1481.64 Q495.213 1478.89 499.797 1474.26 Q504.403 1469.61 505.584 1468.27 Q507.829 1465.74 508.709 1464.01 Q509.611 1462.25 509.611 1460.56 Q509.611 1457.8 507.667 1456.07 Q505.746 1454.33 502.644 1454.33 Q500.445 1454.33 497.991 1455.09 Q495.561 1455.86 492.783 1457.41 L492.783 1452.69 Q495.607 1451.55 498.061 1450.97 Q500.514 1450.39 502.551 1450.39 Q507.922 1450.39 511.116 1453.08 Q514.31 1455.77 514.31 1460.26 Q514.31 1462.39 513.5 1464.31 Q512.713 1466.2 510.607 1468.8 Q510.028 1469.47 506.926 1472.69 Q503.824 1475.88 498.176 1481.64 Z" fill="#000000" fill-rule="evenodd" fill-opacity="1" /><path clip-path="url(#clip250)" d="M953.747 1455.09 L941.942 1473.54 L953.747 1473.54 L953.747 1455.09 M952.52 1451.02 L958.4 1451.02 L958.4 1473.54 L963.331 1473.54 L963.331 1477.43 L958.4 1477.43 L958.4 1485.58 L953.747 1485.58 L953.747 1477.43 L938.146 1477.43 L938.146 1472.92 L952.52 1451.02 Z" fill="#000000" fill-rule="evenodd" fill-opacity="1" /><path clip-path="url(#clip250)" d="M1398.36 1466.44 Q1395.21 1466.44 1393.36 1468.59 Q1391.53 1470.74 1391.53 1474.49 Q1391.53 1478.22 1393.36 1480.39 Q1395.21 1482.55 1398.36 1482.55 Q1401.51 1482.55 1403.33 1480.39 Q1405.19 1478.22 1405.19 1474.49 Q1405.19 1470.74 1403.33 1468.59 Q1401.51 1466.44 1398.36 1466.44 M1407.64 1451.78 L1407.64 1456.04 Q1405.88 1455.21 1404.08 1454.77 Q1402.29 1454.33 1400.53 1454.33 Q1395.9 1454.33 1393.45 1457.45 Q1391.02 1460.58 1390.67 1466.9 Q1392.04 1464.89 1394.1 1463.82 Q1396.16 1462.73 1398.64 1462.73 Q1403.84 1462.73 1406.85 1465.9 Q1409.89 1469.05 1409.89 1474.49 Q1409.89 1479.82 1406.74 1483.03 Q1403.59 1486.25 1398.36 1486.25 Q1392.36 1486.25 1389.19 1481.67 Q1386.02 1477.06 1386.02 1468.33 Q1386.02 1460.14 1389.91 1455.28 Q1393.8 1450.39 1400.35 1450.39 Q1402.11 1450.39 1403.89 1450.74 Q1405.7 1451.09 1407.64 1451.78 Z" fill="#000000" fill-rule="evenodd" fill-opacity="1" /><path clip-path="url(#clip250)" d="M1845.17 1469.17 Q1841.83 1469.17 1839.91 1470.95 Q1838.01 1472.73 1838.01 1475.86 Q1838.01 1478.98 1839.91 1480.77 Q1841.83 1482.55 1845.17 1482.55 Q1848.5 1482.55 1850.42 1480.77 Q1852.34 1478.96 1852.34 1475.86 Q1852.34 1472.73 1850.42 1470.95 Q1848.52 1469.17 1845.17 1469.17 M1840.49 1467.18 Q1837.48 1466.44 1835.79 1464.38 Q1834.13 1462.32 1834.13 1459.35 Q1834.13 1455.21 1837.07 1452.8 Q1840.03 1450.39 1845.17 1450.39 Q1850.33 1450.39 1853.27 1452.8 Q1856.21 1455.21 1856.21 1459.35 Q1856.21 1462.32 1854.52 1464.38 Q1852.85 1466.44 1849.87 1467.18 Q1853.25 1467.96 1855.12 1470.26 Q1857.02 1472.55 1857.02 1475.86 Q1857.02 1480.88 1853.94 1483.57 Q1850.88 1486.25 1845.17 1486.25 Q1839.45 1486.25 1836.37 1483.57 Q1833.32 1480.88 1833.32 1475.86 Q1833.32 1472.55 1835.21 1470.26 Q1837.11 1467.96 1840.49 1467.18 M1838.78 1459.79 Q1838.78 1462.48 1840.45 1463.98 Q1842.13 1465.49 1845.17 1465.49 Q1848.18 1465.49 1849.87 1463.98 Q1851.58 1462.48 1851.58 1459.79 Q1851.58 1457.11 1849.87 1455.6 Q1848.18 1454.1 1845.17 1454.1 Q1842.13 1454.1 1840.45 1455.6 Q1838.78 1457.11 1838.78 1459.79 Z" fill="#000000" fill-rule="evenodd" fill-opacity="1" /><path clip-path="url(#clip250)" d="M2267.07 1481.64 L2274.71 1481.64 L2274.71 1455.28 L2266.4 1456.95 L2266.4 1452.69 L2274.66 1451.02 L2279.34 1451.02 L2279.34 1481.64 L2286.98 1481.64 L2286.98 1485.58 L2267.07 1485.58 L2267.07 1481.64 Z" fill="#000000" fill-rule="evenodd" fill-opacity="1" /><path clip-path="url(#clip250)" d="M2306.42 1454.1 Q2302.81 1454.1 2300.98 1457.66 Q2299.18 1461.2 2299.18 1468.33 Q2299.18 1475.44 2300.98 1479.01 Q2302.81 1482.55 2306.42 1482.55 Q2310.06 1482.55 2311.86 1479.01 Q2313.69 1475.44 2313.69 1468.33 Q2313.69 1461.2 2311.86 1457.66 Q2310.06 1454.1 2306.42 1454.1 M2306.42 1450.39 Q2312.23 1450.39 2315.29 1455 Q2318.37 1459.58 2318.37 1468.33 Q2318.37 1477.06 2315.29 1481.67 Q2312.23 1486.25 2306.42 1486.25 Q2300.61 1486.25 2297.53 1481.67 Q2294.48 1477.06 2294.48 1468.33 Q2294.48 1459.58 2297.53 1455 Q2300.61 1450.39 2306.42 1450.39 Z" fill="#000000" fill-rule="evenodd" fill-opacity="1" /><path clip-path="url(#clip250)" d="M1154.46 1520.52 L1161.37 1520.52 L1173.17 1538.19 L1185.05 1520.52 L1191.95 1520.52 L1176.67 1543.34 L1192.97 1568.04 L1186.06 1568.04 L1172.7 1547.83 L1159.23 1568.04 L1152.29 1568.04 L1169.26 1542.68 L1154.46 1520.52 Z" fill="#000000" fill-rule="evenodd" fill-opacity="1" /><path clip-path="url(#clip250)" d="M1222.13 1520.52 L1228.56 1520.52 L1228.56 1562.63 L1251.69 1562.63 L1251.69 1568.04 L1222.13 1568.04 L1222.13 1520.52 Z" fill="#000000" fill-rule="evenodd" fill-opacity="1" /><path clip-path="url(#clip250)" d="M1275.82 1526.86 L1267.1 1550.51 L1284.57 1550.51 L1275.82 1526.86 M1272.19 1520.52 L1279.48 1520.52 L1297.59 1568.04 L1290.91 1568.04 L1286.58 1555.85 L1265.16 1555.85 L1260.83 1568.04 L1254.05 1568.04 L1272.19 1520.52 Z" fill="#000000" fill-rule="evenodd" fill-opacity="1" /><path clip-path="url(#clip250)" d="M1310.96 1545.35 L1310.96 1562.76 L1321.27 1562.76 Q1326.46 1562.76 1328.94 1560.63 Q1331.46 1558.46 1331.46 1554.04 Q1331.46 1549.58 1328.94 1547.48 Q1326.46 1545.35 1321.27 1545.35 L1310.96 1545.35 M1310.96 1525.81 L1310.96 1540.13 L1320.48 1540.13 Q1325.19 1540.13 1327.48 1538.38 Q1329.8 1536.6 1329.8 1532.97 Q1329.8 1529.37 1327.48 1527.59 Q1325.19 1525.81 1320.48 1525.81 L1310.96 1525.81 M1304.53 1520.52 L1320.95 1520.52 Q1328.31 1520.52 1332.28 1523.58 Q1336.26 1526.63 1336.26 1532.27 Q1336.26 1536.63 1334.23 1539.21 Q1332.19 1541.79 1328.24 1542.42 Q1332.98 1543.44 1335.59 1546.69 Q1338.24 1549.9 1338.24 1554.74 Q1338.24 1561.11 1333.91 1564.57 Q1329.58 1568.04 1321.59 1568.04 L1304.53 1568.04 L1304.53 1520.52 Z" fill="#000000" fill-rule="evenodd" fill-opacity="1" /><path clip-path="url(#clip250)" d="M1349.25 1520.52 L1379.3 1520.52 L1379.3 1525.93 L1355.68 1525.93 L1355.68 1540 L1378.31 1540 L1378.31 1545.41 L1355.68 1545.41 L1355.68 1562.63 L1379.87 1562.63 L1379.87 1568.04 L1349.25 1568.04 L1349.25 1520.52 Z" fill="#000000" fill-rule="evenodd" fill-opacity="1" /><path clip-path="url(#clip250)" d="M1390.44 1520.52 L1396.86 1520.52 L1396.86 1562.63 L1420 1562.63 L1420 1568.04 L1390.44 1568.04 L1390.44 1520.52 Z" fill="#000000" fill-rule="evenodd" fill-opacity="1" /><polyline clip-path="url(#clip252)" style="stroke:#000000; stroke-linecap:butt; stroke-linejoin:round; stroke-width:2; stroke-opacity:0.1; fill:none" points="
  219.542,1303.4 2352.76,1303.4 
  "/>
<polyline clip-path="url(#clip252)" style="stroke:#000000; stroke-linecap:butt; stroke-linejoin:round; stroke-width:2; stroke-opacity:0.1; fill:none" points="
  219.542,1054.14 2352.76,1054.14 
  "/>
<polyline clip-path="url(#clip252)" style="stroke:#000000; stroke-linecap:butt; stroke-linejoin:round; stroke-width:2; stroke-opacity:0.1; fill:none" points="
  219.542,804.889 2352.76,804.889 
  "/>
<polyline clip-path="url(#clip252)" style="stroke:#000000; stroke-linecap:butt; stroke-linejoin:round; stroke-width:2; stroke-opacity:0.1; fill:none" points="
  219.542,555.634 2352.76,555.634 
  "/>
<polyline clip-path="url(#clip252)" style="stroke:#000000; stroke-linecap:butt; stroke-linejoin:round; stroke-width:2; stroke-opacity:0.1; fill:none" points="
  219.542,306.379 2352.76,306.379 
  "/>
<polyline clip-path="url(#clip250)" style="stroke:#000000; stroke-linecap:butt; stroke-linejoin:round; stroke-width:4; stroke-opacity:1; fill:none" points="
  219.542,1423.18 219.542,123.472 
  "/>
<polyline clip-path="url(#clip250)" style="stroke:#000000; stroke-linecap:butt; stroke-linejoin:round; stroke-width:4; stroke-opacity:1; fill:none" points="
  219.542,1303.4 238.44,1303.4 
  "/>
<polyline clip-path="url(#clip250)" style="stroke:#000000; stroke-linecap:butt; stroke-linejoin:round; stroke-width:4; stroke-opacity:1; fill:none" points="
  219.542,1054.14 238.44,1054.14 
  "/>
<polyline clip-path="url(#clip250)" style="stroke:#000000; stroke-linecap:butt; stroke-linejoin:round; stroke-width:4; stroke-opacity:1; fill:none" points="
  219.542,804.889 238.44,804.889 
  "/>
<polyline clip-path="url(#clip250)" style="stroke:#000000; stroke-linecap:butt; stroke-linejoin:round; stroke-width:4; stroke-opacity:1; fill:none" points="
  219.542,555.634 238.44,555.634 
  "/>
<polyline clip-path="url(#clip250)" style="stroke:#000000; stroke-linecap:butt; stroke-linejoin:round; stroke-width:4; stroke-opacity:1; fill:none" points="
  219.542,306.379 238.44,306.379 
  "/>
<path clip-path="url(#clip250)" d="M127.362 1289.2 Q123.751 1289.2 121.922 1292.76 Q120.117 1296.3 120.117 1303.43 Q120.117 1310.54 121.922 1314.1 Q123.751 1317.65 127.362 1317.65 Q130.996 1317.65 132.802 1314.1 Q134.63 1310.54 134.63 1303.43 Q134.63 1296.3 132.802 1292.76 Q130.996 1289.2 127.362 1289.2 M127.362 1285.49 Q133.172 1285.49 136.228 1290.1 Q139.306 1294.68 139.306 1303.43 Q139.306 1312.16 136.228 1316.77 Q133.172 1321.35 127.362 1321.35 Q121.552 1321.35 118.473 1316.77 Q115.418 1312.16 115.418 1303.43 Q115.418 1294.68 118.473 1290.1 Q121.552 1285.49 127.362 1285.49 Z" fill="#000000" fill-rule="evenodd" fill-opacity="1" /><path clip-path="url(#clip250)" d="M147.524 1314.8 L152.408 1314.8 L152.408 1320.68 L147.524 1320.68 L147.524 1314.8 Z" fill="#000000" fill-rule="evenodd" fill-opacity="1" /><path clip-path="url(#clip250)" d="M162.64 1286.12 L180.996 1286.12 L180.996 1290.05 L166.922 1290.05 L166.922 1298.53 Q167.94 1298.18 168.959 1298.02 Q169.977 1297.83 170.996 1297.83 Q176.783 1297.83 180.163 1301 Q183.542 1304.17 183.542 1309.59 Q183.542 1315.17 180.07 1318.27 Q176.598 1321.35 170.278 1321.35 Q168.102 1321.35 165.834 1320.98 Q163.589 1320.61 161.181 1319.87 L161.181 1315.17 Q163.265 1316.3 165.487 1316.86 Q167.709 1317.41 170.186 1317.41 Q174.19 1317.41 176.528 1315.31 Q178.866 1313.2 178.866 1309.59 Q178.866 1305.98 176.528 1303.87 Q174.19 1301.77 170.186 1301.77 Q168.311 1301.77 166.436 1302.18 Q164.584 1302.6 162.64 1303.48 L162.64 1286.12 Z" fill="#000000" fill-rule="evenodd" fill-opacity="1" /><path clip-path="url(#clip250)" d="M126.205 1039.94 Q122.593 1039.94 120.765 1043.51 Q118.959 1047.05 118.959 1054.18 Q118.959 1061.28 120.765 1064.85 Q122.593 1068.39 126.205 1068.39 Q129.839 1068.39 131.644 1064.85 Q133.473 1061.28 133.473 1054.18 Q133.473 1047.05 131.644 1043.51 Q129.839 1039.94 126.205 1039.94 M126.205 1036.24 Q132.015 1036.24 135.07 1040.85 Q138.149 1045.43 138.149 1054.18 Q138.149 1062.91 135.07 1067.51 Q132.015 1072.1 126.205 1072.1 Q120.394 1072.1 117.316 1067.51 Q114.26 1062.91 114.26 1054.18 Q114.26 1045.43 117.316 1040.85 Q120.394 1036.24 126.205 1036.24 Z" fill="#000000" fill-rule="evenodd" fill-opacity="1" /><path clip-path="url(#clip250)" d="M146.366 1065.54 L151.251 1065.54 L151.251 1071.42 L146.366 1071.42 L146.366 1065.54 Z" fill="#000000" fill-rule="evenodd" fill-opacity="1" /><path clip-path="url(#clip250)" d="M172.014 1052.28 Q168.866 1052.28 167.015 1054.43 Q165.186 1056.59 165.186 1060.34 Q165.186 1064.06 167.015 1066.24 Q168.866 1068.39 172.014 1068.39 Q175.163 1068.39 176.991 1066.24 Q178.843 1064.06 178.843 1060.34 Q178.843 1056.59 176.991 1054.43 Q175.163 1052.28 172.014 1052.28 M181.297 1037.63 L181.297 1041.89 Q179.538 1041.05 177.732 1040.61 Q175.95 1040.17 174.19 1040.17 Q169.561 1040.17 167.107 1043.3 Q164.677 1046.42 164.329 1052.74 Q165.695 1050.73 167.755 1049.66 Q169.815 1048.58 172.292 1048.58 Q177.501 1048.58 180.51 1051.75 Q183.542 1054.9 183.542 1060.34 Q183.542 1065.66 180.394 1068.88 Q177.246 1072.1 172.014 1072.1 Q166.019 1072.1 162.848 1067.51 Q159.677 1062.91 159.677 1054.18 Q159.677 1045.98 163.565 1041.12 Q167.454 1036.24 174.005 1036.24 Q175.764 1036.24 177.547 1036.59 Q179.352 1036.93 181.297 1037.63 Z" fill="#000000" fill-rule="evenodd" fill-opacity="1" /><path clip-path="url(#clip250)" d="M127.269 790.687 Q123.658 790.687 121.83 794.252 Q120.024 797.794 120.024 804.924 Q120.024 812.03 121.83 815.595 Q123.658 819.136 127.269 819.136 Q130.904 819.136 132.709 815.595 Q134.538 812.03 134.538 804.924 Q134.538 797.794 132.709 794.252 Q130.904 790.687 127.269 790.687 M127.269 786.984 Q133.08 786.984 136.135 791.59 Q139.214 796.174 139.214 804.924 Q139.214 813.65 136.135 818.257 Q133.08 822.84 127.269 822.84 Q121.459 822.84 118.381 818.257 Q115.325 813.65 115.325 804.924 Q115.325 796.174 118.381 791.59 Q121.459 786.984 127.269 786.984 Z" fill="#000000" fill-rule="evenodd" fill-opacity="1" /><path clip-path="url(#clip250)" d="M147.431 816.289 L152.316 816.289 L152.316 822.169 L147.431 822.169 L147.431 816.289 Z" fill="#000000" fill-rule="evenodd" fill-opacity="1" /><path clip-path="url(#clip250)" d="M161.32 787.609 L183.542 787.609 L183.542 789.6 L170.996 822.169 L166.112 822.169 L177.917 791.544 L161.32 791.544 L161.32 787.609 Z" fill="#000000" fill-rule="evenodd" fill-opacity="1" /><path clip-path="url(#clip250)" d="M126.459 541.433 Q122.848 541.433 121.019 544.997 Q119.214 548.539 119.214 555.669 Q119.214 562.775 121.019 566.34 Q122.848 569.881 126.459 569.881 Q130.093 569.881 131.899 566.34 Q133.728 562.775 133.728 555.669 Q133.728 548.539 131.899 544.997 Q130.093 541.433 126.459 541.433 M126.459 537.729 Q132.269 537.729 135.325 542.335 Q138.404 546.919 138.404 555.669 Q138.404 564.395 135.325 569.002 Q132.269 573.585 126.459 573.585 Q120.649 573.585 117.57 569.002 Q114.515 564.395 114.515 555.669 Q114.515 546.919 117.57 542.335 Q120.649 537.729 126.459 537.729 Z" fill="#000000" fill-rule="evenodd" fill-opacity="1" /><path clip-path="url(#clip250)" d="M146.621 567.034 L151.505 567.034 L151.505 572.914 L146.621 572.914 L146.621 567.034 Z" fill="#000000" fill-rule="evenodd" fill-opacity="1" /><path clip-path="url(#clip250)" d="M171.69 556.502 Q168.357 556.502 166.436 558.284 Q164.538 560.067 164.538 563.192 Q164.538 566.317 166.436 568.099 Q168.357 569.881 171.69 569.881 Q175.024 569.881 176.945 568.099 Q178.866 566.294 178.866 563.192 Q178.866 560.067 176.945 558.284 Q175.047 556.502 171.69 556.502 M167.015 554.511 Q164.005 553.77 162.315 551.71 Q160.649 549.65 160.649 546.687 Q160.649 542.544 163.589 540.136 Q166.552 537.729 171.69 537.729 Q176.852 537.729 179.792 540.136 Q182.732 542.544 182.732 546.687 Q182.732 549.65 181.042 551.71 Q179.376 553.77 176.389 554.511 Q179.769 555.298 181.644 557.59 Q183.542 559.882 183.542 563.192 Q183.542 568.215 180.464 570.9 Q177.408 573.585 171.69 573.585 Q165.973 573.585 162.894 570.9 Q159.839 568.215 159.839 563.192 Q159.839 559.882 161.737 557.59 Q163.635 555.298 167.015 554.511 M165.302 547.127 Q165.302 549.812 166.968 551.317 Q168.658 552.821 171.69 552.821 Q174.7 552.821 176.389 551.317 Q178.102 549.812 178.102 547.127 Q178.102 544.442 176.389 542.937 Q174.7 541.433 171.69 541.433 Q168.658 541.433 166.968 542.937 Q165.302 544.442 165.302 547.127 Z" fill="#000000" fill-rule="evenodd" fill-opacity="1" /><path clip-path="url(#clip250)" d="M126.552 292.178 Q122.941 292.178 121.112 295.742 Q119.306 299.284 119.306 306.414 Q119.306 313.52 121.112 317.085 Q122.941 320.627 126.552 320.627 Q130.186 320.627 131.992 317.085 Q133.82 313.52 133.82 306.414 Q133.82 299.284 131.992 295.742 Q130.186 292.178 126.552 292.178 M126.552 288.474 Q132.362 288.474 135.417 293.08 Q138.496 297.664 138.496 306.414 Q138.496 315.14 135.417 319.747 Q132.362 324.33 126.552 324.33 Q120.742 324.33 117.663 319.747 Q114.607 315.14 114.607 306.414 Q114.607 297.664 117.663 293.08 Q120.742 288.474 126.552 288.474 Z" fill="#000000" fill-rule="evenodd" fill-opacity="1" /><path clip-path="url(#clip250)" d="M146.714 317.779 L151.598 317.779 L151.598 323.659 L146.714 323.659 L146.714 317.779 Z" fill="#000000" fill-rule="evenodd" fill-opacity="1" /><path clip-path="url(#clip250)" d="M161.922 322.941 L161.922 318.682 Q163.681 319.515 165.487 319.955 Q167.292 320.395 169.028 320.395 Q173.658 320.395 176.089 317.293 Q178.542 314.168 178.889 307.826 Q177.547 309.816 175.487 310.881 Q173.427 311.946 170.927 311.946 Q165.741 311.946 162.709 308.821 Q159.7 305.673 159.7 300.233 Q159.7 294.909 162.848 291.692 Q165.996 288.474 171.227 288.474 Q177.223 288.474 180.371 293.08 Q183.542 297.664 183.542 306.414 Q183.542 314.585 179.653 319.469 Q175.788 324.33 169.237 324.33 Q167.477 324.33 165.672 323.983 Q163.866 323.636 161.922 322.941 M171.227 308.289 Q174.376 308.289 176.204 306.136 Q178.056 303.983 178.056 300.233 Q178.056 296.506 176.204 294.354 Q174.376 292.178 171.227 292.178 Q168.079 292.178 166.227 294.354 Q164.399 296.506 164.399 300.233 Q164.399 303.983 166.227 306.136 Q168.079 308.289 171.227 308.289 Z" fill="#000000" fill-rule="evenodd" fill-opacity="1" /><path clip-path="url(#clip250)" d="M16.4842 905.796 L16.4842 898.89 L36.0269 885.713 L16.4842 872.631 L16.4842 865.724 L41.3741 882.53 L64.0042 882.53 L64.0042 888.991 L41.3741 888.991 L16.4842 905.796 Z" fill="#000000" fill-rule="evenodd" fill-opacity="1" /><path clip-path="url(#clip250)" d="M16.4842 838.734 L16.4842 832.304 L58.5933 832.304 L58.5933 809.165 L64.0042 809.165 L64.0042 838.734 L16.4842 838.734 Z" fill="#000000" fill-rule="evenodd" fill-opacity="1" /><path clip-path="url(#clip250)" d="M22.818 785.039 L46.4666 793.76 L46.4666 776.286 L22.818 785.039 M16.4842 788.667 L16.4842 781.379 L64.0042 763.268 L64.0042 769.952 L51.8138 774.281 L51.8138 795.701 L64.0042 800.03 L64.0042 806.81 L16.4842 788.667 Z" fill="#000000" fill-rule="evenodd" fill-opacity="1" /><path clip-path="url(#clip250)" d="M41.3104 749.9 L58.7206 749.9 L58.7206 739.588 Q58.7206 734.4 56.5881 731.917 Q54.4238 729.403 49.9996 729.403 Q45.5436 729.403 43.4429 731.917 Q41.3104 734.4 41.3104 739.588 L41.3104 749.9 M21.7677 749.9 L36.0905 749.9 L36.0905 740.383 Q36.0905 735.673 34.34 733.381 Q32.5576 731.058 28.9291 731.058 Q25.3325 731.058 23.5501 733.381 Q21.7677 735.673 21.7677 740.383 L21.7677 749.9 M16.4842 756.33 L16.4842 739.906 Q16.4842 732.554 19.5397 728.575 Q22.5952 724.596 28.2289 724.596 Q32.5894 724.596 35.1675 726.634 Q37.7456 728.671 38.3822 732.617 Q39.4007 727.875 42.6472 725.265 Q45.8619 722.623 50.6998 722.623 Q57.0655 722.623 60.5348 726.952 Q64.0042 731.28 64.0042 739.269 L64.0042 756.33 L16.4842 756.33 Z" fill="#000000" fill-rule="evenodd" fill-opacity="1" /><path clip-path="url(#clip250)" d="M16.4842 711.61 L16.4842 681.564 L21.895 681.564 L21.895 705.181 L35.9632 705.181 L35.9632 682.551 L41.3741 682.551 L41.3741 705.181 L58.5933 705.181 L58.5933 680.991 L64.0042 680.991 L64.0042 711.61 L16.4842 711.61 Z" fill="#000000" fill-rule="evenodd" fill-opacity="1" /><path clip-path="url(#clip250)" d="M16.4842 670.424 L16.4842 663.995 L58.5933 663.995 L58.5933 640.856 L64.0042 640.856 L64.0042 670.424 L16.4842 670.424 Z" fill="#000000" fill-rule="evenodd" fill-opacity="1" /><path clip-path="url(#clip250)" d="M944.557 44.2197 Q947.19 45.1109 949.661 48.0275 Q952.172 50.9442 954.684 56.0483 L962.988 72.576 L954.198 72.576 L946.46 57.061 Q943.463 50.9847 940.627 48.9997 Q937.832 47.0148 932.971 47.0148 L924.059 47.0148 L924.059 72.576 L915.876 72.576 L915.876 12.096 L934.348 12.096 Q944.719 12.096 949.823 16.4305 Q954.927 20.7649 954.927 29.5149 Q954.927 35.2267 952.253 38.994 Q949.62 42.7613 944.557 44.2197 M924.059 18.8205 L924.059 40.2903 L934.348 40.2903 Q940.263 40.2903 943.26 37.5762 Q946.298 34.8216 946.298 29.5149 Q946.298 24.2082 943.26 21.5346 Q940.263 18.8205 934.348 18.8205 L924.059 18.8205 Z" fill="#000000" fill-rule="evenodd" fill-opacity="1" /><path clip-path="url(#clip250)" d="M991.993 49.7694 Q982.959 49.7694 979.475 51.8354 Q975.992 53.9013 975.992 58.8839 Q975.992 62.8538 978.584 65.2034 Q981.217 67.5124 985.714 67.5124 Q991.912 67.5124 995.638 63.1374 Q999.406 58.7219 999.406 51.4303 L999.406 49.7694 L991.993 49.7694 M1006.86 46.6907 L1006.86 72.576 L999.406 72.576 L999.406 65.6895 Q996.854 69.8214 993.046 71.8063 Q989.238 73.7508 983.729 73.7508 Q976.761 73.7508 972.629 69.8619 Q968.538 65.9325 968.538 59.3701 Q968.538 51.7138 973.642 47.825 Q978.787 43.9361 988.954 43.9361 L999.406 43.9361 L999.406 43.2069 Q999.406 38.0623 996.003 35.2672 Q992.641 32.4315 986.524 32.4315 Q982.635 32.4315 978.949 33.3632 Q975.262 34.295 971.86 36.1584 L971.86 29.2718 Q975.951 27.692 979.799 26.9223 Q983.648 26.1121 987.294 26.1121 Q997.137 26.1121 1002 31.2163 Q1006.86 36.3204 1006.86 46.6907 Z" fill="#000000" fill-rule="evenodd" fill-opacity="1" /><path clip-path="url(#clip250)" d="M1059.93 45.1919 L1059.93 72.576 L1052.47 72.576 L1052.47 45.4349 Q1052.47 38.994 1049.96 35.7938 Q1047.45 32.5936 1042.43 32.5936 Q1036.39 32.5936 1032.91 36.4419 Q1029.42 40.2903 1029.42 46.9338 L1029.42 72.576 L1021.93 72.576 L1021.93 27.2059 L1029.42 27.2059 L1029.42 34.2544 Q1032.1 30.163 1035.7 28.1376 Q1039.35 26.1121 1044.09 26.1121 Q1051.91 26.1121 1055.92 30.9732 Q1059.93 35.7938 1059.93 45.1919 Z" fill="#000000" fill-rule="evenodd" fill-opacity="1" /><path clip-path="url(#clip250)" d="M1104.65 34.0924 L1104.65 9.54393 L1112.1 9.54393 L1112.1 72.576 L1104.65 72.576 L1104.65 65.7705 Q1102.3 69.8214 1098.69 71.8063 Q1095.13 73.7508 1090.11 73.7508 Q1081.88 73.7508 1076.7 67.1883 Q1071.55 60.6258 1071.55 49.9314 Q1071.55 39.2371 1076.7 32.6746 Q1081.88 26.1121 1090.11 26.1121 Q1095.13 26.1121 1098.69 28.0971 Q1102.3 30.0415 1104.65 34.0924 M1079.25 49.9314 Q1079.25 58.1548 1082.61 62.8538 Q1086.01 67.5124 1091.93 67.5124 Q1097.84 67.5124 1101.25 62.8538 Q1104.65 58.1548 1104.65 49.9314 Q1104.65 41.7081 1101.25 37.0496 Q1097.84 32.3505 1091.93 32.3505 Q1086.01 32.3505 1082.61 37.0496 Q1079.25 41.7081 1079.25 49.9314 Z" fill="#000000" fill-rule="evenodd" fill-opacity="1" /><path clip-path="url(#clip250)" d="M1145.04 32.4315 Q1139.04 32.4315 1135.56 37.1306 Q1132.07 41.7891 1132.07 49.9314 Q1132.07 58.0738 1135.52 62.7728 Q1139 67.4314 1145.04 67.4314 Q1150.99 67.4314 1154.47 62.7323 Q1157.96 58.0333 1157.96 49.9314 Q1157.96 41.8701 1154.47 37.1711 Q1150.99 32.4315 1145.04 32.4315 M1145.04 26.1121 Q1154.76 26.1121 1160.31 32.4315 Q1165.86 38.7509 1165.86 49.9314 Q1165.86 61.0714 1160.31 67.4314 Q1154.76 73.7508 1145.04 73.7508 Q1135.27 73.7508 1129.72 67.4314 Q1124.21 61.0714 1124.21 49.9314 Q1124.21 38.7509 1129.72 32.4315 Q1135.27 26.1121 1145.04 26.1121 Z" fill="#000000" fill-rule="evenodd" fill-opacity="1" /><path clip-path="url(#clip250)" d="M1213.54 35.9153 Q1216.33 30.8922 1220.22 28.5022 Q1224.11 26.1121 1229.38 26.1121 Q1236.46 26.1121 1240.31 31.0947 Q1244.16 36.0368 1244.16 45.1919 L1244.16 72.576 L1236.67 72.576 L1236.67 45.4349 Q1236.67 38.913 1234.36 35.7533 Q1232.05 32.5936 1227.31 32.5936 Q1221.52 32.5936 1218.15 36.4419 Q1214.79 40.2903 1214.79 46.9338 L1214.79 72.576 L1207.3 72.576 L1207.3 45.4349 Q1207.3 38.8725 1204.99 35.7533 Q1202.68 32.5936 1197.86 32.5936 Q1192.15 32.5936 1188.79 36.4824 Q1185.42 40.3308 1185.42 46.9338 L1185.42 72.576 L1177.93 72.576 L1177.93 27.2059 L1185.42 27.2059 L1185.42 34.2544 Q1187.98 30.082 1191.54 28.0971 Q1195.1 26.1121 1200.01 26.1121 Q1204.95 26.1121 1208.39 28.6237 Q1211.88 31.1352 1213.54 35.9153 Z" fill="#000000" fill-rule="evenodd" fill-opacity="1" /><path clip-path="url(#clip250)" d="M1293.91 18.8205 L1293.91 65.8515 L1303.79 65.8515 Q1316.31 65.8515 1322.1 60.1802 Q1327.93 54.509 1327.93 42.2752 Q1327.93 30.1225 1322.1 24.4918 Q1316.31 18.8205 1303.79 18.8205 L1293.91 18.8205 M1285.72 12.096 L1302.53 12.096 Q1320.12 12.096 1328.34 19.4281 Q1336.56 26.7198 1336.56 42.2752 Q1336.56 57.9117 1328.3 65.2439 Q1320.03 72.576 1302.53 72.576 L1285.72 72.576 L1285.72 12.096 Z" fill="#000000" fill-rule="evenodd" fill-opacity="1" /><path clip-path="url(#clip250)" d="M1369.9 49.7694 Q1360.87 49.7694 1357.38 51.8354 Q1353.9 53.9013 1353.9 58.8839 Q1353.9 62.8538 1356.49 65.2034 Q1359.13 67.5124 1363.62 67.5124 Q1369.82 67.5124 1373.55 63.1374 Q1377.31 58.7219 1377.31 51.4303 L1377.31 49.7694 L1369.9 49.7694 M1384.77 46.6907 L1384.77 72.576 L1377.31 72.576 L1377.31 65.6895 Q1374.76 69.8214 1370.95 71.8063 Q1367.15 73.7508 1361.64 73.7508 Q1354.67 73.7508 1350.54 69.8619 Q1346.45 65.9325 1346.45 59.3701 Q1346.45 51.7138 1351.55 47.825 Q1356.7 43.9361 1366.86 43.9361 L1377.31 43.9361 L1377.31 43.2069 Q1377.31 38.0623 1373.91 35.2672 Q1370.55 32.4315 1364.43 32.4315 Q1360.54 32.4315 1356.86 33.3632 Q1353.17 34.295 1349.77 36.1584 L1349.77 29.2718 Q1353.86 27.692 1357.71 26.9223 Q1361.56 26.1121 1365.2 26.1121 Q1375.05 26.1121 1379.91 31.2163 Q1384.77 36.3204 1384.77 46.6907 Z" fill="#000000" fill-rule="evenodd" fill-opacity="1" /><path clip-path="url(#clip250)" d="M1407.49 14.324 L1407.49 27.2059 L1422.85 27.2059 L1422.85 32.9987 L1407.49 32.9987 L1407.49 57.6282 Q1407.49 63.1779 1408.99 64.7578 Q1410.53 66.3376 1415.19 66.3376 L1422.85 66.3376 L1422.85 72.576 L1415.19 72.576 Q1406.56 72.576 1403.28 69.3758 Q1400 66.1351 1400 57.6282 L1400 32.9987 L1394.53 32.9987 L1394.53 27.2059 L1400 27.2059 L1400 14.324 L1407.49 14.324 Z" fill="#000000" fill-rule="evenodd" fill-opacity="1" /><path clip-path="url(#clip250)" d="M1453.27 49.7694 Q1444.24 49.7694 1440.75 51.8354 Q1437.27 53.9013 1437.27 58.8839 Q1437.27 62.8538 1439.86 65.2034 Q1442.49 67.5124 1446.99 67.5124 Q1453.19 67.5124 1456.91 63.1374 Q1460.68 58.7219 1460.68 51.4303 L1460.68 49.7694 L1453.27 49.7694 M1468.14 46.6907 L1468.14 72.576 L1460.68 72.576 L1460.68 65.6895 Q1458.13 69.8214 1454.32 71.8063 Q1450.51 73.7508 1445.01 73.7508 Q1438.04 73.7508 1433.91 69.8619 Q1429.81 65.9325 1429.81 59.3701 Q1429.81 51.7138 1434.92 47.825 Q1440.06 43.9361 1450.23 43.9361 L1460.68 43.9361 L1460.68 43.2069 Q1460.68 38.0623 1457.28 35.2672 Q1453.92 32.4315 1447.8 32.4315 Q1443.91 32.4315 1440.23 33.3632 Q1436.54 34.295 1433.14 36.1584 L1433.14 29.2718 Q1437.23 27.692 1441.08 26.9223 Q1444.92 26.1121 1448.57 26.1121 Q1458.41 26.1121 1463.27 31.2163 Q1468.14 36.3204 1468.14 46.6907 Z" fill="#000000" fill-rule="evenodd" fill-opacity="1" /><path clip-path="url(#clip250)" d="M1518.37 18.8205 L1518.37 41.5461 L1528.66 41.5461 Q1534.37 41.5461 1537.49 38.5889 Q1540.61 35.6318 1540.61 30.163 Q1540.61 24.7348 1537.49 21.7777 Q1534.37 18.8205 1528.66 18.8205 L1518.37 18.8205 M1510.18 12.096 L1528.66 12.096 Q1538.82 12.096 1544.01 16.714 Q1549.24 21.2916 1549.24 30.163 Q1549.24 39.1155 1544.01 43.6931 Q1538.82 48.2706 1528.66 48.2706 L1518.37 48.2706 L1518.37 72.576 L1510.18 72.576 L1510.18 12.096 Z" fill="#000000" fill-rule="evenodd" fill-opacity="1" /><path clip-path="url(#clip250)" d="M1559.89 9.54393 L1567.34 9.54393 L1567.34 72.576 L1559.89 72.576 L1559.89 9.54393 Z" fill="#000000" fill-rule="evenodd" fill-opacity="1" /><path clip-path="url(#clip250)" d="M1600.52 32.4315 Q1594.52 32.4315 1591.04 37.1306 Q1587.56 41.7891 1587.56 49.9314 Q1587.56 58.0738 1591 62.7728 Q1594.48 67.4314 1600.52 67.4314 Q1606.47 67.4314 1609.96 62.7323 Q1613.44 58.0333 1613.44 49.9314 Q1613.44 41.8701 1609.96 37.1711 Q1606.47 32.4315 1600.52 32.4315 M1600.52 26.1121 Q1610.24 26.1121 1615.79 32.4315 Q1621.34 38.7509 1621.34 49.9314 Q1621.34 61.0714 1615.79 67.4314 Q1610.24 73.7508 1600.52 73.7508 Q1590.76 73.7508 1585.21 67.4314 Q1579.7 61.0714 1579.7 49.9314 Q1579.7 38.7509 1585.21 32.4315 Q1590.76 26.1121 1600.52 26.1121 Z" fill="#000000" fill-rule="evenodd" fill-opacity="1" /><path clip-path="url(#clip250)" d="M1641.07 14.324 L1641.07 27.2059 L1656.42 27.2059 L1656.42 32.9987 L1641.07 32.9987 L1641.07 57.6282 Q1641.07 63.1779 1642.57 64.7578 Q1644.11 66.3376 1648.77 66.3376 L1656.42 66.3376 L1656.42 72.576 L1648.77 72.576 Q1640.14 72.576 1636.86 69.3758 Q1633.57 66.1351 1633.57 57.6282 L1633.57 32.9987 L1628.11 32.9987 L1628.11 27.2059 L1633.57 27.2059 L1633.57 14.324 L1641.07 14.324 Z" fill="#000000" fill-rule="evenodd" fill-opacity="1" /><polyline clip-path="url(#clip252)" style="stroke:#009af9; stroke-linecap:butt; stroke-linejoin:round; stroke-width:4; stroke-opacity:1; fill:none" points="
  279.916,1345.19 503.523,538.62 727.131,638.44 950.738,1221.24 1174.35,173.415 1397.95,391.057 1621.56,1057.46 1845.17,1386.4 2068.77,662.724 2292.38,160.256 
  
  "/>
<path clip-path="url(#clip250)" d="
M1637.75 270.476 L2281.65 270.476 L2281.65 166.796 L1637.75 166.796  Z
  " fill="#ffffff" fill-rule="evenodd" fill-opacity="1"/>
<polyline clip-path="url(#clip250)" style="stroke:#000000; stroke-linecap:butt; stroke-linejoin:round; stroke-width:4; stroke-opacity:1; fill:none" points="
  1637.75,270.476 2281.65,270.476 2281.65,166.796 1637.75,166.796 1637.75,270.476 
  "/>
<polyline clip-path="url(#clip250)" style="stroke:#009af9; stroke-linecap:butt; stroke-linejoin:round; stroke-width:4; stroke-opacity:1; fill:none" points="
  1661.45,218.636 1803.67,218.636 
  "/>
<path clip-path="url(#clip250)" d="M1843.39 204.527 Q1838.3 204.527 1835.29 208.323 Q1832.3 212.12 1832.3 218.67 Q1832.3 225.198 1835.29 228.994 Q1838.3 232.791 1843.39 232.791 Q1848.48 232.791 1851.45 228.994 Q1854.43 225.198 1854.43 218.67 Q1854.43 212.12 1851.45 208.323 Q1848.48 204.527 1843.39 204.527 M1843.39 200.731 Q1850.66 200.731 1855.01 205.615 Q1859.36 210.476 1859.36 218.67 Q1859.36 226.842 1855.01 231.726 Q1850.66 236.587 1843.39 236.587 Q1836.1 236.587 1831.72 231.726 Q1827.37 226.865 1827.37 218.67 Q1827.37 210.476 1831.72 205.615 Q1836.1 200.731 1843.39 200.731 Z" fill="#000000" fill-rule="evenodd" fill-opacity="1" /><path clip-path="url(#clip250)" d="M1866.05 225.684 L1866.05 209.99 L1870.31 209.99 L1870.31 225.522 Q1870.31 229.203 1871.75 231.055 Q1873.18 232.883 1876.05 232.883 Q1879.5 232.883 1881.49 230.684 Q1883.51 228.485 1883.51 224.689 L1883.51 209.99 L1887.76 209.99 L1887.76 235.916 L1883.51 235.916 L1883.51 231.934 Q1881.95 234.295 1879.89 235.453 Q1877.86 236.587 1875.15 236.587 Q1870.68 236.587 1868.37 233.809 Q1866.05 231.031 1866.05 225.684 M1876.77 209.365 L1876.77 209.365 Z" fill="#000000" fill-rule="evenodd" fill-opacity="1" /><path clip-path="url(#clip250)" d="M1911.56 213.971 Q1910.84 213.555 1909.99 213.37 Q1909.15 213.161 1908.13 213.161 Q1904.52 213.161 1902.58 215.522 Q1900.66 217.86 1900.66 222.258 L1900.66 235.916 L1896.38 235.916 L1896.38 209.99 L1900.66 209.99 L1900.66 214.018 Q1902 211.657 1904.15 210.522 Q1906.31 209.365 1909.38 209.365 Q1909.82 209.365 1910.36 209.434 Q1910.89 209.481 1911.54 209.596 L1911.56 213.971 Z" fill="#000000" fill-rule="evenodd" fill-opacity="1" /><path clip-path="url(#clip250)" d="M1947.67 219.712 Q1949.18 220.221 1950.59 221.888 Q1952.02 223.555 1953.46 226.471 L1958.2 235.916 L1953.18 235.916 L1948.76 227.05 Q1947.05 223.578 1945.43 222.444 Q1943.83 221.309 1941.05 221.309 L1935.96 221.309 L1935.96 235.916 L1931.28 235.916 L1931.28 201.356 L1941.84 201.356 Q1947.76 201.356 1950.68 203.833 Q1953.6 206.309 1953.6 211.309 Q1953.6 214.573 1952.07 216.726 Q1950.56 218.879 1947.67 219.712 M1935.96 205.198 L1935.96 217.467 L1941.84 217.467 Q1945.22 217.467 1946.93 215.916 Q1948.67 214.342 1948.67 211.309 Q1948.67 208.277 1946.93 206.749 Q1945.22 205.198 1941.84 205.198 L1935.96 205.198 Z" fill="#000000" fill-rule="evenodd" fill-opacity="1" /><path clip-path="url(#clip250)" d="M1974.78 222.883 Q1969.62 222.883 1967.63 224.064 Q1965.63 225.244 1965.63 228.092 Q1965.63 230.36 1967.12 231.703 Q1968.62 233.022 1971.19 233.022 Q1974.73 233.022 1976.86 230.522 Q1979.01 227.999 1979.01 223.832 L1979.01 222.883 L1974.78 222.883 M1983.27 221.124 L1983.27 235.916 L1979.01 235.916 L1979.01 231.981 Q1977.56 234.342 1975.38 235.476 Q1973.2 236.587 1970.06 236.587 Q1966.07 236.587 1963.71 234.365 Q1961.38 232.119 1961.38 228.369 Q1961.38 223.994 1964.29 221.772 Q1967.23 219.55 1973.04 219.55 L1979.01 219.55 L1979.01 219.133 Q1979.01 216.194 1977.07 214.596 Q1975.15 212.976 1971.65 212.976 Q1969.43 212.976 1967.32 213.508 Q1965.22 214.041 1963.27 215.106 L1963.27 211.17 Q1965.61 210.268 1967.81 209.828 Q1970.01 209.365 1972.09 209.365 Q1977.72 209.365 1980.5 212.282 Q1983.27 215.198 1983.27 221.124 Z" fill="#000000" fill-rule="evenodd" fill-opacity="1" /><path clip-path="url(#clip250)" d="M2013.6 220.268 L2013.6 235.916 L2009.34 235.916 L2009.34 220.407 Q2009.34 216.726 2007.9 214.897 Q2006.47 213.069 2003.6 213.069 Q2000.15 213.069 1998.16 215.268 Q1996.17 217.467 1996.17 221.263 L1996.17 235.916 L1991.88 235.916 L1991.88 209.99 L1996.17 209.99 L1996.17 214.018 Q1997.69 211.68 1999.75 210.522 Q2001.84 209.365 2004.55 209.365 Q2009.01 209.365 2011.31 212.143 Q2013.6 214.897 2013.6 220.268 Z" fill="#000000" fill-rule="evenodd" fill-opacity="1" /><path clip-path="url(#clip250)" d="M2039.15 213.925 L2039.15 199.897 L2043.41 199.897 L2043.41 235.916 L2039.15 235.916 L2039.15 232.027 Q2037.81 234.342 2035.75 235.476 Q2033.71 236.587 2030.84 236.587 Q2026.14 236.587 2023.18 232.837 Q2020.24 229.087 2020.24 222.976 Q2020.24 216.865 2023.18 213.115 Q2026.14 209.365 2030.84 209.365 Q2033.71 209.365 2035.75 210.499 Q2037.81 211.61 2039.15 213.925 M2024.64 222.976 Q2024.64 227.675 2026.56 230.36 Q2028.5 233.022 2031.88 233.022 Q2035.26 233.022 2037.21 230.36 Q2039.15 227.675 2039.15 222.976 Q2039.15 218.277 2037.21 215.615 Q2035.26 212.93 2031.88 212.93 Q2028.5 212.93 2026.56 215.615 Q2024.64 218.277 2024.64 222.976 Z" fill="#000000" fill-rule="evenodd" fill-opacity="1" /><path clip-path="url(#clip250)" d="M2062.23 212.976 Q2058.81 212.976 2056.81 215.661 Q2054.82 218.323 2054.82 222.976 Q2054.82 227.629 2056.79 230.314 Q2058.78 232.976 2062.23 232.976 Q2065.63 232.976 2067.62 230.291 Q2069.62 227.606 2069.62 222.976 Q2069.62 218.37 2067.62 215.684 Q2065.63 212.976 2062.23 212.976 M2062.23 209.365 Q2067.79 209.365 2070.96 212.976 Q2074.13 216.587 2074.13 222.976 Q2074.13 229.342 2070.96 232.976 Q2067.79 236.587 2062.23 236.587 Q2056.65 236.587 2053.48 232.976 Q2050.33 229.342 2050.33 222.976 Q2050.33 216.587 2053.48 212.976 Q2056.65 209.365 2062.23 209.365 Z" fill="#000000" fill-rule="evenodd" fill-opacity="1" /><path clip-path="url(#clip250)" d="M2101.37 214.967 Q2102.97 212.096 2105.19 210.731 Q2107.42 209.365 2110.43 209.365 Q2114.48 209.365 2116.68 212.212 Q2118.87 215.036 2118.87 220.268 L2118.87 235.916 L2114.59 235.916 L2114.59 220.407 Q2114.59 216.68 2113.27 214.874 Q2111.95 213.069 2109.24 213.069 Q2105.93 213.069 2104.01 215.268 Q2102.09 217.467 2102.09 221.263 L2102.09 235.916 L2097.81 235.916 L2097.81 220.407 Q2097.81 216.657 2096.49 214.874 Q2095.17 213.069 2092.42 213.069 Q2089.15 213.069 2087.23 215.291 Q2085.31 217.49 2085.31 221.263 L2085.31 235.916 L2081.03 235.916 L2081.03 209.99 L2085.31 209.99 L2085.31 214.018 Q2086.77 211.633 2088.8 210.499 Q2090.84 209.365 2093.64 209.365 Q2096.47 209.365 2098.43 210.8 Q2100.43 212.235 2101.37 214.967 Z" fill="#000000" fill-rule="evenodd" fill-opacity="1" /><path clip-path="url(#clip250)" d="M2142.62 201.356 L2147.3 201.356 L2147.3 231.981 L2164.13 231.981 L2164.13 235.916 L2142.62 235.916 L2142.62 201.356 Z" fill="#000000" fill-rule="evenodd" fill-opacity="1" /><path clip-path="url(#clip250)" d="M2168.85 209.99 L2173.11 209.99 L2173.11 235.916 L2168.85 235.916 L2168.85 209.99 M2168.85 199.897 L2173.11 199.897 L2173.11 205.291 L2168.85 205.291 L2168.85 199.897 Z" fill="#000000" fill-rule="evenodd" fill-opacity="1" /><path clip-path="url(#clip250)" d="M2203.57 220.268 L2203.57 235.916 L2199.31 235.916 L2199.31 220.407 Q2199.31 216.726 2197.88 214.897 Q2196.44 213.069 2193.57 213.069 Q2190.12 213.069 2188.13 215.268 Q2186.14 217.467 2186.14 221.263 L2186.14 235.916 L2181.86 235.916 L2181.86 209.99 L2186.14 209.99 L2186.14 214.018 Q2187.67 211.68 2189.73 210.522 Q2191.81 209.365 2194.52 209.365 Q2198.99 209.365 2201.28 212.143 Q2203.57 214.897 2203.57 220.268 Z" fill="#000000" fill-rule="evenodd" fill-opacity="1" /><path clip-path="url(#clip250)" d="M2234.24 221.888 L2234.24 223.971 L2214.66 223.971 Q2214.94 228.369 2217.3 230.684 Q2219.68 232.976 2223.92 232.976 Q2226.37 232.976 2228.67 232.374 Q2230.98 231.772 2233.25 230.569 L2233.25 234.596 Q2230.96 235.568 2228.55 236.078 Q2226.14 236.587 2223.67 236.587 Q2217.46 236.587 2213.83 232.976 Q2210.22 229.365 2210.22 223.207 Q2210.22 216.842 2213.64 213.115 Q2217.09 209.365 2222.92 209.365 Q2228.16 209.365 2231.19 212.745 Q2234.24 216.101 2234.24 221.888 M2229.98 220.638 Q2229.94 217.143 2228.02 215.059 Q2226.12 212.976 2222.97 212.976 Q2219.41 212.976 2217.25 214.99 Q2215.12 217.004 2214.8 220.661 L2229.98 220.638 Z" fill="#000000" fill-rule="evenodd" fill-opacity="1" /></svg>
