<?xml version="1.0" encoding="utf-8"?>
<svg xmlns="http://www.w3.org/2000/svg" xmlns:xlink="http://www.w3.org/1999/xlink" width="600" height="400" viewBox="0 0 2400 1600">
<defs>
  <clipPath id="clip650">
    <rect x="0" y="0" width="2400" height="1600"/>
  </clipPath>
</defs>
<path clip-path="url(#clip650)" d="
M0 1600 L2400 1600 L2400 0 L0 0  Z
  " fill="#ffffff" fill-rule="evenodd" fill-opacity="1"/>
<defs>
  <clipPath id="clip651">
    <rect x="480" y="0" width="1681" height="1600"/>
  </clipPath>
</defs>
<path clip-path="url(#clip650)" d="
M219.866 1423.18 L2352.76 1423.18 L2352.76 123.472 L219.866 123.472  Z
  " fill="#ffffff" fill-rule="evenodd" fill-opacity="1"/>
<defs>
  <clipPath id="clip652">
    <rect x="219" y="123" width="2134" height="1301"/>
  </clipPath>
</defs>
<polyline clip-path="url(#clip652)" style="stroke:#000000; stroke-linecap:butt; stroke-linejoin:round; stroke-width:2; stroke-opacity:0.1; fill:none" points="
  503.804,1423.18 503.804,123.472 
  "/>
<polyline clip-path="url(#clip652)" style="stroke:#000000; stroke-linecap:butt; stroke-linejoin:round; stroke-width:2; stroke-opacity:0.1; fill:none" points="
  950.951,1423.18 950.951,123.472 
  "/>
<polyline clip-path="url(#clip652)" style="stroke:#000000; stroke-linecap:butt; stroke-linejoin:round; stroke-width:2; stroke-opacity:0.1; fill:none" points="
  1398.1,1423.18 1398.1,123.472 
  "/>
<polyline clip-path="url(#clip652)" style="stroke:#000000; stroke-linecap:butt; stroke-linejoin:round; stroke-width:2; stroke-opacity:0.1; fill:none" points="
  1845.24,1423.18 1845.24,123.472 
  "/>
<polyline clip-path="url(#clip652)" style="stroke:#000000; stroke-linecap:butt; stroke-linejoin:round; stroke-width:2; stroke-opacity:0.1; fill:none" points="
  2292.39,1423.18 2292.39,123.472 
  "/>
<polyline clip-path="url(#clip650)" style="stroke:#000000; stroke-linecap:butt; stroke-linejoin:round; stroke-width:4; stroke-opacity:1; fill:none" points="
  219.866,1423.18 2352.76,1423.18 
  "/>
<polyline clip-path="url(#clip650)" style="stroke:#000000; stroke-linecap:butt; stroke-linejoin:round; stroke-width:4; stroke-opacity:1; fill:none" points="
  503.804,1423.18 503.804,1404.28 
  "/>
<polyline clip-path="url(#clip650)" style="stroke:#000000; stroke-linecap:butt; stroke-linejoin:round; stroke-width:4; stroke-opacity:1; fill:none" points="
  950.951,1423.18 950.951,1404.28 
  "/>
<polyline clip-path="url(#clip650)" style="stroke:#000000; stroke-linecap:butt; stroke-linejoin:round; stroke-width:4; stroke-opacity:1; fill:none" points="
  1398.1,1423.18 1398.1,1404.28 
  "/>
<polyline clip-path="url(#clip650)" style="stroke:#000000; stroke-linecap:butt; stroke-linejoin:round; stroke-width:4; stroke-opacity:1; fill:none" points="
  1845.24,1423.18 1845.24,1404.28 
  "/>
<polyline clip-path="url(#clip650)" style="stroke:#000000; stroke-linecap:butt; stroke-linejoin:round; stroke-width:4; stroke-opacity:1; fill:none" points="
  2292.39,1423.18 2292.39,1404.28 
  "/>
<path clip-path="url(#clip650)" d="M498.457 1481.64 L514.777 1481.64 L514.777 1485.58 L492.832 1485.58 L492.832 1481.64 Q495.494 1478.89 500.078 1474.26 Q504.684 1469.61 505.865 1468.27 Q508.11 1465.74 508.99 1464.01 Q509.892 1462.25 509.892 1460.56 Q509.892 1457.8 507.948 1456.07 Q506.027 1454.33 502.925 1454.33 Q500.726 1454.33 498.272 1455.09 Q495.841 1455.86 493.064 1457.41 L493.064 1452.69 Q495.888 1451.55 498.341 1450.97 Q500.795 1450.39 502.832 1450.39 Q508.203 1450.39 511.397 1453.08 Q514.591 1455.77 514.591 1460.26 Q514.591 1462.39 513.781 1464.31 Q512.994 1466.2 510.888 1468.8 Q510.309 1469.47 507.207 1472.69 Q504.105 1475.88 498.457 1481.64 Z" fill="#000000" fill-rule="evenodd" fill-opacity="1" /><path clip-path="url(#clip650)" d="M953.96 1455.09 L942.155 1473.54 L953.96 1473.54 L953.96 1455.09 M952.733 1451.02 L958.613 1451.02 L958.613 1473.54 L963.544 1473.54 L963.544 1477.43 L958.613 1477.43 L958.613 1485.58 L953.96 1485.58 L953.96 1477.43 L938.359 1477.43 L938.359 1472.92 L952.733 1451.02 Z" fill="#000000" fill-rule="evenodd" fill-opacity="1" /><path clip-path="url(#clip650)" d="M1398.5 1466.44 Q1395.35 1466.44 1393.5 1468.59 Q1391.67 1470.74 1391.67 1474.49 Q1391.67 1478.22 1393.5 1480.39 Q1395.35 1482.55 1398.5 1482.55 Q1401.65 1482.55 1403.48 1480.39 Q1405.33 1478.22 1405.33 1474.49 Q1405.33 1470.74 1403.48 1468.59 Q1401.65 1466.44 1398.5 1466.44 M1407.79 1451.78 L1407.79 1456.04 Q1406.03 1455.21 1404.22 1454.77 Q1402.44 1454.33 1400.68 1454.33 Q1396.05 1454.33 1393.6 1457.45 Q1391.16 1460.58 1390.82 1466.9 Q1392.18 1464.89 1394.24 1463.82 Q1396.3 1462.73 1398.78 1462.73 Q1403.99 1462.73 1407 1465.9 Q1410.03 1469.05 1410.03 1474.49 Q1410.03 1479.82 1406.88 1483.03 Q1403.73 1486.25 1398.5 1486.25 Q1392.51 1486.25 1389.34 1481.67 Q1386.16 1477.06 1386.16 1468.33 Q1386.16 1460.14 1390.05 1455.28 Q1393.94 1450.39 1400.49 1450.39 Q1402.25 1450.39 1404.04 1450.74 Q1405.84 1451.09 1407.79 1451.78 Z" fill="#000000" fill-rule="evenodd" fill-opacity="1" /><path clip-path="url(#clip650)" d="M1845.24 1469.17 Q1841.91 1469.17 1839.99 1470.95 Q1838.09 1472.73 1838.09 1475.86 Q1838.09 1478.98 1839.99 1480.77 Q1841.91 1482.55 1845.24 1482.55 Q1848.58 1482.55 1850.5 1480.77 Q1852.42 1478.96 1852.42 1475.86 Q1852.42 1472.73 1850.5 1470.95 Q1848.6 1469.17 1845.24 1469.17 M1840.57 1467.18 Q1837.56 1466.44 1835.87 1464.38 Q1834.2 1462.32 1834.2 1459.35 Q1834.2 1455.21 1837.14 1452.8 Q1840.11 1450.39 1845.24 1450.39 Q1850.41 1450.39 1853.35 1452.8 Q1856.29 1455.21 1856.29 1459.35 Q1856.29 1462.32 1854.6 1464.38 Q1852.93 1466.44 1849.94 1467.18 Q1853.32 1467.96 1855.2 1470.26 Q1857.1 1472.55 1857.1 1475.86 Q1857.1 1480.88 1854.02 1483.57 Q1850.96 1486.25 1845.24 1486.25 Q1839.53 1486.25 1836.45 1483.57 Q1833.39 1480.88 1833.39 1475.86 Q1833.39 1472.55 1835.29 1470.26 Q1837.19 1467.96 1840.57 1467.18 M1838.86 1459.79 Q1838.86 1462.48 1840.52 1463.98 Q1842.21 1465.49 1845.24 1465.49 Q1848.25 1465.49 1849.94 1463.98 Q1851.66 1462.48 1851.66 1459.79 Q1851.66 1457.11 1849.94 1455.6 Q1848.25 1454.1 1845.24 1454.1 Q1842.21 1454.1 1840.52 1455.6 Q1838.86 1457.11 1838.86 1459.79 Z" fill="#000000" fill-rule="evenodd" fill-opacity="1" /><path clip-path="url(#clip650)" d="M2267.08 1481.64 L2274.72 1481.64 L2274.72 1455.28 L2266.41 1456.95 L2266.41 1452.69 L2274.67 1451.02 L2279.35 1451.02 L2279.35 1481.64 L2286.99 1481.64 L2286.99 1485.58 L2267.08 1485.58 L2267.08 1481.64 Z" fill="#000000" fill-rule="evenodd" fill-opacity="1" /><path clip-path="url(#clip650)" d="M2306.43 1454.1 Q2302.82 1454.1 2300.99 1457.66 Q2299.19 1461.2 2299.19 1468.33 Q2299.19 1475.44 2300.99 1479.01 Q2302.82 1482.55 2306.43 1482.55 Q2310.06 1482.55 2311.87 1479.01 Q2313.7 1475.44 2313.7 1468.33 Q2313.7 1461.2 2311.87 1457.66 Q2310.06 1454.1 2306.43 1454.1 M2306.43 1450.39 Q2312.24 1450.39 2315.3 1455 Q2318.37 1459.58 2318.37 1468.33 Q2318.37 1477.06 2315.3 1481.67 Q2312.24 1486.25 2306.43 1486.25 Q2300.62 1486.25 2297.54 1481.67 Q2294.49 1477.06 2294.49 1468.33 Q2294.49 1459.58 2297.54 1455 Q2300.62 1450.39 2306.43 1450.39 Z" fill="#000000" fill-rule="evenodd" fill-opacity="1" /><path clip-path="url(#clip650)" d="M1154.62 1520.52 L1161.53 1520.52 L1173.34 1538.19 L1185.21 1520.52 L1192.11 1520.52 L1176.84 1543.34 L1193.13 1568.04 L1186.23 1568.04 L1172.86 1547.83 L1159.39 1568.04 L1152.46 1568.04 L1169.42 1542.68 L1154.62 1520.52 Z" fill="#000000" fill-rule="evenodd" fill-opacity="1" /><path clip-path="url(#clip650)" d="M1222.29 1520.52 L1228.72 1520.52 L1228.72 1562.63 L1251.86 1562.63 L1251.86 1568.04 L1222.29 1568.04 L1222.29 1520.52 Z" fill="#000000" fill-rule="evenodd" fill-opacity="1" /><path clip-path="url(#clip650)" d="M1275.98 1526.86 L1267.26 1550.51 L1284.74 1550.51 L1275.98 1526.86 M1272.35 1520.52 L1279.64 1520.52 L1297.75 1568.04 L1291.07 1568.04 L1286.74 1555.85 L1265.32 1555.85 L1260.99 1568.04 L1254.21 1568.04 L1272.35 1520.52 Z" fill="#000000" fill-rule="evenodd" fill-opacity="1" /><path clip-path="url(#clip650)" d="M1311.12 1545.35 L1311.12 1562.76 L1321.43 1562.76 Q1326.62 1562.76 1329.1 1560.63 Q1331.62 1558.46 1331.62 1554.04 Q1331.62 1549.58 1329.1 1547.48 Q1326.62 1545.35 1321.43 1545.35 L1311.12 1545.35 M1311.12 1525.81 L1311.12 1540.13 L1320.64 1540.13 Q1325.35 1540.13 1327.64 1538.38 Q1329.96 1536.6 1329.96 1532.97 Q1329.96 1529.37 1327.64 1527.59 Q1325.35 1525.81 1320.64 1525.81 L1311.12 1525.81 M1304.69 1520.52 L1321.12 1520.52 Q1328.47 1520.52 1332.45 1523.58 Q1336.43 1526.63 1336.43 1532.27 Q1336.43 1536.63 1334.39 1539.21 Q1332.35 1541.79 1328.4 1542.42 Q1333.15 1543.44 1335.76 1546.69 Q1338.4 1549.9 1338.4 1554.74 Q1338.4 1561.11 1334.07 1564.57 Q1329.74 1568.04 1321.75 1568.04 L1304.69 1568.04 L1304.69 1520.52 Z" fill="#000000" fill-rule="evenodd" fill-opacity="1" /><path clip-path="url(#clip650)" d="M1349.41 1520.52 L1379.46 1520.52 L1379.46 1525.93 L1355.84 1525.93 L1355.84 1540 L1378.47 1540 L1378.47 1545.41 L1355.84 1545.41 L1355.84 1562.63 L1380.03 1562.63 L1380.03 1568.04 L1349.41 1568.04 L1349.41 1520.52 Z" fill="#000000" fill-rule="evenodd" fill-opacity="1" /><path clip-path="url(#clip650)" d="M1390.6 1520.52 L1397.03 1520.52 L1397.03 1562.63 L1420.17 1562.63 L1420.17 1568.04 L1390.6 1568.04 L1390.6 1520.52 Z" fill="#000000" fill-rule="evenodd" fill-opacity="1" /><polyline clip-path="url(#clip652)" style="stroke:#000000; stroke-linecap:butt; stroke-linejoin:round; stroke-width:2; stroke-opacity:0.1; fill:none" points="
  219.866,1269.52 2352.76,1269.52 
  "/>
<polyline clip-path="url(#clip652)" style="stroke:#000000; stroke-linecap:butt; stroke-linejoin:round; stroke-width:2; stroke-opacity:0.1; fill:none" points="
  219.866,1089.52 2352.76,1089.52 
  "/>
<polyline clip-path="url(#clip652)" style="stroke:#000000; stroke-linecap:butt; stroke-linejoin:round; stroke-width:2; stroke-opacity:0.1; fill:none" points="
  219.866,909.512 2352.76,909.512 
  "/>
<polyline clip-path="url(#clip652)" style="stroke:#000000; stroke-linecap:butt; stroke-linejoin:round; stroke-width:2; stroke-opacity:0.1; fill:none" points="
  219.866,729.506 2352.76,729.506 
  "/>
<polyline clip-path="url(#clip652)" style="stroke:#000000; stroke-linecap:butt; stroke-linejoin:round; stroke-width:2; stroke-opacity:0.1; fill:none" points="
  219.866,549.501 2352.76,549.501 
  "/>
<polyline clip-path="url(#clip652)" style="stroke:#000000; stroke-linecap:butt; stroke-linejoin:round; stroke-width:2; stroke-opacity:0.1; fill:none" points="
  219.866,369.495 2352.76,369.495 
  "/>
<polyline clip-path="url(#clip652)" style="stroke:#000000; stroke-linecap:butt; stroke-linejoin:round; stroke-width:2; stroke-opacity:0.1; fill:none" points="
  219.866,189.49 2352.76,189.49 
  "/>
<polyline clip-path="url(#clip650)" style="stroke:#000000; stroke-linecap:butt; stroke-linejoin:round; stroke-width:4; stroke-opacity:1; fill:none" points="
  219.866,1423.18 219.866,123.472 
  "/>
<polyline clip-path="url(#clip650)" style="stroke:#000000; stroke-linecap:butt; stroke-linejoin:round; stroke-width:4; stroke-opacity:1; fill:none" points="
  219.866,1269.52 238.764,1269.52 
  "/>
<polyline clip-path="url(#clip650)" style="stroke:#000000; stroke-linecap:butt; stroke-linejoin:round; stroke-width:4; stroke-opacity:1; fill:none" points="
  219.866,1089.52 238.764,1089.52 
  "/>
<polyline clip-path="url(#clip650)" style="stroke:#000000; stroke-linecap:butt; stroke-linejoin:round; stroke-width:4; stroke-opacity:1; fill:none" points="
  219.866,909.512 238.764,909.512 
  "/>
<polyline clip-path="url(#clip650)" style="stroke:#000000; stroke-linecap:butt; stroke-linejoin:round; stroke-width:4; stroke-opacity:1; fill:none" points="
  219.866,729.506 238.764,729.506 
  "/>
<polyline clip-path="url(#clip650)" style="stroke:#000000; stroke-linecap:butt; stroke-linejoin:round; stroke-width:4; stroke-opacity:1; fill:none" points="
  219.866,549.501 238.764,549.501 
  "/>
<polyline clip-path="url(#clip650)" style="stroke:#000000; stroke-linecap:butt; stroke-linejoin:round; stroke-width:4; stroke-opacity:1; fill:none" points="
  219.866,369.495 238.764,369.495 
  "/>
<polyline clip-path="url(#clip650)" style="stroke:#000000; stroke-linecap:butt; stroke-linejoin:round; stroke-width:4; stroke-opacity:1; fill:none" points="
  219.866,189.49 238.764,189.49 
  "/>
<path clip-path="url(#clip650)" d="M127.917 1255.32 Q124.306 1255.32 122.478 1258.89 Q120.672 1262.43 120.672 1269.56 Q120.672 1276.66 122.478 1280.23 Q124.306 1283.77 127.917 1283.77 Q131.552 1283.77 133.357 1280.23 Q135.186 1276.66 135.186 1269.56 Q135.186 1262.43 133.357 1258.89 Q131.552 1255.32 127.917 1255.32 M127.917 1251.62 Q133.728 1251.62 136.783 1256.22 Q139.862 1260.81 139.862 1269.56 Q139.862 1278.28 136.783 1282.89 Q133.728 1287.47 127.917 1287.47 Q122.107 1287.47 119.029 1282.89 Q115.973 1278.28 115.973 1269.56 Q115.973 1260.81 119.029 1256.22 Q122.107 1251.62 127.917 1251.62 Z" fill="#000000" fill-rule="evenodd" fill-opacity="1" /><path clip-path="url(#clip650)" d="M148.079 1280.92 L152.964 1280.92 L152.964 1286.8 L148.079 1286.8 L148.079 1280.92 Z" fill="#000000" fill-rule="evenodd" fill-opacity="1" /><path clip-path="url(#clip650)" d="M163.959 1282.87 L171.598 1282.87 L171.598 1256.5 L163.288 1258.17 L163.288 1253.91 L171.552 1252.24 L176.227 1252.24 L176.227 1282.87 L183.866 1282.87 L183.866 1286.8 L163.959 1286.8 L163.959 1282.87 Z" fill="#000000" fill-rule="evenodd" fill-opacity="1" /><path clip-path="url(#clip650)" d="M128.288 1075.32 Q124.677 1075.32 122.848 1078.88 Q121.043 1082.42 121.043 1089.55 Q121.043 1096.66 122.848 1100.22 Q124.677 1103.77 128.288 1103.77 Q131.922 1103.77 133.728 1100.22 Q135.556 1096.66 135.556 1089.55 Q135.556 1082.42 133.728 1078.88 Q131.922 1075.32 128.288 1075.32 M128.288 1071.61 Q134.098 1071.61 137.154 1076.22 Q140.232 1080.8 140.232 1089.55 Q140.232 1098.28 137.154 1102.89 Q134.098 1107.47 128.288 1107.47 Q122.478 1107.47 119.399 1102.89 Q116.343 1098.28 116.343 1089.55 Q116.343 1080.8 119.399 1076.22 Q122.478 1071.61 128.288 1071.61 Z" fill="#000000" fill-rule="evenodd" fill-opacity="1" /><path clip-path="url(#clip650)" d="M148.45 1100.92 L153.334 1100.92 L153.334 1106.8 L148.45 1106.8 L148.45 1100.92 Z" fill="#000000" fill-rule="evenodd" fill-opacity="1" /><path clip-path="url(#clip650)" d="M167.547 1102.86 L183.866 1102.86 L183.866 1106.8 L161.922 1106.8 L161.922 1102.86 Q164.584 1100.11 169.167 1095.48 Q173.774 1090.83 174.954 1089.48 Q177.2 1086.96 178.079 1085.22 Q178.982 1083.46 178.982 1081.77 Q178.982 1079.02 177.038 1077.28 Q175.116 1075.55 172.014 1075.55 Q169.815 1075.55 167.362 1076.31 Q164.931 1077.08 162.153 1078.63 L162.153 1073.9 Q164.977 1072.77 167.431 1072.19 Q169.885 1071.61 171.922 1071.61 Q177.292 1071.61 180.487 1074.3 Q183.681 1076.98 183.681 1081.47 Q183.681 1083.6 182.871 1085.52 Q182.084 1087.42 179.977 1090.02 Q179.399 1090.69 176.297 1093.9 Q173.195 1097.1 167.547 1102.86 Z" fill="#000000" fill-rule="evenodd" fill-opacity="1" /><path clip-path="url(#clip650)" d="M127.339 895.311 Q123.728 895.311 121.899 898.876 Q120.093 902.417 120.093 909.547 Q120.093 916.653 121.899 920.218 Q123.728 923.76 127.339 923.76 Q130.973 923.76 132.779 920.218 Q134.607 916.653 134.607 909.547 Q134.607 902.417 132.779 898.876 Q130.973 895.311 127.339 895.311 M127.339 891.607 Q133.149 891.607 136.204 896.213 Q139.283 900.797 139.283 909.547 Q139.283 918.274 136.204 922.88 Q133.149 927.463 127.339 927.463 Q121.529 927.463 118.45 922.88 Q115.394 918.274 115.394 909.547 Q115.394 900.797 118.45 896.213 Q121.529 891.607 127.339 891.607 Z" fill="#000000" fill-rule="evenodd" fill-opacity="1" /><path clip-path="url(#clip650)" d="M147.501 920.912 L152.385 920.912 L152.385 926.792 L147.501 926.792 L147.501 920.912 Z" fill="#000000" fill-rule="evenodd" fill-opacity="1" /><path clip-path="url(#clip650)" d="M176.737 908.158 Q180.093 908.875 181.968 911.144 Q183.866 913.412 183.866 916.746 Q183.866 921.861 180.348 924.662 Q176.829 927.463 170.348 927.463 Q168.172 927.463 165.857 927.024 Q163.565 926.607 161.112 925.75 L161.112 921.237 Q163.056 922.371 165.371 922.949 Q167.686 923.528 170.209 923.528 Q174.607 923.528 176.899 921.792 Q179.214 920.056 179.214 916.746 Q179.214 913.69 177.061 911.977 Q174.931 910.241 171.112 910.241 L167.084 910.241 L167.084 906.399 L171.297 906.399 Q174.746 906.399 176.575 905.033 Q178.403 903.644 178.403 901.051 Q178.403 898.389 176.505 896.977 Q174.63 895.542 171.112 895.542 Q169.19 895.542 166.991 895.959 Q164.792 896.376 162.153 897.255 L162.153 893.089 Q164.815 892.348 167.13 891.977 Q169.468 891.607 171.528 891.607 Q176.852 891.607 179.954 894.038 Q183.056 896.445 183.056 900.565 Q183.056 903.436 181.413 905.426 Q179.769 907.394 176.737 908.158 Z" fill="#000000" fill-rule="evenodd" fill-opacity="1" /><path clip-path="url(#clip650)" d="M126.205 715.305 Q122.593 715.305 120.765 718.87 Q118.959 722.412 118.959 729.541 Q118.959 736.648 120.765 740.212 Q122.593 743.754 126.205 743.754 Q129.839 743.754 131.644 740.212 Q133.473 736.648 133.473 729.541 Q133.473 722.412 131.644 718.87 Q129.839 715.305 126.205 715.305 M126.205 711.601 Q132.015 711.601 135.07 716.208 Q138.149 720.791 138.149 729.541 Q138.149 738.268 135.07 742.874 Q132.015 747.458 126.205 747.458 Q120.394 747.458 117.316 742.874 Q114.26 738.268 114.26 729.541 Q114.26 720.791 117.316 716.208 Q120.394 711.601 126.205 711.601 Z" fill="#000000" fill-rule="evenodd" fill-opacity="1" /><path clip-path="url(#clip650)" d="M146.366 740.907 L151.251 740.907 L151.251 746.786 L146.366 746.786 L146.366 740.907 Z" fill="#000000" fill-rule="evenodd" fill-opacity="1" /><path clip-path="url(#clip650)" d="M174.283 716.301 L162.477 734.749 L174.283 734.749 L174.283 716.301 M173.056 712.226 L178.936 712.226 L178.936 734.749 L183.866 734.749 L183.866 738.638 L178.936 738.638 L178.936 746.786 L174.283 746.786 L174.283 738.638 L158.681 738.638 L158.681 734.124 L173.056 712.226 Z" fill="#000000" fill-rule="evenodd" fill-opacity="1" /><path clip-path="url(#clip650)" d="M127.686 535.3 Q124.075 535.3 122.246 538.864 Q120.441 542.406 120.441 549.536 Q120.441 556.642 122.246 560.207 Q124.075 563.748 127.686 563.748 Q131.32 563.748 133.126 560.207 Q134.954 556.642 134.954 549.536 Q134.954 542.406 133.126 538.864 Q131.32 535.3 127.686 535.3 M127.686 531.596 Q133.496 531.596 136.552 536.202 Q139.63 540.786 139.63 549.536 Q139.63 558.262 136.552 562.869 Q133.496 567.452 127.686 567.452 Q121.876 567.452 118.797 562.869 Q115.742 558.262 115.742 549.536 Q115.742 540.786 118.797 536.202 Q121.876 531.596 127.686 531.596 Z" fill="#000000" fill-rule="evenodd" fill-opacity="1" /><path clip-path="url(#clip650)" d="M147.848 560.901 L152.732 560.901 L152.732 566.781 L147.848 566.781 L147.848 560.901 Z" fill="#000000" fill-rule="evenodd" fill-opacity="1" /><path clip-path="url(#clip650)" d="M162.964 532.221 L181.32 532.221 L181.32 536.156 L167.246 536.156 L167.246 544.628 Q168.264 544.281 169.283 544.119 Q170.302 543.934 171.32 543.934 Q177.107 543.934 180.487 547.105 Q183.866 550.276 183.866 555.693 Q183.866 561.272 180.394 564.373 Q176.922 567.452 170.602 567.452 Q168.427 567.452 166.158 567.082 Q163.913 566.711 161.505 565.971 L161.505 561.272 Q163.589 562.406 165.811 562.961 Q168.033 563.517 170.51 563.517 Q174.514 563.517 176.852 561.411 Q179.19 559.304 179.19 555.693 Q179.19 552.082 176.852 549.975 Q174.514 547.869 170.51 547.869 Q168.635 547.869 166.76 548.286 Q164.908 548.702 162.964 549.582 L162.964 532.221 Z" fill="#000000" fill-rule="evenodd" fill-opacity="1" /><path clip-path="url(#clip650)" d="M126.529 355.294 Q122.918 355.294 121.089 358.859 Q119.283 362.4 119.283 369.53 Q119.283 376.636 121.089 380.201 Q122.918 383.743 126.529 383.743 Q130.163 383.743 131.968 380.201 Q133.797 376.636 133.797 369.53 Q133.797 362.4 131.968 358.859 Q130.163 355.294 126.529 355.294 M126.529 351.59 Q132.339 351.59 135.394 356.197 Q138.473 360.78 138.473 369.53 Q138.473 378.257 135.394 382.863 Q132.339 387.447 126.529 387.447 Q120.718 387.447 117.64 382.863 Q114.584 378.257 114.584 369.53 Q114.584 360.78 117.64 356.197 Q120.718 351.59 126.529 351.59 Z" fill="#000000" fill-rule="evenodd" fill-opacity="1" /><path clip-path="url(#clip650)" d="M146.691 380.896 L151.575 380.896 L151.575 386.775 L146.691 386.775 L146.691 380.896 Z" fill="#000000" fill-rule="evenodd" fill-opacity="1" /><path clip-path="url(#clip650)" d="M172.339 367.632 Q169.19 367.632 167.339 369.785 Q165.51 371.937 165.51 375.687 Q165.51 379.414 167.339 381.59 Q169.19 383.743 172.339 383.743 Q175.487 383.743 177.315 381.59 Q179.167 379.414 179.167 375.687 Q179.167 371.937 177.315 369.785 Q175.487 367.632 172.339 367.632 M181.621 352.979 L181.621 357.238 Q179.862 356.405 178.056 355.965 Q176.274 355.525 174.514 355.525 Q169.885 355.525 167.431 358.65 Q165.001 361.775 164.653 368.095 Q166.019 366.081 168.079 365.016 Q170.139 363.928 172.616 363.928 Q177.825 363.928 180.834 367.099 Q183.866 370.248 183.866 375.687 Q183.866 381.011 180.718 384.229 Q177.57 387.447 172.339 387.447 Q166.343 387.447 163.172 382.863 Q160.001 378.257 160.001 369.53 Q160.001 361.336 163.89 356.475 Q167.778 351.59 174.329 351.59 Q176.089 351.59 177.871 351.938 Q179.676 352.285 181.621 352.979 Z" fill="#000000" fill-rule="evenodd" fill-opacity="1" /><path clip-path="url(#clip650)" d="M127.593 175.288 Q123.982 175.288 122.154 178.853 Q120.348 182.395 120.348 189.524 Q120.348 196.631 122.154 200.196 Q123.982 203.737 127.593 203.737 Q131.228 203.737 133.033 200.196 Q134.862 196.631 134.862 189.524 Q134.862 182.395 133.033 178.853 Q131.228 175.288 127.593 175.288 M127.593 171.585 Q133.404 171.585 136.459 176.191 Q139.538 180.775 139.538 189.524 Q139.538 198.251 136.459 202.858 Q133.404 207.441 127.593 207.441 Q121.783 207.441 118.705 202.858 Q115.649 198.251 115.649 189.524 Q115.649 180.775 118.705 176.191 Q121.783 171.585 127.593 171.585 Z" fill="#000000" fill-rule="evenodd" fill-opacity="1" /><path clip-path="url(#clip650)" d="M147.755 200.89 L152.64 200.89 L152.64 206.77 L147.755 206.77 L147.755 200.89 Z" fill="#000000" fill-rule="evenodd" fill-opacity="1" /><path clip-path="url(#clip650)" d="M161.644 172.21 L183.866 172.21 L183.866 174.2 L171.32 206.77 L166.436 206.77 L178.241 176.145 L161.644 176.145 L161.644 172.21 Z" fill="#000000" fill-rule="evenodd" fill-opacity="1" /><path clip-path="url(#clip650)" d="M16.4842 905.796 L16.4842 898.89 L36.0269 885.713 L16.4842 872.631 L16.4842 865.724 L41.3741 882.53 L64.0042 882.53 L64.0042 888.991 L41.3741 888.991 L16.4842 905.796 Z" fill="#000000" fill-rule="evenodd" fill-opacity="1" /><path clip-path="url(#clip650)" d="M16.4842 838.734 L16.4842 832.304 L58.5933 832.304 L58.5933 809.165 L64.0042 809.165 L64.0042 838.734 L16.4842 838.734 Z" fill="#000000" fill-rule="evenodd" fill-opacity="1" /><path clip-path="url(#clip650)" d="M22.818 785.039 L46.4666 793.76 L46.4666 776.286 L22.818 785.039 M16.4842 788.667 L16.4842 781.379 L64.0042 763.268 L64.0042 769.952 L51.8138 774.281 L51.8138 795.701 L64.0042 800.03 L64.0042 806.81 L16.4842 788.667 Z" fill="#000000" fill-rule="evenodd" fill-opacity="1" /><path clip-path="url(#clip650)" d="M41.3104 749.9 L58.7206 749.9 L58.7206 739.588 Q58.7206 734.4 56.5881 731.917 Q54.4238 729.403 49.9996 729.403 Q45.5436 729.403 43.4429 731.917 Q41.3104 734.4 41.3104 739.588 L41.3104 749.9 M21.7677 749.9 L36.0905 749.9 L36.0905 740.383 Q36.0905 735.673 34.34 733.381 Q32.5576 731.058 28.9291 731.058 Q25.3325 731.058 23.5501 733.381 Q21.7677 735.673 21.7677 740.383 L21.7677 749.9 M16.4842 756.33 L16.4842 739.906 Q16.4842 732.554 19.5397 728.575 Q22.5952 724.596 28.2289 724.596 Q32.5894 724.596 35.1675 726.634 Q37.7456 728.671 38.3822 732.617 Q39.4007 727.875 42.6472 725.265 Q45.8619 722.623 50.6998 722.623 Q57.0655 722.623 60.5348 726.952 Q64.0042 731.28 64.0042 739.269 L64.0042 756.33 L16.4842 756.33 Z" fill="#000000" fill-rule="evenodd" fill-opacity="1" /><path clip-path="url(#clip650)" d="M16.4842 711.61 L16.4842 681.564 L21.895 681.564 L21.895 705.181 L35.9632 705.181 L35.9632 682.551 L41.3741 682.551 L41.3741 705.181 L58.5933 705.181 L58.5933 680.991 L64.0042 680.991 L64.0042 711.61 L16.4842 711.61 Z" fill="#000000" fill-rule="evenodd" fill-opacity="1" /><path clip-path="url(#clip650)" d="M16.4842 670.424 L16.4842 663.995 L58.5933 663.995 L58.5933 640.856 L64.0042 640.856 L64.0042 670.424 L16.4842 670.424 Z" fill="#000000" fill-rule="evenodd" fill-opacity="1" /><path clip-path="url(#clip650)" d="M944.719 44.2197 Q947.352 45.1109 949.823 48.0275 Q952.334 50.9442 954.846 56.0483 L963.15 72.576 L954.36 72.576 L946.623 57.061 Q943.625 50.9847 940.789 48.9997 Q937.994 47.0148 933.133 47.0148 L924.221 47.0148 L924.221 72.576 L916.038 72.576 L916.038 12.096 L934.51 12.096 Q944.881 12.096 949.985 16.4305 Q955.089 20.7649 955.089 29.5149 Q955.089 35.2267 952.415 38.994 Q949.782 42.7613 944.719 44.2197 M924.221 18.8205 L924.221 40.2903 L934.51 40.2903 Q940.425 40.2903 943.422 37.5762 Q946.46 34.8216 946.46 29.5149 Q946.46 24.2082 943.422 21.5346 Q940.425 18.8205 934.51 18.8205 L924.221 18.8205 Z" fill="#000000" fill-rule="evenodd" fill-opacity="1" /><path clip-path="url(#clip650)" d="M992.155 49.7694 Q983.121 49.7694 979.637 51.8354 Q976.154 53.9013 976.154 58.8839 Q976.154 62.8538 978.746 65.2034 Q981.379 67.5124 985.876 67.5124 Q992.074 67.5124 995.8 63.1374 Q999.568 58.7219 999.568 51.4303 L999.568 49.7694 L992.155 49.7694 M1007.02 46.6907 L1007.02 72.576 L999.568 72.576 L999.568 65.6895 Q997.016 69.8214 993.208 71.8063 Q989.4 73.7508 983.891 73.7508 Q976.923 73.7508 972.791 69.8619 Q968.7 65.9325 968.7 59.3701 Q968.7 51.7138 973.804 47.825 Q978.949 43.9361 989.116 43.9361 L999.568 43.9361 L999.568 43.2069 Q999.568 38.0623 996.165 35.2672 Q992.803 32.4315 986.686 32.4315 Q982.797 32.4315 979.111 33.3632 Q975.424 34.295 972.022 36.1584 L972.022 29.2718 Q976.113 27.692 979.961 26.9223 Q983.81 26.1121 987.456 26.1121 Q997.299 26.1121 1002.16 31.2163 Q1007.02 36.3204 1007.02 46.6907 Z" fill="#000000" fill-rule="evenodd" fill-opacity="1" /><path clip-path="url(#clip650)" d="M1060.09 45.1919 L1060.09 72.576 L1052.63 72.576 L1052.63 45.4349 Q1052.63 38.994 1050.12 35.7938 Q1047.61 32.5936 1042.59 32.5936 Q1036.55 32.5936 1033.07 36.4419 Q1029.59 40.2903 1029.59 46.9338 L1029.59 72.576 L1022.09 72.576 L1022.09 27.2059 L1029.59 27.2059 L1029.59 34.2544 Q1032.26 30.163 1035.86 28.1376 Q1039.51 26.1121 1044.25 26.1121 Q1052.07 26.1121 1056.08 30.9732 Q1060.09 35.7938 1060.09 45.1919 Z" fill="#000000" fill-rule="evenodd" fill-opacity="1" /><path clip-path="url(#clip650)" d="M1104.81 34.0924 L1104.81 9.54393 L1112.26 9.54393 L1112.26 72.576 L1104.81 72.576 L1104.81 65.7705 Q1102.46 69.8214 1098.86 71.8063 Q1095.29 73.7508 1090.27 73.7508 Q1082.04 73.7508 1076.86 67.1883 Q1071.71 60.6258 1071.71 49.9314 Q1071.71 39.2371 1076.86 32.6746 Q1082.04 26.1121 1090.27 26.1121 Q1095.29 26.1121 1098.86 28.0971 Q1102.46 30.0415 1104.81 34.0924 M1079.41 49.9314 Q1079.41 58.1548 1082.77 62.8538 Q1086.18 67.5124 1092.09 67.5124 Q1098 67.5124 1101.41 62.8538 Q1104.81 58.1548 1104.81 49.9314 Q1104.81 41.7081 1101.41 37.0496 Q1098 32.3505 1092.09 32.3505 Q1086.18 32.3505 1082.77 37.0496 Q1079.41 41.7081 1079.41 49.9314 Z" fill="#000000" fill-rule="evenodd" fill-opacity="1" /><path clip-path="url(#clip650)" d="M1145.2 32.4315 Q1139.2 32.4315 1135.72 37.1306 Q1132.23 41.7891 1132.23 49.9314 Q1132.23 58.0738 1135.68 62.7728 Q1139.16 67.4314 1145.2 67.4314 Q1151.15 67.4314 1154.64 62.7323 Q1158.12 58.0333 1158.12 49.9314 Q1158.12 41.8701 1154.64 37.1711 Q1151.15 32.4315 1145.2 32.4315 M1145.2 26.1121 Q1154.92 26.1121 1160.47 32.4315 Q1166.02 38.7509 1166.02 49.9314 Q1166.02 61.0714 1160.47 67.4314 Q1154.92 73.7508 1145.2 73.7508 Q1135.44 73.7508 1129.89 67.4314 Q1124.38 61.0714 1124.38 49.9314 Q1124.38 38.7509 1129.89 32.4315 Q1135.44 26.1121 1145.2 26.1121 Z" fill="#000000" fill-rule="evenodd" fill-opacity="1" /><path clip-path="url(#clip650)" d="M1213.7 35.9153 Q1216.49 30.8922 1220.38 28.5022 Q1224.27 26.1121 1229.54 26.1121 Q1236.63 26.1121 1240.48 31.0947 Q1244.32 36.0368 1244.32 45.1919 L1244.32 72.576 L1236.83 72.576 L1236.83 45.4349 Q1236.83 38.913 1234.52 35.7533 Q1232.21 32.5936 1227.47 32.5936 Q1221.68 32.5936 1218.32 36.4419 Q1214.95 40.2903 1214.95 46.9338 L1214.95 72.576 L1207.46 72.576 L1207.46 45.4349 Q1207.46 38.8725 1205.15 35.7533 Q1202.84 32.5936 1198.02 32.5936 Q1192.31 32.5936 1188.95 36.4824 Q1185.59 40.3308 1185.59 46.9338 L1185.59 72.576 L1178.09 72.576 L1178.09 27.2059 L1185.59 27.2059 L1185.59 34.2544 Q1188.14 30.082 1191.7 28.0971 Q1195.27 26.1121 1200.17 26.1121 Q1205.11 26.1121 1208.55 28.6237 Q1212.04 31.1352 1213.7 35.9153 Z" fill="#000000" fill-rule="evenodd" fill-opacity="1" /><path clip-path="url(#clip650)" d="M1294.07 18.8205 L1294.07 65.8515 L1303.95 65.8515 Q1316.47 65.8515 1322.26 60.1802 Q1328.1 54.509 1328.1 42.2752 Q1328.1 30.1225 1322.26 24.4918 Q1316.47 18.8205 1303.95 18.8205 L1294.07 18.8205 M1285.89 12.096 L1302.7 12.096 Q1320.28 12.096 1328.5 19.4281 Q1336.72 26.7198 1336.72 42.2752 Q1336.72 57.9117 1328.46 65.2439 Q1320.2 72.576 1302.7 72.576 L1285.89 72.576 L1285.89 12.096 Z" fill="#000000" fill-rule="evenodd" fill-opacity="1" /><path clip-path="url(#clip650)" d="M1370.06 49.7694 Q1361.03 49.7694 1357.55 51.8354 Q1354.06 53.9013 1354.06 58.8839 Q1354.06 62.8538 1356.66 65.2034 Q1359.29 67.5124 1363.78 67.5124 Q1369.98 67.5124 1373.71 63.1374 Q1377.48 58.7219 1377.48 51.4303 L1377.48 49.7694 L1370.06 49.7694 M1384.93 46.6907 L1384.93 72.576 L1377.48 72.576 L1377.48 65.6895 Q1374.92 69.8214 1371.12 71.8063 Q1367.31 73.7508 1361.8 73.7508 Q1354.83 73.7508 1350.7 69.8619 Q1346.61 65.9325 1346.61 59.3701 Q1346.61 51.7138 1351.71 47.825 Q1356.86 43.9361 1367.03 43.9361 L1377.48 43.9361 L1377.48 43.2069 Q1377.48 38.0623 1374.07 35.2672 Q1370.71 32.4315 1364.59 32.4315 Q1360.71 32.4315 1357.02 33.3632 Q1353.33 34.295 1349.93 36.1584 L1349.93 29.2718 Q1354.02 27.692 1357.87 26.9223 Q1361.72 26.1121 1365.36 26.1121 Q1375.21 26.1121 1380.07 31.2163 Q1384.93 36.3204 1384.93 46.6907 Z" fill="#000000" fill-rule="evenodd" fill-opacity="1" /><path clip-path="url(#clip650)" d="M1407.66 14.324 L1407.66 27.2059 L1423.01 27.2059 L1423.01 32.9987 L1407.66 32.9987 L1407.66 57.6282 Q1407.66 63.1779 1409.15 64.7578 Q1410.69 66.3376 1415.35 66.3376 L1423.01 66.3376 L1423.01 72.576 L1415.35 72.576 Q1406.72 72.576 1403.44 69.3758 Q1400.16 66.1351 1400.16 57.6282 L1400.16 32.9987 L1394.69 32.9987 L1394.69 27.2059 L1400.16 27.2059 L1400.16 14.324 L1407.66 14.324 Z" fill="#000000" fill-rule="evenodd" fill-opacity="1" /><path clip-path="url(#clip650)" d="M1453.43 49.7694 Q1444.4 49.7694 1440.91 51.8354 Q1437.43 53.9013 1437.43 58.8839 Q1437.43 62.8538 1440.02 65.2034 Q1442.66 67.5124 1447.15 67.5124 Q1453.35 67.5124 1457.08 63.1374 Q1460.84 58.7219 1460.84 51.4303 L1460.84 49.7694 L1453.43 49.7694 M1468.3 46.6907 L1468.3 72.576 L1460.84 72.576 L1460.84 65.6895 Q1458.29 69.8214 1454.48 71.8063 Q1450.68 73.7508 1445.17 73.7508 Q1438.2 73.7508 1434.07 69.8619 Q1429.98 65.9325 1429.98 59.3701 Q1429.98 51.7138 1435.08 47.825 Q1440.23 43.9361 1450.39 43.9361 L1460.84 43.9361 L1460.84 43.2069 Q1460.84 38.0623 1457.44 35.2672 Q1454.08 32.4315 1447.96 32.4315 Q1444.07 32.4315 1440.39 33.3632 Q1436.7 34.295 1433.3 36.1584 L1433.3 29.2718 Q1437.39 27.692 1441.24 26.9223 Q1445.09 26.1121 1448.73 26.1121 Q1458.58 26.1121 1463.44 31.2163 Q1468.3 36.3204 1468.3 46.6907 Z" fill="#000000" fill-rule="evenodd" fill-opacity="1" /><path clip-path="url(#clip650)" d="M1518.53 18.8205 L1518.53 41.5461 L1528.82 41.5461 Q1534.53 41.5461 1537.65 38.5889 Q1540.77 35.6318 1540.77 30.163 Q1540.77 24.7348 1537.65 21.7777 Q1534.53 18.8205 1528.82 18.8205 L1518.53 18.8205 M1510.35 12.096 L1528.82 12.096 Q1538.99 12.096 1544.17 16.714 Q1549.4 21.2916 1549.4 30.163 Q1549.4 39.1155 1544.17 43.6931 Q1538.99 48.2706 1528.82 48.2706 L1518.53 48.2706 L1518.53 72.576 L1510.35 72.576 L1510.35 12.096 Z" fill="#000000" fill-rule="evenodd" fill-opacity="1" /><path clip-path="url(#clip650)" d="M1560.05 9.54393 L1567.5 9.54393 L1567.5 72.576 L1560.05 72.576 L1560.05 9.54393 Z" fill="#000000" fill-rule="evenodd" fill-opacity="1" /><path clip-path="url(#clip650)" d="M1600.68 32.4315 Q1594.69 32.4315 1591.2 37.1306 Q1587.72 41.7891 1587.72 49.9314 Q1587.72 58.0738 1591.16 62.7728 Q1594.65 67.4314 1600.68 67.4314 Q1606.64 67.4314 1610.12 62.7323 Q1613.6 58.0333 1613.6 49.9314 Q1613.6 41.8701 1610.12 37.1711 Q1606.64 32.4315 1600.68 32.4315 M1600.68 26.1121 Q1610.4 26.1121 1615.95 32.4315 Q1621.5 38.7509 1621.5 49.9314 Q1621.5 61.0714 1615.95 67.4314 Q1610.4 73.7508 1600.68 73.7508 Q1590.92 73.7508 1585.37 67.4314 Q1579.86 61.0714 1579.86 49.9314 Q1579.86 38.7509 1585.37 32.4315 Q1590.92 26.1121 1600.68 26.1121 Z" fill="#000000" fill-rule="evenodd" fill-opacity="1" /><path clip-path="url(#clip650)" d="M1641.23 14.324 L1641.23 27.2059 L1656.58 27.2059 L1656.58 32.9987 L1641.23 32.9987 L1641.23 57.6282 Q1641.23 63.1779 1642.73 64.7578 Q1644.27 66.3376 1648.93 66.3376 L1656.58 66.3376 L1656.58 72.576 L1648.93 72.576 Q1640.3 72.576 1637.02 69.3758 Q1633.74 66.1351 1633.74 57.6282 L1633.74 32.9987 L1628.27 32.9987 L1628.27 27.2059 L1633.74 27.2059 L1633.74 14.324 L1641.23 14.324 Z" fill="#000000" fill-rule="evenodd" fill-opacity="1" /><polyline clip-path="url(#clip652)" style="stroke:#009af9; stroke-linecap:butt; stroke-linejoin:round; stroke-width:4; stroke-opacity:1; fill:none" points="
  280.231,1140.91 503.804,826.843 727.378,902.174 950.951,508.918 1174.52,1386.4 1398.1,1226.3 1621.67,160.256 1845.24,984.195 2068.82,530.479 2292.39,378.641 
  
  "/>
<path clip-path="url(#clip650)" d="
M1637.8 270.476 L2281.66 270.476 L2281.66 166.796 L1637.8 166.796  Z
  " fill="#ffffff" fill-rule="evenodd" fill-opacity="1"/>
<polyline clip-path="url(#clip650)" style="stroke:#000000; stroke-linecap:butt; stroke-linejoin:round; stroke-width:4; stroke-opacity:1; fill:none" points="
  1637.8,270.476 2281.66,270.476 2281.66,166.796 1637.8,166.796 1637.8,270.476 
  "/>
<polyline clip-path="url(#clip650)" style="stroke:#009af9; stroke-linecap:butt; stroke-linejoin:round; stroke-width:4; stroke-opacity:1; fill:none" points="
  1661.5,218.636 1803.69,218.636 
  "/>
<path clip-path="url(#clip650)" d="M1843.41 204.527 Q1838.32 204.527 1835.31 208.323 Q1832.32 212.12 1832.32 218.67 Q1832.32 225.198 1835.31 228.994 Q1838.32 232.791 1843.41 232.791 Q1848.5 232.791 1851.46 228.994 Q1854.45 225.198 1854.45 218.67 Q1854.45 212.12 1851.46 208.323 Q1848.5 204.527 1843.41 204.527 M1843.41 200.731 Q1850.68 200.731 1855.03 205.615 Q1859.38 210.476 1859.38 218.67 Q1859.38 226.842 1855.03 231.726 Q1850.68 236.587 1843.41 236.587 Q1836.12 236.587 1831.74 231.726 Q1827.39 226.865 1827.39 218.67 Q1827.39 210.476 1831.74 205.615 Q1836.12 200.731 1843.41 200.731 Z" fill="#000000" fill-rule="evenodd" fill-opacity="1" /><path clip-path="url(#clip650)" d="M1866.07 225.684 L1866.07 209.99 L1870.33 209.99 L1870.33 225.522 Q1870.33 229.203 1871.76 231.055 Q1873.2 232.883 1876.07 232.883 Q1879.52 232.883 1881.51 230.684 Q1883.52 228.485 1883.52 224.689 L1883.52 209.99 L1887.78 209.99 L1887.78 235.916 L1883.52 235.916 L1883.52 231.934 Q1881.97 234.295 1879.91 235.453 Q1877.88 236.587 1875.17 236.587 Q1870.7 236.587 1868.38 233.809 Q1866.07 231.031 1866.07 225.684 M1876.79 209.365 L1876.79 209.365 Z" fill="#000000" fill-rule="evenodd" fill-opacity="1" /><path clip-path="url(#clip650)" d="M1911.58 213.971 Q1910.86 213.555 1910 213.37 Q1909.17 213.161 1908.15 213.161 Q1904.54 213.161 1902.6 215.522 Q1900.68 217.86 1900.68 222.258 L1900.68 235.916 L1896.39 235.916 L1896.39 209.99 L1900.68 209.99 L1900.68 214.018 Q1902.02 211.657 1904.17 210.522 Q1906.32 209.365 1909.4 209.365 Q1909.84 209.365 1910.37 209.434 Q1910.91 209.481 1911.56 209.596 L1911.58 213.971 Z" fill="#000000" fill-rule="evenodd" fill-opacity="1" /><path clip-path="url(#clip650)" d="M1947.69 219.712 Q1949.19 220.221 1950.61 221.888 Q1952.04 223.555 1953.48 226.471 L1958.22 235.916 L1953.2 235.916 L1948.78 227.05 Q1947.06 223.578 1945.44 222.444 Q1943.85 221.309 1941.07 221.309 L1935.98 221.309 L1935.98 235.916 L1931.3 235.916 L1931.3 201.356 L1941.86 201.356 Q1947.78 201.356 1950.7 203.833 Q1953.62 206.309 1953.62 211.309 Q1953.62 214.573 1952.09 216.726 Q1950.58 218.879 1947.69 219.712 M1935.98 205.198 L1935.98 217.467 L1941.86 217.467 Q1945.24 217.467 1946.95 215.916 Q1948.68 214.342 1948.68 211.309 Q1948.68 208.277 1946.95 206.749 Q1945.24 205.198 1941.86 205.198 L1935.98 205.198 Z" fill="#000000" fill-rule="evenodd" fill-opacity="1" /><path clip-path="url(#clip650)" d="M1974.8 222.883 Q1969.63 222.883 1967.64 224.064 Q1965.65 225.244 1965.65 228.092 Q1965.65 230.36 1967.13 231.703 Q1968.64 233.022 1971.21 233.022 Q1974.75 233.022 1976.88 230.522 Q1979.03 227.999 1979.03 223.832 L1979.03 222.883 L1974.8 222.883 M1983.29 221.124 L1983.29 235.916 L1979.03 235.916 L1979.03 231.981 Q1977.57 234.342 1975.4 235.476 Q1973.22 236.587 1970.07 236.587 Q1966.09 236.587 1963.73 234.365 Q1961.39 232.119 1961.39 228.369 Q1961.39 223.994 1964.31 221.772 Q1967.25 219.55 1973.06 219.55 L1979.03 219.55 L1979.03 219.133 Q1979.03 216.194 1977.09 214.596 Q1975.17 212.976 1971.67 212.976 Q1969.45 212.976 1967.34 213.508 Q1965.24 214.041 1963.29 215.106 L1963.29 211.17 Q1965.63 210.268 1967.83 209.828 Q1970.03 209.365 1972.11 209.365 Q1977.74 209.365 1980.51 212.282 Q1983.29 215.198 1983.29 221.124 Z" fill="#000000" fill-rule="evenodd" fill-opacity="1" /><path clip-path="url(#clip650)" d="M2013.62 220.268 L2013.62 235.916 L2009.36 235.916 L2009.36 220.407 Q2009.36 216.726 2007.92 214.897 Q2006.49 213.069 2003.62 213.069 Q2000.17 213.069 1998.18 215.268 Q1996.18 217.467 1996.18 221.263 L1996.18 235.916 L1991.9 235.916 L1991.9 209.99 L1996.18 209.99 L1996.18 214.018 Q1997.71 211.68 1999.77 210.522 Q2001.86 209.365 2004.56 209.365 Q2009.03 209.365 2011.32 212.143 Q2013.62 214.897 2013.62 220.268 Z" fill="#000000" fill-rule="evenodd" fill-opacity="1" /><path clip-path="url(#clip650)" d="M2039.17 213.925 L2039.17 199.897 L2043.43 199.897 L2043.43 235.916 L2039.17 235.916 L2039.17 232.027 Q2037.83 234.342 2035.77 235.476 Q2033.73 236.587 2030.86 236.587 Q2026.16 236.587 2023.2 232.837 Q2020.26 229.087 2020.26 222.976 Q2020.26 216.865 2023.2 213.115 Q2026.16 209.365 2030.86 209.365 Q2033.73 209.365 2035.77 210.499 Q2037.83 211.61 2039.17 213.925 M2024.66 222.976 Q2024.66 227.675 2026.58 230.36 Q2028.52 233.022 2031.9 233.022 Q2035.28 233.022 2037.23 230.36 Q2039.17 227.675 2039.17 222.976 Q2039.17 218.277 2037.23 215.615 Q2035.28 212.93 2031.9 212.93 Q2028.52 212.93 2026.58 215.615 Q2024.66 218.277 2024.66 222.976 Z" fill="#000000" fill-rule="evenodd" fill-opacity="1" /><path clip-path="url(#clip650)" d="M2062.25 212.976 Q2058.82 212.976 2056.83 215.661 Q2054.84 218.323 2054.84 222.976 Q2054.84 227.629 2056.81 230.314 Q2058.8 232.976 2062.25 232.976 Q2065.65 232.976 2067.64 230.291 Q2069.63 227.606 2069.63 222.976 Q2069.63 218.37 2067.64 215.684 Q2065.65 212.976 2062.25 212.976 M2062.25 209.365 Q2067.8 209.365 2070.98 212.976 Q2074.15 216.587 2074.15 222.976 Q2074.15 229.342 2070.98 232.976 Q2067.8 236.587 2062.25 236.587 Q2056.67 236.587 2053.5 232.976 Q2050.35 229.342 2050.35 222.976 Q2050.35 216.587 2053.5 212.976 Q2056.67 209.365 2062.25 209.365 Z" fill="#000000" fill-rule="evenodd" fill-opacity="1" /><path clip-path="url(#clip650)" d="M2101.39 214.967 Q2102.99 212.096 2105.21 210.731 Q2107.43 209.365 2110.44 209.365 Q2114.49 209.365 2116.69 212.212 Q2118.89 215.036 2118.89 220.268 L2118.89 235.916 L2114.61 235.916 L2114.61 220.407 Q2114.61 216.68 2113.29 214.874 Q2111.97 213.069 2109.26 213.069 Q2105.95 213.069 2104.03 215.268 Q2102.11 217.467 2102.11 221.263 L2102.11 235.916 L2097.83 235.916 L2097.83 220.407 Q2097.83 216.657 2096.51 214.874 Q2095.19 213.069 2092.43 213.069 Q2089.17 213.069 2087.25 215.291 Q2085.33 217.49 2085.33 221.263 L2085.33 235.916 L2081.05 235.916 L2081.05 209.99 L2085.33 209.99 L2085.33 214.018 Q2086.79 211.633 2088.82 210.499 Q2090.86 209.365 2093.66 209.365 Q2096.48 209.365 2098.45 210.8 Q2100.44 212.235 2101.39 214.967 Z" fill="#000000" fill-rule="evenodd" fill-opacity="1" /><path clip-path="url(#clip650)" d="M2142.64 201.356 L2147.32 201.356 L2147.32 231.981 L2164.15 231.981 L2164.15 235.916 L2142.64 235.916 L2142.64 201.356 Z" fill="#000000" fill-rule="evenodd" fill-opacity="1" /><path clip-path="url(#clip650)" d="M2168.87 209.99 L2173.13 209.99 L2173.13 235.916 L2168.87 235.916 L2168.87 209.99 M2168.87 199.897 L2173.13 199.897 L2173.13 205.291 L2168.87 205.291 L2168.87 199.897 Z" fill="#000000" fill-rule="evenodd" fill-opacity="1" /><path clip-path="url(#clip650)" d="M2203.59 220.268 L2203.59 235.916 L2199.33 235.916 L2199.33 220.407 Q2199.33 216.726 2197.9 214.897 Q2196.46 213.069 2193.59 213.069 Q2190.14 213.069 2188.15 215.268 Q2186.16 217.467 2186.16 221.263 L2186.16 235.916 L2181.88 235.916 L2181.88 209.99 L2186.16 209.99 L2186.16 214.018 Q2187.69 211.68 2189.75 210.522 Q2191.83 209.365 2194.54 209.365 Q2199.01 209.365 2201.3 212.143 Q2203.59 214.897 2203.59 220.268 Z" fill="#000000" fill-rule="evenodd" fill-opacity="1" /><path clip-path="url(#clip650)" d="M2234.26 221.888 L2234.26 223.971 L2214.68 223.971 Q2214.96 228.369 2217.32 230.684 Q2219.7 232.976 2223.94 232.976 Q2226.39 232.976 2228.68 232.374 Q2231 231.772 2233.27 230.569 L2233.27 234.596 Q2230.98 235.568 2228.57 236.078 Q2226.16 236.587 2223.68 236.587 Q2217.48 236.587 2213.85 232.976 Q2210.23 229.365 2210.23 223.207 Q2210.23 216.842 2213.66 213.115 Q2217.11 209.365 2222.94 209.365 Q2228.17 209.365 2231.21 212.745 Q2234.26 216.101 2234.26 221.888 M2230 220.638 Q2229.96 217.143 2228.04 215.059 Q2226.14 212.976 2222.99 212.976 Q2219.42 212.976 2217.27 214.99 Q2215.14 217.004 2214.82 220.661 L2230 220.638 Z" fill="#000000" fill-rule="evenodd" fill-opacity="1" /></svg>
