<?xml version="1.0" encoding="utf-8"?>
<svg xmlns="http://www.w3.org/2000/svg" xmlns:xlink="http://www.w3.org/1999/xlink" width="600" height="400" viewBox="0 0 2400 1600">
<defs>
  <clipPath id="clip470">
    <rect x="0" y="0" width="2400" height="1600"/>
  </clipPath>
</defs>
<path clip-path="url(#clip470)" d="
M0 1600 L2400 1600 L2400 0 L0 0  Z
  " fill="#ffffff" fill-rule="evenodd" fill-opacity="1"/>
<defs>
  <clipPath id="clip471">
    <rect x="480" y="0" width="1681" height="1600"/>
  </clipPath>
</defs>
<path clip-path="url(#clip470)" d="
M219.866 1423.18 L2352.76 1423.18 L2352.76 123.472 L219.866 123.472  Z
  " fill="#ffffff" fill-rule="evenodd" fill-opacity="1"/>
<defs>
  <clipPath id="clip472">
    <rect x="219" y="123" width="2134" height="1301"/>
  </clipPath>
</defs>
<polyline clip-path="url(#clip472)" style="stroke:#000000; stroke-linecap:butt; stroke-linejoin:round; stroke-width:2; stroke-opacity:0.1; fill:none" points="
  503.804,1423.18 503.804,123.472 
  "/>
<polyline clip-path="url(#clip472)" style="stroke:#000000; stroke-linecap:butt; stroke-linejoin:round; stroke-width:2; stroke-opacity:0.1; fill:none" points="
  950.951,1423.18 950.951,123.472 
  "/>
<polyline clip-path="url(#clip472)" style="stroke:#000000; stroke-linecap:butt; stroke-linejoin:round; stroke-width:2; stroke-opacity:0.1; fill:none" points="
  1398.1,1423.18 1398.1,123.472 
  "/>
<polyline clip-path="url(#clip472)" style="stroke:#000000; stroke-linecap:butt; stroke-linejoin:round; stroke-width:2; stroke-opacity:0.1; fill:none" points="
  1845.24,1423.18 1845.24,123.472 
  "/>
<polyline clip-path="url(#clip472)" style="stroke:#000000; stroke-linecap:butt; stroke-linejoin:round; stroke-width:2; stroke-opacity:0.1; fill:none" points="
  2292.39,1423.18 2292.39,123.472 
  "/>
<polyline clip-path="url(#clip470)" style="stroke:#000000; stroke-linecap:butt; stroke-linejoin:round; stroke-width:4; stroke-opacity:1; fill:none" points="
  219.866,1423.18 2352.76,1423.18 
  "/>
<polyline clip-path="url(#clip470)" style="stroke:#000000; stroke-linecap:butt; stroke-linejoin:round; stroke-width:4; stroke-opacity:1; fill:none" points="
  503.804,1423.18 503.804,1404.28 
  "/>
<polyline clip-path="url(#clip470)" style="stroke:#000000; stroke-linecap:butt; stroke-linejoin:round; stroke-width:4; stroke-opacity:1; fill:none" points="
  950.951,1423.18 950.951,1404.28 
  "/>
<polyline clip-path="url(#clip470)" style="stroke:#000000; stroke-linecap:butt; stroke-linejoin:round; stroke-width:4; stroke-opacity:1; fill:none" points="
  1398.1,1423.18 1398.1,1404.28 
  "/>
<polyline clip-path="url(#clip470)" style="stroke:#000000; stroke-linecap:butt; stroke-linejoin:round; stroke-width:4; stroke-opacity:1; fill:none" points="
  1845.24,1423.18 1845.24,1404.28 
  "/>
<polyline clip-path="url(#clip470)" style="stroke:#000000; stroke-linecap:butt; stroke-linejoin:round; stroke-width:4; stroke-opacity:1; fill:none" points="
  2292.39,1423.18 2292.39,1404.28 
  "/>
<path clip-path="url(#clip470)" d="M498.457 1481.64 L514.777 1481.64 L514.777 1485.58 L492.832 1485.58 L492.832 1481.64 Q495.494 1478.89 500.078 1474.26 Q504.684 1469.61 505.865 1468.27 Q508.11 1465.74 508.99 1464.01 Q509.892 1462.25 509.892 1460.56 Q509.892 1457.8 507.948 1456.07 Q506.027 1454.33 502.925 1454.33 Q500.726 1454.33 498.272 1455.09 Q495.841 1455.86 493.064 1457.41 L493.064 1452.69 Q495.888 1451.55 498.341 1450.97 Q500.795 1450.39 502.832 1450.39 Q508.203 1450.39 511.397 1453.08 Q514.591 1455.77 514.591 1460.26 Q514.591 1462.39 513.781 1464.31 Q512.994 1466.2 510.888 1468.8 Q510.309 1469.47 507.207 1472.69 Q504.105 1475.88 498.457 1481.64 Z" fill="#000000" fill-rule="evenodd" fill-opacity="1" /><path clip-path="url(#clip470)" d="M953.96 1455.09 L942.155 1473.54 L953.96 1473.54 L953.96 1455.09 M952.733 1451.02 L958.613 1451.02 L958.613 1473.54 L963.544 1473.54 L963.544 1477.43 L958.613 1477.43 L958.613 1485.58 L953.96 1485.58 L953.96 1477.43 L938.359 1477.43 L938.359 1472.92 L952.733 1451.02 Z" fill="#000000" fill-rule="evenodd" fill-opacity="1" /><path clip-path="url(#clip470)" d="M1398.5 1466.44 Q1395.35 1466.44 1393.5 1468.59 Q1391.67 1470.74 1391.67 1474.49 Q1391.67 1478.22 1393.5 1480.39 Q1395.35 1482.55 1398.5 1482.55 Q1401.65 1482.55 1403.48 1480.39 Q1405.33 1478.22 1405.33 1474.49 Q1405.33 1470.74 1403.48 1468.59 Q1401.65 1466.44 1398.5 1466.44 M1407.79 1451.78 L1407.79 1456.04 Q1406.03 1455.21 1404.22 1454.77 Q1402.44 1454.33 1400.68 1454.33 Q1396.05 1454.33 1393.6 1457.45 Q1391.16 1460.58 1390.82 1466.9 Q1392.18 1464.89 1394.24 1463.82 Q1396.3 1462.73 1398.78 1462.73 Q1403.99 1462.73 1407 1465.9 Q1410.03 1469.05 1410.03 1474.49 Q1410.03 1479.82 1406.88 1483.03 Q1403.73 1486.25 1398.5 1486.25 Q1392.51 1486.25 1389.34 1481.67 Q1386.16 1477.06 1386.16 1468.33 Q1386.16 1460.14 1390.05 1455.28 Q1393.94 1450.39 1400.49 1450.39 Q1402.25 1450.39 1404.04 1450.74 Q1405.84 1451.09 1407.79 1451.78 Z" fill="#000000" fill-rule="evenodd" fill-opacity="1" /><path clip-path="url(#clip470)" d="M1845.24 1469.17 Q1841.91 1469.17 1839.99 1470.95 Q1838.09 1472.73 1838.09 1475.86 Q1838.09 1478.98 1839.99 1480.77 Q1841.91 1482.55 1845.24 1482.55 Q1848.58 1482.55 1850.5 1480.77 Q1852.42 1478.96 1852.42 1475.86 Q1852.42 1472.73 1850.5 1470.95 Q1848.6 1469.17 1845.24 1469.17 M1840.57 1467.18 Q1837.56 1466.44 1835.87 1464.38 Q1834.2 1462.32 1834.2 1459.35 Q1834.2 1455.21 1837.14 1452.8 Q1840.11 1450.39 1845.24 1450.39 Q1850.41 1450.39 1853.35 1452.8 Q1856.29 1455.21 1856.29 1459.35 Q1856.29 1462.32 1854.6 1464.38 Q1852.93 1466.44 1849.94 1467.18 Q1853.32 1467.96 1855.2 1470.26 Q1857.1 1472.55 1857.1 1475.86 Q1857.1 1480.88 1854.02 1483.57 Q1850.96 1486.25 1845.24 1486.25 Q1839.53 1486.25 1836.45 1483.57 Q1833.39 1480.88 1833.39 1475.86 Q1833.39 1472.55 1835.29 1470.26 Q1837.19 1467.96 1840.57 1467.18 M1838.86 1459.79 Q1838.86 1462.48 1840.52 1463.98 Q1842.21 1465.49 1845.24 1465.49 Q1848.25 1465.49 1849.94 1463.98 Q1851.66 1462.48 1851.66 1459.79 Q1851.66 1457.11 1849.94 1455.6 Q1848.25 1454.1 1845.24 1454.1 Q1842.21 1454.1 1840.52 1455.6 Q1838.86 1457.11 1838.86 1459.79 Z" fill="#000000" fill-rule="evenodd" fill-opacity="1" /><path clip-path="url(#clip470)" d="M2267.08 1481.64 L2274.72 1481.64 L2274.72 1455.28 L2266.41 1456.95 L2266.41 1452.69 L2274.67 1451.02 L2279.35 1451.02 L2279.35 1481.64 L2286.99 1481.64 L2286.99 1485.58 L2267.08 1485.58 L2267.08 1481.64 Z" fill="#000000" fill-rule="evenodd" fill-opacity="1" /><path clip-path="url(#clip470)" d="M2306.43 1454.1 Q2302.82 1454.1 2300.99 1457.66 Q2299.19 1461.2 2299.19 1468.33 Q2299.19 1475.44 2300.99 1479.01 Q2302.82 1482.55 2306.43 1482.55 Q2310.06 1482.55 2311.87 1479.01 Q2313.7 1475.44 2313.7 1468.33 Q2313.7 1461.2 2311.87 1457.66 Q2310.06 1454.1 2306.43 1454.1 M2306.43 1450.39 Q2312.24 1450.39 2315.3 1455 Q2318.37 1459.58 2318.37 1468.33 Q2318.37 1477.06 2315.3 1481.67 Q2312.24 1486.25 2306.43 1486.25 Q2300.62 1486.25 2297.54 1481.67 Q2294.49 1477.06 2294.49 1468.33 Q2294.49 1459.58 2297.54 1455 Q2300.62 1450.39 2306.43 1450.39 Z" fill="#000000" fill-rule="evenodd" fill-opacity="1" /><path clip-path="url(#clip470)" d="M1154.62 1520.52 L1161.53 1520.52 L1173.34 1538.19 L1185.21 1520.52 L1192.11 1520.52 L1176.84 1543.34 L1193.13 1568.04 L1186.23 1568.04 L1172.86 1547.83 L1159.39 1568.04 L1152.46 1568.04 L1169.42 1542.68 L1154.62 1520.52 Z" fill="#000000" fill-rule="evenodd" fill-opacity="1" /><path clip-path="url(#clip470)" d="M1222.29 1520.52 L1228.72 1520.52 L1228.72 1562.63 L1251.86 1562.63 L1251.86 1568.04 L1222.29 1568.04 L1222.29 1520.52 Z" fill="#000000" fill-rule="evenodd" fill-opacity="1" /><path clip-path="url(#clip470)" d="M1275.98 1526.86 L1267.26 1550.51 L1284.74 1550.51 L1275.98 1526.86 M1272.35 1520.52 L1279.64 1520.52 L1297.75 1568.04 L1291.07 1568.04 L1286.74 1555.85 L1265.32 1555.85 L1260.99 1568.04 L1254.21 1568.04 L1272.35 1520.52 Z" fill="#000000" fill-rule="evenodd" fill-opacity="1" /><path clip-path="url(#clip470)" d="M1311.12 1545.35 L1311.12 1562.76 L1321.43 1562.76 Q1326.62 1562.76 1329.1 1560.63 Q1331.62 1558.46 1331.62 1554.04 Q1331.62 1549.58 1329.1 1547.48 Q1326.62 1545.35 1321.43 1545.35 L1311.12 1545.35 M1311.12 1525.81 L1311.12 1540.13 L1320.64 1540.13 Q1325.35 1540.13 1327.64 1538.38 Q1329.96 1536.6 1329.96 1532.97 Q1329.96 1529.37 1327.64 1527.59 Q1325.35 1525.81 1320.64 1525.81 L1311.12 1525.81 M1304.69 1520.52 L1321.12 1520.52 Q1328.47 1520.52 1332.45 1523.58 Q1336.43 1526.63 1336.43 1532.27 Q1336.43 1536.63 1334.39 1539.21 Q1332.35 1541.79 1328.4 1542.42 Q1333.15 1543.44 1335.76 1546.69 Q1338.4 1549.9 1338.4 1554.74 Q1338.4 1561.11 1334.07 1564.57 Q1329.74 1568.04 1321.75 1568.04 L1304.69 1568.04 L1304.69 1520.52 Z" fill="#000000" fill-rule="evenodd" fill-opacity="1" /><path clip-path="url(#clip470)" d="M1349.41 1520.52 L1379.46 1520.52 L1379.46 1525.93 L1355.84 1525.93 L1355.84 1540 L1378.47 1540 L1378.47 1545.41 L1355.84 1545.41 L1355.84 1562.63 L1380.03 1562.63 L1380.03 1568.04 L1349.41 1568.04 L1349.41 1520.52 Z" fill="#000000" fill-rule="evenodd" fill-opacity="1" /><path clip-path="url(#clip470)" d="M1390.6 1520.52 L1397.03 1520.52 L1397.03 1562.63 L1420.17 1562.63 L1420.17 1568.04 L1390.6 1568.04 L1390.6 1520.52 Z" fill="#000000" fill-rule="evenodd" fill-opacity="1" /><polyline clip-path="url(#clip472)" style="stroke:#000000; stroke-linecap:butt; stroke-linejoin:round; stroke-width:2; stroke-opacity:0.1; fill:none" points="
  219.866,1268.34 2352.76,1268.34 
  "/>
<polyline clip-path="url(#clip472)" style="stroke:#000000; stroke-linecap:butt; stroke-linejoin:round; stroke-width:2; stroke-opacity:0.1; fill:none" points="
  219.866,1098.35 2352.76,1098.35 
  "/>
<polyline clip-path="url(#clip472)" style="stroke:#000000; stroke-linecap:butt; stroke-linejoin:round; stroke-width:2; stroke-opacity:0.1; fill:none" points="
  219.866,928.365 2352.76,928.365 
  "/>
<polyline clip-path="url(#clip472)" style="stroke:#000000; stroke-linecap:butt; stroke-linejoin:round; stroke-width:2; stroke-opacity:0.1; fill:none" points="
  219.866,758.379 2352.76,758.379 
  "/>
<polyline clip-path="url(#clip472)" style="stroke:#000000; stroke-linecap:butt; stroke-linejoin:round; stroke-width:2; stroke-opacity:0.1; fill:none" points="
  219.866,588.394 2352.76,588.394 
  "/>
<polyline clip-path="url(#clip472)" style="stroke:#000000; stroke-linecap:butt; stroke-linejoin:round; stroke-width:2; stroke-opacity:0.1; fill:none" points="
  219.866,418.408 2352.76,418.408 
  "/>
<polyline clip-path="url(#clip472)" style="stroke:#000000; stroke-linecap:butt; stroke-linejoin:round; stroke-width:2; stroke-opacity:0.1; fill:none" points="
  219.866,248.423 2352.76,248.423 
  "/>
<polyline clip-path="url(#clip470)" style="stroke:#000000; stroke-linecap:butt; stroke-linejoin:round; stroke-width:4; stroke-opacity:1; fill:none" points="
  219.866,1423.18 219.866,123.472 
  "/>
<polyline clip-path="url(#clip470)" style="stroke:#000000; stroke-linecap:butt; stroke-linejoin:round; stroke-width:4; stroke-opacity:1; fill:none" points="
  219.866,1268.34 238.764,1268.34 
  "/>
<polyline clip-path="url(#clip470)" style="stroke:#000000; stroke-linecap:butt; stroke-linejoin:round; stroke-width:4; stroke-opacity:1; fill:none" points="
  219.866,1098.35 238.764,1098.35 
  "/>
<polyline clip-path="url(#clip470)" style="stroke:#000000; stroke-linecap:butt; stroke-linejoin:round; stroke-width:4; stroke-opacity:1; fill:none" points="
  219.866,928.365 238.764,928.365 
  "/>
<polyline clip-path="url(#clip470)" style="stroke:#000000; stroke-linecap:butt; stroke-linejoin:round; stroke-width:4; stroke-opacity:1; fill:none" points="
  219.866,758.379 238.764,758.379 
  "/>
<polyline clip-path="url(#clip470)" style="stroke:#000000; stroke-linecap:butt; stroke-linejoin:round; stroke-width:4; stroke-opacity:1; fill:none" points="
  219.866,588.394 238.764,588.394 
  "/>
<polyline clip-path="url(#clip470)" style="stroke:#000000; stroke-linecap:butt; stroke-linejoin:round; stroke-width:4; stroke-opacity:1; fill:none" points="
  219.866,418.408 238.764,418.408 
  "/>
<polyline clip-path="url(#clip470)" style="stroke:#000000; stroke-linecap:butt; stroke-linejoin:round; stroke-width:4; stroke-opacity:1; fill:none" points="
  219.866,248.423 238.764,248.423 
  "/>
<path clip-path="url(#clip470)" d="M127.917 1254.13 Q124.306 1254.13 122.478 1257.7 Q120.672 1261.24 120.672 1268.37 Q120.672 1275.48 122.478 1279.04 Q124.306 1282.58 127.917 1282.58 Q131.552 1282.58 133.357 1279.04 Q135.186 1275.48 135.186 1268.37 Q135.186 1261.24 133.357 1257.7 Q131.552 1254.13 127.917 1254.13 M127.917 1250.43 Q133.728 1250.43 136.783 1255.04 Q139.862 1259.62 139.862 1268.37 Q139.862 1277.1 136.783 1281.7 Q133.728 1286.29 127.917 1286.29 Q122.107 1286.29 119.029 1281.7 Q115.973 1277.1 115.973 1268.37 Q115.973 1259.62 119.029 1255.04 Q122.107 1250.43 127.917 1250.43 Z" fill="#000000" fill-rule="evenodd" fill-opacity="1" /><path clip-path="url(#clip470)" d="M148.079 1279.74 L152.964 1279.74 L152.964 1285.62 L148.079 1285.62 L148.079 1279.74 Z" fill="#000000" fill-rule="evenodd" fill-opacity="1" /><path clip-path="url(#clip470)" d="M163.959 1281.68 L171.598 1281.68 L171.598 1255.32 L163.288 1256.98 L163.288 1252.72 L171.552 1251.06 L176.227 1251.06 L176.227 1281.68 L183.866 1281.68 L183.866 1285.62 L163.959 1285.62 L163.959 1281.68 Z" fill="#000000" fill-rule="evenodd" fill-opacity="1" /><path clip-path="url(#clip470)" d="M128.288 1084.15 Q124.677 1084.15 122.848 1087.71 Q121.043 1091.26 121.043 1098.39 Q121.043 1105.49 122.848 1109.06 Q124.677 1112.6 128.288 1112.6 Q131.922 1112.6 133.728 1109.06 Q135.556 1105.49 135.556 1098.39 Q135.556 1091.26 133.728 1087.71 Q131.922 1084.15 128.288 1084.15 M128.288 1080.45 Q134.098 1080.45 137.154 1085.05 Q140.232 1089.64 140.232 1098.39 Q140.232 1107.11 137.154 1111.72 Q134.098 1116.3 128.288 1116.3 Q122.478 1116.3 119.399 1111.72 Q116.343 1107.11 116.343 1098.39 Q116.343 1089.64 119.399 1085.05 Q122.478 1080.45 128.288 1080.45 Z" fill="#000000" fill-rule="evenodd" fill-opacity="1" /><path clip-path="url(#clip470)" d="M148.45 1109.75 L153.334 1109.75 L153.334 1115.63 L148.45 1115.63 L148.45 1109.75 Z" fill="#000000" fill-rule="evenodd" fill-opacity="1" /><path clip-path="url(#clip470)" d="M167.547 1111.7 L183.866 1111.7 L183.866 1115.63 L161.922 1115.63 L161.922 1111.7 Q164.584 1108.94 169.167 1104.31 Q173.774 1099.66 174.954 1098.32 Q177.2 1095.79 178.079 1094.06 Q178.982 1092.3 178.982 1090.61 Q178.982 1087.85 177.038 1086.12 Q175.116 1084.38 172.014 1084.38 Q169.815 1084.38 167.362 1085.14 Q164.931 1085.91 162.153 1087.46 L162.153 1082.74 Q164.977 1081.6 167.431 1081.02 Q169.885 1080.45 171.922 1080.45 Q177.292 1080.45 180.487 1083.13 Q183.681 1085.82 183.681 1090.31 Q183.681 1092.44 182.871 1094.36 Q182.084 1096.26 179.977 1098.85 Q179.399 1099.52 176.297 1102.74 Q173.195 1105.93 167.547 1111.7 Z" fill="#000000" fill-rule="evenodd" fill-opacity="1" /><path clip-path="url(#clip470)" d="M127.339 914.164 Q123.728 914.164 121.899 917.728 Q120.093 921.27 120.093 928.4 Q120.093 935.506 121.899 939.071 Q123.728 942.613 127.339 942.613 Q130.973 942.613 132.779 939.071 Q134.607 935.506 134.607 928.4 Q134.607 921.27 132.779 917.728 Q130.973 914.164 127.339 914.164 M127.339 910.46 Q133.149 910.46 136.204 915.066 Q139.283 919.65 139.283 928.4 Q139.283 937.127 136.204 941.733 Q133.149 946.316 127.339 946.316 Q121.529 946.316 118.45 941.733 Q115.394 937.127 115.394 928.4 Q115.394 919.65 118.45 915.066 Q121.529 910.46 127.339 910.46 Z" fill="#000000" fill-rule="evenodd" fill-opacity="1" /><path clip-path="url(#clip470)" d="M147.501 939.765 L152.385 939.765 L152.385 945.645 L147.501 945.645 L147.501 939.765 Z" fill="#000000" fill-rule="evenodd" fill-opacity="1" /><path clip-path="url(#clip470)" d="M176.737 927.011 Q180.093 927.728 181.968 929.997 Q183.866 932.265 183.866 935.599 Q183.866 940.714 180.348 943.515 Q176.829 946.316 170.348 946.316 Q168.172 946.316 165.857 945.876 Q163.565 945.46 161.112 944.603 L161.112 940.089 Q163.056 941.224 165.371 941.802 Q167.686 942.381 170.209 942.381 Q174.607 942.381 176.899 940.645 Q179.214 938.909 179.214 935.599 Q179.214 932.543 177.061 930.83 Q174.931 929.094 171.112 929.094 L167.084 929.094 L167.084 925.252 L171.297 925.252 Q174.746 925.252 176.575 923.886 Q178.403 922.497 178.403 919.904 Q178.403 917.242 176.505 915.83 Q174.63 914.395 171.112 914.395 Q169.19 914.395 166.991 914.812 Q164.792 915.228 162.153 916.108 L162.153 911.941 Q164.815 911.201 167.13 910.83 Q169.468 910.46 171.528 910.46 Q176.852 910.46 179.954 912.891 Q183.056 915.298 183.056 919.418 Q183.056 922.289 181.413 924.279 Q179.769 926.247 176.737 927.011 Z" fill="#000000" fill-rule="evenodd" fill-opacity="1" /><path clip-path="url(#clip470)" d="M126.205 744.178 Q122.593 744.178 120.765 747.743 Q118.959 751.285 118.959 758.414 Q118.959 765.521 120.765 769.085 Q122.593 772.627 126.205 772.627 Q129.839 772.627 131.644 769.085 Q133.473 765.521 133.473 758.414 Q133.473 751.285 131.644 747.743 Q129.839 744.178 126.205 744.178 M126.205 740.474 Q132.015 740.474 135.07 745.081 Q138.149 749.664 138.149 758.414 Q138.149 767.141 135.07 771.747 Q132.015 776.331 126.205 776.331 Q120.394 776.331 117.316 771.747 Q114.26 767.141 114.26 758.414 Q114.26 749.664 117.316 745.081 Q120.394 740.474 126.205 740.474 Z" fill="#000000" fill-rule="evenodd" fill-opacity="1" /><path clip-path="url(#clip470)" d="M146.366 769.78 L151.251 769.78 L151.251 775.659 L146.366 775.659 L146.366 769.78 Z" fill="#000000" fill-rule="evenodd" fill-opacity="1" /><path clip-path="url(#clip470)" d="M174.283 745.173 L162.477 763.622 L174.283 763.622 L174.283 745.173 M173.056 741.099 L178.936 741.099 L178.936 763.622 L183.866 763.622 L183.866 767.511 L178.936 767.511 L178.936 775.659 L174.283 775.659 L174.283 767.511 L158.681 767.511 L158.681 762.997 L173.056 741.099 Z" fill="#000000" fill-rule="evenodd" fill-opacity="1" /><path clip-path="url(#clip470)" d="M127.686 574.192 Q124.075 574.192 122.246 577.757 Q120.441 581.299 120.441 588.429 Q120.441 595.535 122.246 599.1 Q124.075 602.641 127.686 602.641 Q131.32 602.641 133.126 599.1 Q134.954 595.535 134.954 588.429 Q134.954 581.299 133.126 577.757 Q131.32 574.192 127.686 574.192 M127.686 570.489 Q133.496 570.489 136.552 575.095 Q139.63 579.679 139.63 588.429 Q139.63 597.155 136.552 601.762 Q133.496 606.345 127.686 606.345 Q121.876 606.345 118.797 601.762 Q115.742 597.155 115.742 588.429 Q115.742 579.679 118.797 575.095 Q121.876 570.489 127.686 570.489 Z" fill="#000000" fill-rule="evenodd" fill-opacity="1" /><path clip-path="url(#clip470)" d="M147.848 599.794 L152.732 599.794 L152.732 605.674 L147.848 605.674 L147.848 599.794 Z" fill="#000000" fill-rule="evenodd" fill-opacity="1" /><path clip-path="url(#clip470)" d="M162.964 571.114 L181.32 571.114 L181.32 575.049 L167.246 575.049 L167.246 583.521 Q168.264 583.174 169.283 583.012 Q170.302 582.827 171.32 582.827 Q177.107 582.827 180.487 585.998 Q183.866 589.169 183.866 594.586 Q183.866 600.165 180.394 603.266 Q176.922 606.345 170.602 606.345 Q168.427 606.345 166.158 605.975 Q163.913 605.604 161.505 604.864 L161.505 600.165 Q163.589 601.299 165.811 601.854 Q168.033 602.41 170.51 602.41 Q174.514 602.41 176.852 600.303 Q179.19 598.197 179.19 594.586 Q179.19 590.975 176.852 588.868 Q174.514 586.762 170.51 586.762 Q168.635 586.762 166.76 587.179 Q164.908 587.595 162.964 588.475 L162.964 571.114 Z" fill="#000000" fill-rule="evenodd" fill-opacity="1" /><path clip-path="url(#clip470)" d="M126.529 404.207 Q122.918 404.207 121.089 407.772 Q119.283 411.313 119.283 418.443 Q119.283 425.549 121.089 429.114 Q122.918 432.656 126.529 432.656 Q130.163 432.656 131.968 429.114 Q133.797 425.549 133.797 418.443 Q133.797 411.313 131.968 407.772 Q130.163 404.207 126.529 404.207 M126.529 400.503 Q132.339 400.503 135.394 405.11 Q138.473 409.693 138.473 418.443 Q138.473 427.17 135.394 431.776 Q132.339 436.359 126.529 436.359 Q120.718 436.359 117.64 431.776 Q114.584 427.17 114.584 418.443 Q114.584 409.693 117.64 405.11 Q120.718 400.503 126.529 400.503 Z" fill="#000000" fill-rule="evenodd" fill-opacity="1" /><path clip-path="url(#clip470)" d="M146.691 429.809 L151.575 429.809 L151.575 435.688 L146.691 435.688 L146.691 429.809 Z" fill="#000000" fill-rule="evenodd" fill-opacity="1" /><path clip-path="url(#clip470)" d="M172.339 416.545 Q169.19 416.545 167.339 418.698 Q165.51 420.85 165.51 424.6 Q165.51 428.327 167.339 430.503 Q169.19 432.656 172.339 432.656 Q175.487 432.656 177.315 430.503 Q179.167 428.327 179.167 424.6 Q179.167 420.85 177.315 418.698 Q175.487 416.545 172.339 416.545 M181.621 401.892 L181.621 406.151 Q179.862 405.318 178.056 404.878 Q176.274 404.438 174.514 404.438 Q169.885 404.438 167.431 407.563 Q165.001 410.688 164.653 417.008 Q166.019 414.994 168.079 413.929 Q170.139 412.841 172.616 412.841 Q177.825 412.841 180.834 416.012 Q183.866 419.16 183.866 424.6 Q183.866 429.924 180.718 433.142 Q177.57 436.359 172.339 436.359 Q166.343 436.359 163.172 431.776 Q160.001 427.17 160.001 418.443 Q160.001 410.249 163.89 405.387 Q167.778 400.503 174.329 400.503 Q176.089 400.503 177.871 400.85 Q179.676 401.198 181.621 401.892 Z" fill="#000000" fill-rule="evenodd" fill-opacity="1" /><path clip-path="url(#clip470)" d="M127.593 234.221 Q123.982 234.221 122.154 237.786 Q120.348 241.328 120.348 248.457 Q120.348 255.564 122.154 259.129 Q123.982 262.67 127.593 262.67 Q131.228 262.67 133.033 259.129 Q134.862 255.564 134.862 248.457 Q134.862 241.328 133.033 237.786 Q131.228 234.221 127.593 234.221 M127.593 230.518 Q133.404 230.518 136.459 235.124 Q139.538 239.707 139.538 248.457 Q139.538 257.184 136.459 261.791 Q133.404 266.374 127.593 266.374 Q121.783 266.374 118.705 261.791 Q115.649 257.184 115.649 248.457 Q115.649 239.707 118.705 235.124 Q121.783 230.518 127.593 230.518 Z" fill="#000000" fill-rule="evenodd" fill-opacity="1" /><path clip-path="url(#clip470)" d="M147.755 259.823 L152.64 259.823 L152.64 265.703 L147.755 265.703 L147.755 259.823 Z" fill="#000000" fill-rule="evenodd" fill-opacity="1" /><path clip-path="url(#clip470)" d="M161.644 231.143 L183.866 231.143 L183.866 233.133 L171.32 265.703 L166.436 265.703 L178.241 235.078 L161.644 235.078 L161.644 231.143 Z" fill="#000000" fill-rule="evenodd" fill-opacity="1" /><path clip-path="url(#clip470)" d="M16.4842 905.796 L16.4842 898.89 L36.0269 885.713 L16.4842 872.631 L16.4842 865.724 L41.3741 882.53 L64.0042 882.53 L64.0042 888.991 L41.3741 888.991 L16.4842 905.796 Z" fill="#000000" fill-rule="evenodd" fill-opacity="1" /><path clip-path="url(#clip470)" d="M16.4842 838.734 L16.4842 832.304 L58.5933 832.304 L58.5933 809.165 L64.0042 809.165 L64.0042 838.734 L16.4842 838.734 Z" fill="#000000" fill-rule="evenodd" fill-opacity="1" /><path clip-path="url(#clip470)" d="M22.818 785.039 L46.4666 793.76 L46.4666 776.286 L22.818 785.039 M16.4842 788.667 L16.4842 781.379 L64.0042 763.268 L64.0042 769.952 L51.8138 774.281 L51.8138 795.701 L64.0042 800.03 L64.0042 806.81 L16.4842 788.667 Z" fill="#000000" fill-rule="evenodd" fill-opacity="1" /><path clip-path="url(#clip470)" d="M41.3104 749.9 L58.7206 749.9 L58.7206 739.588 Q58.7206 734.4 56.5881 731.917 Q54.4238 729.403 49.9996 729.403 Q45.5436 729.403 43.4429 731.917 Q41.3104 734.4 41.3104 739.588 L41.3104 749.9 M21.7677 749.9 L36.0905 749.9 L36.0905 740.383 Q36.0905 735.673 34.34 733.381 Q32.5576 731.058 28.9291 731.058 Q25.3325 731.058 23.5501 733.381 Q21.7677 735.673 21.7677 740.383 L21.7677 749.9 M16.4842 756.33 L16.4842 739.906 Q16.4842 732.554 19.5397 728.575 Q22.5952 724.596 28.2289 724.596 Q32.5894 724.596 35.1675 726.634 Q37.7456 728.671 38.3822 732.617 Q39.4007 727.875 42.6472 725.265 Q45.8619 722.623 50.6998 722.623 Q57.0655 722.623 60.5348 726.952 Q64.0042 731.28 64.0042 739.269 L64.0042 756.33 L16.4842 756.33 Z" fill="#000000" fill-rule="evenodd" fill-opacity="1" /><path clip-path="url(#clip470)" d="M16.4842 711.61 L16.4842 681.564 L21.895 681.564 L21.895 705.181 L35.9632 705.181 L35.9632 682.551 L41.3741 682.551 L41.3741 705.181 L58.5933 705.181 L58.5933 680.991 L64.0042 680.991 L64.0042 711.61 L16.4842 711.61 Z" fill="#000000" fill-rule="evenodd" fill-opacity="1" /><path clip-path="url(#clip470)" d="M16.4842 670.424 L16.4842 663.995 L58.5933 663.995 L58.5933 640.856 L64.0042 640.856 L64.0042 670.424 L16.4842 670.424 Z" fill="#000000" fill-rule="evenodd" fill-opacity="1" /><path clip-path="url(#clip470)" d="M944.719 44.2197 Q947.352 45.1109 949.823 48.0275 Q952.334 50.9442 954.846 56.0483 L963.15 72.576 L954.36 72.576 L946.623 57.061 Q943.625 50.9847 940.789 48.9997 Q937.994 47.0148 933.133 47.0148 L924.221 47.0148 L924.221 72.576 L916.038 72.576 L916.038 12.096 L934.51 12.096 Q944.881 12.096 949.985 16.4305 Q955.089 20.7649 955.089 29.5149 Q955.089 35.2267 952.415 38.994 Q949.782 42.7613 944.719 44.2197 M924.221 18.8205 L924.221 40.2903 L934.51 40.2903 Q940.425 40.2903 943.422 37.5762 Q946.46 34.8216 946.46 29.5149 Q946.46 24.2082 943.422 21.5346 Q940.425 18.8205 934.51 18.8205 L924.221 18.8205 Z" fill="#000000" fill-rule="evenodd" fill-opacity="1" /><path clip-path="url(#clip470)" d="M992.155 49.7694 Q983.121 49.7694 979.637 51.8354 Q976.154 53.9013 976.154 58.8839 Q976.154 62.8538 978.746 65.2034 Q981.379 67.5124 985.876 67.5124 Q992.074 67.5124 995.8 63.1374 Q999.568 58.7219 999.568 51.4303 L999.568 49.7694 L992.155 49.7694 M1007.02 46.6907 L1007.02 72.576 L999.568 72.576 L999.568 65.6895 Q997.016 69.8214 993.208 71.8063 Q989.4 73.7508 983.891 73.7508 Q976.923 73.7508 972.791 69.8619 Q968.7 65.9325 968.7 59.3701 Q968.7 51.7138 973.804 47.825 Q978.949 43.9361 989.116 43.9361 L999.568 43.9361 L999.568 43.2069 Q999.568 38.0623 996.165 35.2672 Q992.803 32.4315 986.686 32.4315 Q982.797 32.4315 979.111 33.3632 Q975.424 34.295 972.022 36.1584 L972.022 29.2718 Q976.113 27.692 979.961 26.9223 Q983.81 26.1121 987.456 26.1121 Q997.299 26.1121 1002.16 31.2163 Q1007.02 36.3204 1007.02 46.6907 Z" fill="#000000" fill-rule="evenodd" fill-opacity="1" /><path clip-path="url(#clip470)" d="M1060.09 45.1919 L1060.09 72.576 L1052.63 72.576 L1052.63 45.4349 Q1052.63 38.994 1050.12 35.7938 Q1047.61 32.5936 1042.59 32.5936 Q1036.55 32.5936 1033.07 36.4419 Q1029.59 40.2903 1029.59 46.9338 L1029.59 72.576 L1022.09 72.576 L1022.09 27.2059 L1029.59 27.2059 L1029.59 34.2544 Q1032.26 30.163 1035.86 28.1376 Q1039.51 26.1121 1044.25 26.1121 Q1052.07 26.1121 1056.08 30.9732 Q1060.09 35.7938 1060.09 45.1919 Z" fill="#000000" fill-rule="evenodd" fill-opacity="1" /><path clip-path="url(#clip470)" d="M1104.81 34.0924 L1104.81 9.54393 L1112.26 9.54393 L1112.26 72.576 L1104.81 72.576 L1104.81 65.7705 Q1102.46 69.8214 1098.86 71.8063 Q1095.29 73.7508 1090.27 73.7508 Q1082.04 73.7508 1076.86 67.1883 Q1071.71 60.6258 1071.71 49.9314 Q1071.71 39.2371 1076.86 32.6746 Q1082.04 26.1121 1090.27 26.1121 Q1095.29 26.1121 1098.86 28.0971 Q1102.46 30.0415 1104.81 34.0924 M1079.41 49.9314 Q1079.41 58.1548 1082.77 62.8538 Q1086.18 67.5124 1092.09 67.5124 Q1098 67.5124 1101.41 62.8538 Q1104.81 58.1548 1104.81 49.9314 Q1104.81 41.7081 1101.41 37.0496 Q1098 32.3505 1092.09 32.3505 Q1086.18 32.3505 1082.77 37.0496 Q1079.41 41.7081 1079.41 49.9314 Z" fill="#000000" fill-rule="evenodd" fill-opacity="1" /><path clip-path="url(#clip470)" d="M1145.2 32.4315 Q1139.2 32.4315 1135.72 37.1306 Q1132.23 41.7891 1132.23 49.9314 Q1132.23 58.0738 1135.68 62.7728 Q1139.16 67.4314 1145.2 67.4314 Q1151.15 67.4314 1154.64 62.7323 Q1158.12 58.0333 1158.12 49.9314 Q1158.12 41.8701 1154.64 37.1711 Q1151.15 32.4315 1145.2 32.4315 M1145.2 26.1121 Q1154.92 26.1121 1160.47 32.4315 Q1166.02 38.7509 1166.02 49.9314 Q1166.02 61.0714 1160.47 67.4314 Q1154.92 73.7508 1145.2 73.7508 Q1135.44 73.7508 1129.89 67.4314 Q1124.38 61.0714 1124.38 49.9314 Q1124.38 38.7509 1129.89 32.4315 Q1135.44 26.1121 1145.2 26.1121 Z" fill="#000000" fill-rule="evenodd" fill-opacity="1" /><path clip-path="url(#clip470)" d="M1213.7 35.9153 Q1216.49 30.8922 1220.38 28.5022 Q1224.27 26.1121 1229.54 26.1121 Q1236.63 26.1121 1240.48 31.0947 Q1244.32 36.0368 1244.32 45.1919 L1244.32 72.576 L1236.83 72.576 L1236.83 45.4349 Q1236.83 38.913 1234.52 35.7533 Q1232.21 32.5936 1227.47 32.5936 Q1221.68 32.5936 1218.32 36.4419 Q1214.95 40.2903 1214.95 46.9338 L1214.95 72.576 L1207.46 72.576 L1207.46 45.4349 Q1207.46 38.8725 1205.15 35.7533 Q1202.84 32.5936 1198.02 32.5936 Q1192.31 32.5936 1188.95 36.4824 Q1185.59 40.3308 1185.59 46.9338 L1185.59 72.576 L1178.09 72.576 L1178.09 27.2059 L1185.59 27.2059 L1185.59 34.2544 Q1188.14 30.082 1191.7 28.0971 Q1195.27 26.1121 1200.17 26.1121 Q1205.11 26.1121 1208.55 28.6237 Q1212.04 31.1352 1213.7 35.9153 Z" fill="#000000" fill-rule="evenodd" fill-opacity="1" /><path clip-path="url(#clip470)" d="M1294.07 18.8205 L1294.07 65.8515 L1303.95 65.8515 Q1316.47 65.8515 1322.26 60.1802 Q1328.1 54.509 1328.1 42.2752 Q1328.1 30.1225 1322.26 24.4918 Q1316.47 18.8205 1303.95 18.8205 L1294.07 18.8205 M1285.89 12.096 L1302.7 12.096 Q1320.28 12.096 1328.5 19.4281 Q1336.72 26.7198 1336.72 42.2752 Q1336.72 57.9117 1328.46 65.2439 Q1320.2 72.576 1302.7 72.576 L1285.89 72.576 L1285.89 12.096 Z" fill="#000000" fill-rule="evenodd" fill-opacity="1" /><path clip-path="url(#clip470)" d="M1370.06 49.7694 Q1361.03 49.7694 1357.55 51.8354 Q1354.06 53.9013 1354.06 58.8839 Q1354.06 62.8538 1356.66 65.2034 Q1359.29 67.5124 1363.78 67.5124 Q1369.98 67.5124 1373.71 63.1374 Q1377.48 58.7219 1377.48 51.4303 L1377.48 49.7694 L1370.06 49.7694 M1384.93 46.6907 L1384.93 72.576 L1377.48 72.576 L1377.48 65.6895 Q1374.92 69.8214 1371.12 71.8063 Q1367.31 73.7508 1361.8 73.7508 Q1354.83 73.7508 1350.7 69.8619 Q1346.61 65.9325 1346.61 59.3701 Q1346.61 51.7138 1351.71 47.825 Q1356.86 43.9361 1367.03 43.9361 L1377.48 43.9361 L1377.48 43.2069 Q1377.48 38.0623 1374.07 35.2672 Q1370.71 32.4315 1364.59 32.4315 Q1360.71 32.4315 1357.02 33.3632 Q1353.33 34.295 1349.93 36.1584 L1349.93 29.2718 Q1354.02 27.692 1357.87 26.9223 Q1361.72 26.1121 1365.36 26.1121 Q1375.21 26.1121 1380.07 31.2163 Q1384.93 36.3204 1384.93 46.6907 Z" fill="#000000" fill-rule="evenodd" fill-opacity="1" /><path clip-path="url(#clip470)" d="M1407.66 14.324 L1407.66 27.2059 L1423.01 27.2059 L1423.01 32.9987 L1407.66 32.9987 L1407.66 57.6282 Q1407.66 63.1779 1409.15 64.7578 Q1410.69 66.3376 1415.35 66.3376 L1423.01 66.3376 L1423.01 72.576 L1415.35 72.576 Q1406.72 72.576 1403.44 69.3758 Q1400.16 66.1351 1400.16 57.6282 L1400.16 32.9987 L1394.69 32.9987 L1394.69 27.2059 L1400.16 27.2059 L1400.16 14.324 L1407.66 14.324 Z" fill="#000000" fill-rule="evenodd" fill-opacity="1" /><path clip-path="url(#clip470)" d="M1453.43 49.7694 Q1444.4 49.7694 1440.91 51.8354 Q1437.43 53.9013 1437.43 58.8839 Q1437.43 62.8538 1440.02 65.2034 Q1442.66 67.5124 1447.15 67.5124 Q1453.35 67.5124 1457.08 63.1374 Q1460.84 58.7219 1460.84 51.4303 L1460.84 49.7694 L1453.43 49.7694 M1468.3 46.6907 L1468.3 72.576 L1460.84 72.576 L1460.84 65.6895 Q1458.29 69.8214 1454.48 71.8063 Q1450.68 73.7508 1445.17 73.7508 Q1438.2 73.7508 1434.07 69.8619 Q1429.98 65.9325 1429.98 59.3701 Q1429.98 51.7138 1435.08 47.825 Q1440.23 43.9361 1450.39 43.9361 L1460.84 43.9361 L1460.84 43.2069 Q1460.84 38.0623 1457.44 35.2672 Q1454.08 32.4315 1447.96 32.4315 Q1444.07 32.4315 1440.39 33.3632 Q1436.7 34.295 1433.3 36.1584 L1433.3 29.2718 Q1437.39 27.692 1441.24 26.9223 Q1445.09 26.1121 1448.73 26.1121 Q1458.58 26.1121 1463.44 31.2163 Q1468.3 36.3204 1468.3 46.6907 Z" fill="#000000" fill-rule="evenodd" fill-opacity="1" /><path clip-path="url(#clip470)" d="M1518.53 18.8205 L1518.53 41.5461 L1528.82 41.5461 Q1534.53 41.5461 1537.65 38.5889 Q1540.77 35.6318 1540.77 30.163 Q1540.77 24.7348 1537.65 21.7777 Q1534.53 18.8205 1528.82 18.8205 L1518.53 18.8205 M1510.35 12.096 L1528.82 12.096 Q1538.99 12.096 1544.17 16.714 Q1549.4 21.2916 1549.4 30.163 Q1549.4 39.1155 1544.17 43.6931 Q1538.99 48.2706 1528.82 48.2706 L1518.53 48.2706 L1518.53 72.576 L1510.35 72.576 L1510.35 12.096 Z" fill="#000000" fill-rule="evenodd" fill-opacity="1" /><path clip-path="url(#clip470)" d="M1560.05 9.54393 L1567.5 9.54393 L1567.5 72.576 L1560.05 72.576 L1560.05 9.54393 Z" fill="#000000" fill-rule="evenodd" fill-opacity="1" /><path clip-path="url(#clip470)" d="M1600.68 32.4315 Q1594.69 32.4315 1591.2 37.1306 Q1587.72 41.7891 1587.72 49.9314 Q1587.72 58.0738 1591.16 62.7728 Q1594.65 67.4314 1600.68 67.4314 Q1606.64 67.4314 1610.12 62.7323 Q1613.6 58.0333 1613.6 49.9314 Q1613.6 41.8701 1610.12 37.1711 Q1606.64 32.4315 1600.68 32.4315 M1600.68 26.1121 Q1610.4 26.1121 1615.95 32.4315 Q1621.5 38.7509 1621.5 49.9314 Q1621.5 61.0714 1615.95 67.4314 Q1610.4 73.7508 1600.68 73.7508 Q1590.92 73.7508 1585.37 67.4314 Q1579.86 61.0714 1579.86 49.9314 Q1579.86 38.7509 1585.37 32.4315 Q1590.92 26.1121 1600.68 26.1121 Z" fill="#000000" fill-rule="evenodd" fill-opacity="1" /><path clip-path="url(#clip470)" d="M1641.23 14.324 L1641.23 27.2059 L1656.58 27.2059 L1656.58 32.9987 L1641.23 32.9987 L1641.23 57.6282 Q1641.23 63.1779 1642.73 64.7578 Q1644.27 66.3376 1648.93 66.3376 L1656.58 66.3376 L1656.58 72.576 L1648.93 72.576 Q1640.3 72.576 1637.02 69.3758 Q1633.74 66.1351 1633.74 57.6282 L1633.74 32.9987 L1628.27 32.9987 L1628.27 27.2059 L1633.74 27.2059 L1633.74 14.324 L1641.23 14.324 Z" fill="#000000" fill-rule="evenodd" fill-opacity="1" /><polyline clip-path="url(#clip472)" style="stroke:#009af9; stroke-linecap:butt; stroke-linejoin:round; stroke-width:4; stroke-opacity:1; fill:none" points="
  280.231,226.712 503.804,1277.86 727.378,428.488 950.951,676.351 1174.52,524.664 1398.1,621.299 1621.67,160.256 1845.24,224.301 2068.82,1241.26 2292.39,1386.4 
  
  "/>
<path clip-path="url(#clip470)" d="
M1637.8 270.476 L2281.66 270.476 L2281.66 166.796 L1637.8 166.796  Z
  " fill="#ffffff" fill-rule="evenodd" fill-opacity="1"/>
<polyline clip-path="url(#clip470)" style="stroke:#000000; stroke-linecap:butt; stroke-linejoin:round; stroke-width:4; stroke-opacity:1; fill:none" points="
  1637.8,270.476 2281.66,270.476 2281.66,166.796 1637.8,166.796 1637.8,270.476 
  "/>
<polyline clip-path="url(#clip470)" style="stroke:#009af9; stroke-linecap:butt; stroke-linejoin:round; stroke-width:4; stroke-opacity:1; fill:none" points="
  1661.5,218.636 1803.69,218.636 
  "/>
<path clip-path="url(#clip470)" d="M1843.41 204.527 Q1838.32 204.527 1835.31 208.323 Q1832.32 212.12 1832.32 218.67 Q1832.32 225.198 1835.31 228.994 Q1838.32 232.791 1843.41 232.791 Q1848.5 232.791 1851.46 228.994 Q1854.45 225.198 1854.45 218.67 Q1854.45 212.12 1851.46 208.323 Q1848.5 204.527 1843.41 204.527 M1843.41 200.731 Q1850.68 200.731 1855.03 205.615 Q1859.38 210.476 1859.38 218.67 Q1859.38 226.842 1855.03 231.726 Q1850.68 236.587 1843.41 236.587 Q1836.12 236.587 1831.74 231.726 Q1827.39 226.865 1827.39 218.67 Q1827.39 210.476 1831.74 205.615 Q1836.12 200.731 1843.41 200.731 Z" fill="#000000" fill-rule="evenodd" fill-opacity="1" /><path clip-path="url(#clip470)" d="M1866.07 225.684 L1866.07 209.99 L1870.33 209.99 L1870.33 225.522 Q1870.33 229.203 1871.76 231.055 Q1873.2 232.883 1876.07 232.883 Q1879.52 232.883 1881.51 230.684 Q1883.52 228.485 1883.52 224.689 L1883.52 209.99 L1887.78 209.99 L1887.78 235.916 L1883.52 235.916 L1883.52 231.934 Q1881.97 234.295 1879.91 235.453 Q1877.88 236.587 1875.17 236.587 Q1870.7 236.587 1868.38 233.809 Q1866.07 231.031 1866.07 225.684 M1876.79 209.365 L1876.79 209.365 Z" fill="#000000" fill-rule="evenodd" fill-opacity="1" /><path clip-path="url(#clip470)" d="M1911.58 213.971 Q1910.86 213.555 1910 213.37 Q1909.17 213.161 1908.15 213.161 Q1904.54 213.161 1902.6 215.522 Q1900.68 217.86 1900.68 222.258 L1900.68 235.916 L1896.39 235.916 L1896.39 209.99 L1900.68 209.99 L1900.68 214.018 Q1902.02 211.657 1904.17 210.522 Q1906.32 209.365 1909.4 209.365 Q1909.84 209.365 1910.37 209.434 Q1910.91 209.481 1911.56 209.596 L1911.58 213.971 Z" fill="#000000" fill-rule="evenodd" fill-opacity="1" /><path clip-path="url(#clip470)" d="M1947.69 219.712 Q1949.19 220.221 1950.61 221.888 Q1952.04 223.555 1953.48 226.471 L1958.22 235.916 L1953.2 235.916 L1948.78 227.05 Q1947.06 223.578 1945.44 222.444 Q1943.85 221.309 1941.07 221.309 L1935.98 221.309 L1935.98 235.916 L1931.3 235.916 L1931.3 201.356 L1941.86 201.356 Q1947.78 201.356 1950.7 203.833 Q1953.62 206.309 1953.62 211.309 Q1953.62 214.573 1952.09 216.726 Q1950.58 218.879 1947.69 219.712 M1935.98 205.198 L1935.98 217.467 L1941.86 217.467 Q1945.24 217.467 1946.95 215.916 Q1948.68 214.342 1948.68 211.309 Q1948.68 208.277 1946.95 206.749 Q1945.24 205.198 1941.86 205.198 L1935.98 205.198 Z" fill="#000000" fill-rule="evenodd" fill-opacity="1" /><path clip-path="url(#clip470)" d="M1974.8 222.883 Q1969.63 222.883 1967.64 224.064 Q1965.65 225.244 1965.65 228.092 Q1965.65 230.36 1967.13 231.703 Q1968.64 233.022 1971.21 233.022 Q1974.75 233.022 1976.88 230.522 Q1979.03 227.999 1979.03 223.832 L1979.03 222.883 L1974.8 222.883 M1983.29 221.124 L1983.29 235.916 L1979.03 235.916 L1979.03 231.981 Q1977.57 234.342 1975.4 235.476 Q1973.22 236.587 1970.07 236.587 Q1966.09 236.587 1963.73 234.365 Q1961.39 232.119 1961.39 228.369 Q1961.39 223.994 1964.31 221.772 Q1967.25 219.55 1973.06 219.55 L1979.03 219.55 L1979.03 219.133 Q1979.03 216.194 1977.09 214.596 Q1975.17 212.976 1971.67 212.976 Q1969.45 212.976 1967.34 213.508 Q1965.24 214.041 1963.29 215.106 L1963.29 211.17 Q1965.63 210.268 1967.83 209.828 Q1970.03 209.365 1972.11 209.365 Q1977.74 209.365 1980.51 212.282 Q1983.29 215.198 1983.29 221.124 Z" fill="#000000" fill-rule="evenodd" fill-opacity="1" /><path clip-path="url(#clip470)" d="M2013.62 220.268 L2013.62 235.916 L2009.36 235.916 L2009.36 220.407 Q2009.36 216.726 2007.92 214.897 Q2006.49 213.069 2003.62 213.069 Q2000.17 213.069 1998.18 215.268 Q1996.18 217.467 1996.18 221.263 L1996.18 235.916 L1991.9 235.916 L1991.9 209.99 L1996.18 209.99 L1996.18 214.018 Q1997.71 211.68 1999.77 210.522 Q2001.86 209.365 2004.56 209.365 Q2009.03 209.365 2011.32 212.143 Q2013.62 214.897 2013.62 220.268 Z" fill="#000000" fill-rule="evenodd" fill-opacity="1" /><path clip-path="url(#clip470)" d="M2039.17 213.925 L2039.17 199.897 L2043.43 199.897 L2043.43 235.916 L2039.17 235.916 L2039.17 232.027 Q2037.83 234.342 2035.77 235.476 Q2033.73 236.587 2030.86 236.587 Q2026.16 236.587 2023.2 232.837 Q2020.26 229.087 2020.26 222.976 Q2020.26 216.865 2023.2 213.115 Q2026.16 209.365 2030.86 209.365 Q2033.73 209.365 2035.77 210.499 Q2037.83 211.61 2039.17 213.925 M2024.66 222.976 Q2024.66 227.675 2026.58 230.36 Q2028.52 233.022 2031.9 233.022 Q2035.28 233.022 2037.23 230.36 Q2039.17 227.675 2039.17 222.976 Q2039.17 218.277 2037.23 215.615 Q2035.28 212.93 2031.9 212.93 Q2028.52 212.93 2026.58 215.615 Q2024.66 218.277 2024.66 222.976 Z" fill="#000000" fill-rule="evenodd" fill-opacity="1" /><path clip-path="url(#clip470)" d="M2062.25 212.976 Q2058.82 212.976 2056.83 215.661 Q2054.84 218.323 2054.84 222.976 Q2054.84 227.629 2056.81 230.314 Q2058.8 232.976 2062.25 232.976 Q2065.65 232.976 2067.64 230.291 Q2069.63 227.606 2069.63 222.976 Q2069.63 218.37 2067.64 215.684 Q2065.65 212.976 2062.25 212.976 M2062.25 209.365 Q2067.8 209.365 2070.98 212.976 Q2074.15 216.587 2074.15 222.976 Q2074.15 229.342 2070.98 232.976 Q2067.8 236.587 2062.25 236.587 Q2056.67 236.587 2053.5 232.976 Q2050.35 229.342 2050.35 222.976 Q2050.35 216.587 2053.5 212.976 Q2056.67 209.365 2062.25 209.365 Z" fill="#000000" fill-rule="evenodd" fill-opacity="1" /><path clip-path="url(#clip470)" d="M2101.39 214.967 Q2102.99 212.096 2105.21 210.731 Q2107.43 209.365 2110.44 209.365 Q2114.49 209.365 2116.69 212.212 Q2118.89 215.036 2118.89 220.268 L2118.89 235.916 L2114.61 235.916 L2114.61 220.407 Q2114.61 216.68 2113.29 214.874 Q2111.97 213.069 2109.26 213.069 Q2105.95 213.069 2104.03 215.268 Q2102.11 217.467 2102.11 221.263 L2102.11 235.916 L2097.83 235.916 L2097.83 220.407 Q2097.83 216.657 2096.51 214.874 Q2095.19 213.069 2092.43 213.069 Q2089.17 213.069 2087.25 215.291 Q2085.33 217.49 2085.33 221.263 L2085.33 235.916 L2081.05 235.916 L2081.05 209.99 L2085.33 209.99 L2085.33 214.018 Q2086.79 211.633 2088.82 210.499 Q2090.86 209.365 2093.66 209.365 Q2096.48 209.365 2098.45 210.8 Q2100.44 212.235 2101.39 214.967 Z" fill="#000000" fill-rule="evenodd" fill-opacity="1" /><path clip-path="url(#clip470)" d="M2142.64 201.356 L2147.32 201.356 L2147.32 231.981 L2164.15 231.981 L2164.15 235.916 L2142.64 235.916 L2142.64 201.356 Z" fill="#000000" fill-rule="evenodd" fill-opacity="1" /><path clip-path="url(#clip470)" d="M2168.87 209.99 L2173.13 209.99 L2173.13 235.916 L2168.87 235.916 L2168.87 209.99 M2168.87 199.897 L2173.13 199.897 L2173.13 205.291 L2168.87 205.291 L2168.87 199.897 Z" fill="#000000" fill-rule="evenodd" fill-opacity="1" /><path clip-path="url(#clip470)" d="M2203.59 220.268 L2203.59 235.916 L2199.33 235.916 L2199.33 220.407 Q2199.33 216.726 2197.9 214.897 Q2196.46 213.069 2193.59 213.069 Q2190.14 213.069 2188.15 215.268 Q2186.16 217.467 2186.16 221.263 L2186.16 235.916 L2181.88 235.916 L2181.88 209.99 L2186.16 209.99 L2186.16 214.018 Q2187.69 211.68 2189.75 210.522 Q2191.83 209.365 2194.54 209.365 Q2199.01 209.365 2201.3 212.143 Q2203.59 214.897 2203.59 220.268 Z" fill="#000000" fill-rule="evenodd" fill-opacity="1" /><path clip-path="url(#clip470)" d="M2234.26 221.888 L2234.26 223.971 L2214.68 223.971 Q2214.96 228.369 2217.32 230.684 Q2219.7 232.976 2223.94 232.976 Q2226.39 232.976 2228.68 232.374 Q2231 231.772 2233.27 230.569 L2233.27 234.596 Q2230.98 235.568 2228.57 236.078 Q2226.16 236.587 2223.68 236.587 Q2217.48 236.587 2213.85 232.976 Q2210.23 229.365 2210.23 223.207 Q2210.23 216.842 2213.66 213.115 Q2217.11 209.365 2222.94 209.365 Q2228.17 209.365 2231.21 212.745 Q2234.26 216.101 2234.26 221.888 M2230 220.638 Q2229.96 217.143 2228.04 215.059 Q2226.14 212.976 2222.99 212.976 Q2219.42 212.976 2217.27 214.99 Q2215.14 217.004 2214.82 220.661 L2230 220.638 Z" fill="#000000" fill-rule="evenodd" fill-opacity="1" /></svg>
